<?xml version="1.0" standalone="no"?>
<!DOCTYPE svg PUBLIC "-//W3C//DTD SVG 20010904//EN"
 "http://www.w3.org/TR/2001/REC-SVG-20010904/DTD/svg10.dtd">
<svg version="1.0" xmlns="http://www.w3.org/2000/svg"
 width="300.000000pt" height="300.000000pt" viewBox="0 0 300.000000 300.000000"
 preserveAspectRatio="xMidYMid meet">

<g transform="translate(0.000000,300.000000) scale(0.100000,-0.100000)"
fill="#000000" stroke="none">
<path d="M0 2912 c0 -66 4 -93 15 -102 12 -10 12 -15 -2 -37 -17 -26 -17 -26
5 -14 19 10 22 9 23 -6 0 -13 3 -12 11 7 18 42 19 62 3 81 -11 11 -13 19 -5
24 6 3 10 12 9 18 -4 30 3 43 26 54 14 6 25 7 25 2 0 -5 5 -9 11 -9 5 0 7 5 4
10 -8 13 -4 13 38 -5 33 -14 36 -14 30 1 -5 12 -2 15 13 11 42 -13 78 -18 69
-10 -9 7 -11 16 -6 40 0 3 11 -2 23 -13 12 -10 18 -14 15 -7 -4 6 -1 14 5 16
10 4 10 6 0 6 -7 1 -11 5 -8 10 4 5 -59 10 -149 10 l-155 2 0 -89z"/>
<path d="M327 2985 c7 -19 30 -19 48 -2 11 12 8 14 -20 15 -26 1 -33 -2 -28
-13z"/>
<path d="M520 2992 c0 -23 23 -29 58 -16 43 15 92 18 92 5 0 -5 21 -19 46 -31
35 -16 49 -18 54 -10 5 9 13 9 25 2 13 -7 27 -4 52 10 20 13 33 16 33 8 0 -7
8 -9 19 -5 11 3 23 1 26 -6 6 -8 10 -7 16 2 6 9 12 10 17 4 4 -6 15 -11 25
-12 34 -1 38 -3 32 -13 -3 -5 3 -10 15 -10 13 0 19 4 14 11 -4 7 1 9 12 7 11
-2 28 6 39 17 35 37 71 38 67 4 -1 -4 8 -5 19 -2 11 3 28 -2 40 -13 17 -15 22
-16 29 -5 5 8 4 24 -3 38 l-10 23 -359 0 c-197 -1 -358 -4 -358 -8z"/>
<path d="M1341 2993 c-1 -7 -7 -13 -14 -13 -18 0 -51 -36 -40 -43 18 -11 68
-11 68 0 0 20 16 28 26 13 8 -11 12 -12 16 -2 7 17 23 15 23 -3 0 -12 9 -15
35 -13 23 1 35 7 35 17 0 11 3 12 11 4 6 -6 17 -9 23 -7 7 3 25 -2 41 -10 16
-9 32 -12 35 -8 7 11 50 12 50 1 0 -5 5 -9 10 -9 5 0 9 3 9 8 -4 26 3 41 20
39 12 -1 17 -6 13 -15 -4 -12 -1 -12 15 -4 11 6 24 8 28 4 4 -4 6 3 3 15 -4
16 -2 20 8 16 8 -3 14 0 14 6 0 14 -375 14 -401 0 -12 -6 -19 -5 -22 4 -4 9
-6 9 -6 0z"/>
<path d="M1800 2981 c0 -18 4 -19 24 -11 16 6 26 5 28 -1 5 -15 65 -19 84 -4
20 14 48 9 37 -8 -4 -6 -1 -7 7 -2 7 4 16 2 22 -6 7 -11 11 -11 15 -1 2 6 11
12 19 12 9 0 13 -4 10 -9 -7 -11 41 -24 54 -16 6 4 10 1 10 -5 0 -6 10 -8 23
-5 12 4 35 2 50 -4 14 -6 29 -6 32 -2 8 14 63 7 85 -12 11 -9 20 -13 20 -8 0
12 86 35 105 28 8 -4 15 -3 15 2 0 4 14 8 30 8 17 0 30 -4 30 -9 0 -5 31 -8
70 -6 60 2 68 4 57 17 -10 12 -9 13 2 7 8 -5 17 -3 22 5 7 11 12 12 28 2 13
-8 22 -9 26 -3 3 6 11 10 16 10 6 0 7 -6 3 -12 -5 -9 -2 -9 9 1 9 7 17 9 17 3
0 -5 11 -9 25 -9 14 0 25 2 25 6 0 3 11 7 25 7 14 1 23 -2 20 -6 -3 -5 -1 -11
5 -15 5 -3 10 0 10 8 0 8 7 18 16 21 23 9 26 8 21 -6 -3 -7 5 -31 18 -53 16
-28 22 -53 20 -82 -1 -24 2 -43 7 -43 5 0 6 -5 3 -11 -4 -6 -13 -8 -21 -5 -17
7 -18 -8 -1 -35 10 -17 9 -22 -4 -29 -18 -11 -16 -84 4 -108 9 -12 9 -16 0
-19 -7 -3 -13 -10 -13 -16 0 -5 3 -8 6 -4 4 3 13 -1 22 -9 14 -14 17 -14 28 8
11 19 13 20 14 5 0 -10 5 -15 10 -12 6 4 10 92 10 231 l0 224 -40 0 c-22 0
-39 -3 -37 -8 1 -4 -2 -7 -8 -7 -5 0 -9 3 -8 6 1 4 -247 7 -552 8 -549 2 -555
1 -555 -18z m1170 -12 c0 -11 -5 -16 -13 -13 -8 3 -14 11 -14 18 0 7 6 13 14
13 7 0 13 -8 13 -18z m-655 -49 c3 -6 -1 -7 -9 -4 -18 7 -21 14 -7 14 6 0 13
-4 16 -10z"/>
<path d="M351 2941 c-8 -6 -9 -11 -3 -15 6 -3 14 -1 17 5 9 14 2 20 -14 10z"/>
<path d="M0 2450 c1 -190 4 -260 13 -263 9 -3 9 -7 0 -19 -16 -19 -14 -88 2
-81 8 2 13 -5 13 -21 0 -17 -5 -23 -14 -19 -12 4 -14 -112 -14 -742 0 -495 3
-744 10 -740 13 8 13 -28 -1 -42 -7 -7 -3 -9 15 -6 14 3 26 12 26 20 0 11 7
14 23 10 l22 -6 -23 19 c-18 15 -21 24 -14 36 5 9 7 26 4 36 -3 11 1 24 9 29
11 6 11 11 1 21 -16 16 -16 48 1 48 8 0 8 3 -2 9 -12 8 -12 12 -2 25 11 13 11
17 -2 22 -9 3 -13 13 -10 25 3 11 0 19 -6 19 -7 0 -10 4 -6 10 3 5 12 7 19 4
16 -6 24 12 21 46 -1 15 -8 24 -15 22 -11 -3 -11 0 -1 12 15 17 7 51 -9 41 -5
-3 -10 3 -10 15 0 12 5 18 10 15 6 -3 10 1 10 10 0 9 -4 14 -9 10 -5 -3 -12
-1 -16 5 -3 5 -1 10 4 10 6 0 11 7 11 15 0 8 5 15 11 15 7 0 9 9 5 24 -4 16
-1 26 9 30 8 3 15 13 15 22 0 11 -5 14 -16 10 -9 -3 -18 -6 -20 -6 -3 0 -2 -4
1 -10 3 -5 2 -10 -4 -10 -5 0 -9 9 -8 19 0 11 5 17 9 15 4 -3 5 2 2 10 -3 9
-10 13 -15 10 -5 -3 -9 2 -9 11 0 9 4 14 8 11 5 -3 16 4 25 14 13 15 14 21 3
27 -11 7 -28 37 -30 55 -1 3 -4 10 -8 14 -16 16 -7 41 20 54 15 7 22 15 14 17
-6 3 -12 20 -12 39 0 19 -4 34 -10 34 -16 0 -12 19 13 53 16 22 24 48 26 85 2
50 1 53 -19 47 -19 -6 -20 -3 -18 30 1 21 -3 40 -11 44 -9 6 -10 11 -2 15 7 5
8 13 2 24 -6 11 -4 20 6 28 10 6 13 16 8 24 -15 24 -14 90 1 98 17 10 27 152
13 189 -6 16 -5 23 3 23 6 0 8 3 5 6 -3 4 -2 15 4 25 7 15 6 17 -6 13 -11 -4
-13 -2 -9 9 3 9 0 25 -6 37 -9 18 -8 25 6 41 15 17 13 24 -8 20 -5 0 -8 3 -8
9 0 6 -7 10 -15 10 -12 0 -13 5 -4 27 6 18 6 30 0 36 -7 7 -3 14 12 22 15 7
22 20 22 38 -1 15 2 27 6 27 11 0 21 51 12 63 -5 7 -14 29 -21 49 -10 29 -10
41 -1 56 10 16 9 24 -7 45 -18 25 -43 39 -29 17 3 -5 1 -10 -4 -10 -14 0 -14
17 -1 25 15 9 12 22 -5 29 -14 5 -15 -25 -15 -254z m70 -401 c0 -5 -7 -9 -15
-9 -8 0 -15 7 -15 15 0 9 6 12 15 9 8 -4 15 -10 15 -15z m0 -963 c0 -3 -4 -8
-10 -11 -5 -3 -10 -1 -10 4 0 6 5 11 10 11 6 0 10 -2 10 -4z"/>
<path d="M2926 2470 c-9 -23 -14 -45 -11 -50 3 -4 0 -10 -7 -12 -7 -3 -9 -12
-5 -22 5 -11 13 -16 23 -12 12 4 14 1 9 -13 -3 -11 -1 -22 5 -26 5 -3 10 -11
10 -17 0 -7 -5 -6 -14 1 -10 8 -16 9 -21 1 -3 -5 0 -10 7 -10 9 0 9 -3 -2 -10
-10 -6 -11 -10 -2 -10 6 0 12 -6 12 -13 0 -7 6 -21 13 -31 11 -15 17 -17 35
-7 21 11 22 19 22 121 0 61 -3 109 -7 109 -22 -4 -25 3 -7 15 10 8 16 18 12
22 -4 4 -15 1 -24 -6 -12 -11 -17 -11 -23 -1 -6 8 -14 -1 -25 -29z m54 -191
c0 -6 -4 -7 -10 -4 -5 3 -10 1 -10 -6 0 -7 -2 -10 -5 -7 -9 8 6 38 16 32 5 -3
9 -10 9 -15z"/>
<path d="M2940 2205 c12 -15 3 -21 -24 -16 -5 1 -5 -4 1 -11 11 -15 11 -100
-1 -137 -7 -19 -5 -23 7 -18 10 4 15 -1 15 -19 0 -13 -5 -24 -10 -24 -5 0 -7
-4 -4 -8 3 -5 -2 -21 -10 -36 -17 -35 -17 -36 0 -36 22 0 28 -17 11 -33 -12
-13 -10 -19 22 -52 25 -26 32 -39 24 -44 -14 -9 -5 -61 10 -61 15 0 10 -36 -6
-50 -8 -6 -14 -15 -13 -18 0 -4 -1 -9 -2 -12 -6 -16 -5 -50 2 -50 4 0 8 -4 8
-10 0 -5 -5 -10 -11 -10 -13 0 -33 -21 -37 -40 -5 -23 8 -61 18 -55 16 10 11
-21 -5 -35 -18 -15 -19 -37 -2 -43 9 -4 9 -6 -1 -6 -9 -1 -9 -8 4 -32 8 -17
11 -28 6 -25 -5 3 -17 -5 -26 -19 -9 -14 -12 -25 -6 -25 5 0 10 5 10 10 0 6 5
10 11 10 5 0 8 -4 5 -9 -8 -12 19 -33 29 -23 4 4 5 -4 2 -16 -3 -13 -3 -21 0
-18 4 3 12 1 19 -5 10 -8 13 81 14 474 0 431 -1 487 -16 501 -8 9 -25 16 -36
16 -17 0 -18 -2 -8 -15z m50 -240 c0 -8 -7 -15 -15 -15 -13 0 -14 3 -3 15 16
18 18 18 18 0z"/>
<path d="M2885 1330 c3 -5 8 -10 11 -10 2 0 4 5 4 10 0 6 -5 10 -11 10 -5 0
-7 -4 -4 -10z"/>
<path d="M2930 1189 c0 -5 5 -9 11 -9 6 0 3 -7 -5 -16 -9 -8 -20 -13 -26 -9
-5 3 -8 -7 -7 -24 1 -16 5 -27 8 -26 9 6 39 -34 39 -51 0 -12 -6 -15 -21 -11
-16 4 -18 3 -8 -9 6 -7 16 -11 23 -7 8 5 8 3 0 -8 -15 -19 -28 -72 -15 -65 13
9 20 -21 16 -71 -2 -25 1 -43 7 -43 5 0 8 -7 5 -15 -4 -8 -2 -17 4 -21 6 -4 4
-13 -6 -24 -13 -14 -13 -19 -3 -23 11 -4 11 -8 0 -26 -7 -12 -10 -27 -6 -33 4
-7 3 -8 -4 -4 -7 4 -12 3 -12 -3 0 -5 6 -12 13 -14 10 -4 10 -6 0 -6 -21 -1
-15 -32 10 -54 l22 -19 -25 6 c-21 6 -22 5 -7 -4 22 -14 22 -27 -4 -85 -17
-38 -19 -52 -10 -71 6 -14 7 -24 1 -24 -6 0 -6 -9 0 -24 5 -13 6 -27 2 -31 -3
-3 1 -3 11 1 10 3 17 1 17 -5 0 -10 -14 -15 -34 -12 -5 1 -5 -6 -1 -16 13 -29
15 -111 4 -140 -7 -20 -6 -30 8 -45 9 -10 22 -17 29 -14 8 3 11 -1 8 -9 -3 -8
-15 -15 -27 -17 -14 -2 -22 -10 -22 -23 0 -12 -6 -19 -14 -17 -7 1 -19 -2 -27
-9 -10 -8 -19 -6 -39 9 -26 21 -36 20 -84 -4 -14 -7 -29 -10 -35 -6 -18 11
-48 13 -41 2 3 -5 -7 -3 -21 5 -32 16 -46 11 -37 -13 6 -15 5 -15 -10 -4 -21
18 -68 23 -84 10 -7 -6 -24 -8 -38 -6 -21 4 -25 1 -25 -18 0 -14 -6 -24 -15
-24 -8 0 -12 6 -9 13 3 10 -5 14 -27 15 -18 0 -35 6 -39 12 -4 6 -14 8 -23 4
-14 -5 -16 -2 -11 12 6 15 4 17 -6 7 -11 -10 -11 -15 0 -28 7 -8 10 -18 6 -22
-3 -3 -6 -1 -6 6 0 7 -10 10 -25 7 -15 -3 -31 2 -41 11 -18 18 -37 6 -39 -26
-1 -19 10 -19 381 -20 l382 -2 1 516 c1 283 -2 515 -7 515 -4 0 -15 16 -24 35
-14 33 -14 35 5 52 12 10 17 12 12 4 -5 -10 -4 -12 3 -7 7 4 12 24 12 46 0 37
-1 38 -35 38 -19 0 -35 -4 -35 -9z"/>
<path d="M1 408 c-1 -89 1 -100 21 -120 22 -22 23 -22 26 -4 2 11 10 25 17 33
9 9 12 30 9 67 -3 42 -1 55 11 60 8 3 15 11 15 18 0 9 -3 9 -10 -2 -7 -12 -12
-12 -22 -2 -10 10 -10 15 2 22 12 8 9 10 -12 10 -18 0 -28 -5 -28 -15 0 -23
-18 -18 -23 8 -2 12 -5 -22 -6 -75z m24 -78 c3 -5 1 -10 -4 -10 -6 0 -11 5
-11 10 0 6 2 10 4 10 3 0 8 -4 11 -10z"/>
<path d="M52 224 c-15 -22 -29 -34 -38 -30 -12 4 -14 -12 -14 -94 l0 -100 44
0 c36 0 46 4 51 20 3 11 11 20 17 20 5 0 12 -9 15 -20 5 -19 14 -20 262 -20
169 0 251 4 241 10 -13 8 -12 10 3 10 9 0 17 -5 17 -11 0 -17 23 -5 26 14 2
14 -3 16 -19 12 -17 -5 -19 -4 -7 4 24 16 5 23 -35 12 -26 -7 -44 -7 -57 0
-15 8 -24 7 -37 -5 -11 -10 -30 -15 -49 -12 -19 2 -32 -1 -32 -8 0 -6 -9 0
-19 13 -14 18 -20 21 -23 10 -3 -8 -3 -1 -1 14 5 26 3 27 -15 16 -11 -7 -18
-19 -15 -26 3 -7 -2 -13 -12 -13 -10 0 -13 -5 -9 -12 4 -6 3 -8 -4 -5 -5 4 -9
18 -8 32 2 13 -1 22 -5 19 -5 -3 -12 2 -15 10 -3 9 -11 13 -16 10 -6 -4 -14
-1 -18 6 -7 11 -12 10 -25 -3 -11 -12 -22 -14 -32 -8 -11 6 -22 2 -35 -11 -18
-18 -21 -18 -32 -3 -9 13 -17 14 -40 6 -32 -13 -48 -7 -45 17 2 29 -1 38 -10
24 -6 -10 -10 -9 -14 7 -3 12 -1 21 4 21 5 0 9 6 9 14 0 8 8 28 17 45 27 46 4
59 -25 15z"/>
<path d="M825 80 c-4 -6 -11 -8 -16 -4 -5 3 -15 1 -22 -4 -7 -5 -29 -9 -49 -7
-37 2 -51 -10 -24 -21 8 -3 16 -14 19 -25 5 -19 21 -19 615 -19 l610 0 -6 22
c-3 12 -7 17 -10 10 -2 -6 -8 -12 -14 -12 -5 0 -6 9 -3 20 5 15 2 20 -13 20
-11 0 -25 6 -31 14 -17 20 -59 17 -67 -6 -4 -13 -12 -17 -25 -13 -10 3 -28 7
-38 10 -11 3 -22 2 -25 -3 -8 -13 -99 -14 -106 -1 -5 7 -11 6 -21 -3 -19 -17
-43 -22 -33 -7 5 9 -1 10 -22 5 -16 -4 -32 -14 -37 -21 -5 -9 -18 -12 -40 -8
-17 3 -40 6 -49 6 -10 1 -18 4 -18 8 0 3 -18 9 -39 13 -22 3 -42 12 -44 18 -4
10 -8 10 -15 -1 -6 -8 -17 -11 -26 -8 -10 4 -16 1 -16 -9 0 -11 -6 -13 -21 -9
-15 5 -19 4 -15 -4 4 -6 0 -11 -8 -11 -9 0 -16 4 -16 10 0 5 -7 7 -15 4 -8 -4
-22 -1 -30 6 -12 10 -18 10 -32 -1 -9 -8 -17 -13 -17 -11 -1 2 -9 0 -20 -4
-12 -5 -22 -2 -28 10 -5 9 -14 13 -21 9 -19 -12 -71 -3 -84 14 -11 14 -16 15
-37 4 -13 -8 -29 -10 -35 -7 -6 4 -11 2 -11 -3 0 -6 -4 -11 -10 -11 -5 0 -9 3
-9 8 5 29 -13 44 -26 22z m815 -49 c0 -6 -4 -13 -10 -16 -5 -3 -10 1 -10 9 0
9 5 16 10 16 6 0 10 -4 10 -9z"/>
<path d="M2051 78 c-58 -71 -60 -73 -61 -53 0 17 -2 17 -10 5 -5 -8 -10 -18
-10 -22 0 -5 55 -8 123 -8 l123 0 -2 29 c-1 16 -5 34 -9 40 -8 14 -45 14 -45
1 0 -17 -28 -11 -39 8 -10 15 -12 16 -23 1 -13 -16 -43 -15 -32 2 8 14 -4 11
-15 -3z"/>
</g>
</svg>
