<?xml version="1.0" standalone="no"?>
<!DOCTYPE svg PUBLIC "-//W3C//DTD SVG 20010904//EN"
 "http://www.w3.org/TR/2001/REC-SVG-20010904/DTD/svg10.dtd">
<svg version="1.0" xmlns="http://www.w3.org/2000/svg"
 width="1023.000000pt" height="1022.000000pt" viewBox="0 0 1023.000000 1022.000000"
 preserveAspectRatio="xMidYMid meet">

<g transform="translate(0.000000,1022.000000) scale(0.100000,-0.100000)"
fill="#000000" stroke="none">
<path d="M7550 10212 c-14 -2 -38 -14 -55 -26 -16 -12 -60 -39 -97 -59 -54
-30 -77 -37 -121 -37 -30 0 -79 -5 -108 -11 -67 -13 -232 -12 -542 5 -131 6
-268 9 -305 4 -202 -22 -317 -29 -407 -24 -206 13 -341 28 -378 44 -62 25
-125 22 -172 -11 -22 -15 -41 -23 -43 -17 -8 22 -85 51 -150 56 -37 3 -81 13
-99 22 -34 17 -36 16 -113 -28 -26 -15 -53 -20 -110 -20 -51 0 -95 -7 -135
-21 -47 -17 -93 -22 -216 -26 -102 -4 -158 -2 -162 4 -5 7 -22 5 -51 -5 -36
-13 -53 -14 -85 -6 -21 6 -45 8 -53 4 -7 -4 -85 -10 -173 -14 -119 -5 -173 -3
-210 7 -34 9 -63 11 -90 5 -27 -6 -48 -5 -65 3 -14 6 -56 11 -95 10 -46 -1
-80 4 -99 14 -38 20 -39 20 -112 -16 -61 -30 -66 -31 -121 -20 -31 6 -97 11
-147 11 -80 1 -98 4 -151 30 -59 30 -115 39 -115 20 0 -15 -19 -12 -36 5 -9 8
-30 15 -47 15 -18 0 -70 11 -117 25 -112 32 -263 45 -355 29 -38 -6 -122 -15
-185 -19 -63 -4 -140 -13 -171 -21 -31 -8 -83 -14 -115 -14 -33 -1 -111 -8
-174 -16 -230 -30 -252 -30 -362 2 l-100 28 -118 -17 c-101 -15 -135 -16 -236
-6 -141 14 -285 7 -336 -15 -21 -9 -61 -16 -90 -16 -66 0 -117 -33 -144 -93
-15 -33 -18 -60 -16 -132 5 -143 7 -244 4 -330 -2 -44 -3 -102 -2 -130 0 -27
-1 -135 -3 -240 -3 -164 -6 -199 -25 -257 -36 -107 -42 -156 -30 -220 10 -46
9 -72 -5 -145 -9 -48 -22 -124 -27 -168 -6 -44 -22 -141 -37 -215 -22 -115
-25 -152 -20 -260 4 -104 9 -137 31 -194 24 -60 57 -230 58 -292 0 -12 -10
-63 -23 -114 -21 -87 -22 -98 -10 -192 7 -54 21 -120 32 -145 40 -93 69 -195
69 -241 0 -26 6 -67 14 -92 22 -75 20 -149 -5 -204 -20 -47 -21 -59 -15 -197
6 -118 4 -165 -9 -239 -16 -84 -16 -96 -2 -148 37 -134 40 -270 7 -332 -27
-50 -43 -307 -22 -333 6 -7 11 -65 11 -130 1 -65 4 -129 7 -142 4 -14 0 -33
-10 -47 -20 -29 -20 -77 0 -106 13 -19 15 -38 9 -101 -6 -73 -5 -80 17 -106
l24 -28 -33 -88 c-53 -140 -57 -174 -36 -265 14 -60 16 -99 11 -159 -3 -44 -6
-138 -6 -210 0 -153 -6 -183 -40 -211 -26 -21 -52 -88 -52 -134 0 -14 -7 -46
-16 -71 -17 -45 -16 -47 9 -100 36 -77 55 -181 37 -213 -9 -19 -10 -29 -2 -38
6 -8 15 -25 21 -40 8 -21 5 -32 -16 -59 -14 -19 -37 -59 -51 -89 -24 -52 -25
-63 -23 -199 2 -108 9 -175 27 -264 l25 -119 -21 -121 c-20 -117 -20 -167 0
-167 6 0 10 -7 10 -16 0 -9 7 -37 16 -63 8 -25 25 -131 38 -235 22 -184 22
-189 4 -220 -66 -112 -95 -219 -82 -305 10 -70 20 -89 79 -152 42 -46 55 -68
60 -103 8 -52 -12 -132 -56 -218 -32 -64 -59 -175 -59 -245 0 -30 10 -64 29
-102 16 -31 32 -69 36 -85 14 -66 105 -114 189 -102 92 14 314 26 361 20 28
-4 77 -14 110 -24 33 -10 90 -23 127 -29 37 -6 102 -28 144 -48 l78 -37 180 0
c189 0 276 13 346 49 44 23 134 35 345 45 202 10 369 26 410 39 17 5 57 22 90
37 57 27 67 29 190 28 85 0 158 -6 210 -18 57 -13 155 -20 345 -26 203 -6 275
-12 309 -24 31 -12 79 -16 170 -16 158 0 563 17 741 31 218 17 817 29 922 18
185 -18 677 -30 818 -19 74 5 261 12 415 14 154 3 354 8 445 11 91 4 230 2
310 -2 80 -5 235 -6 345 -2 187 7 203 6 242 -13 37 -17 50 -18 90 -10 61 13
160 6 243 -18 73 -20 317 -60 371 -60 41 0 261 43 334 65 66 20 126 19 243 -4
114 -22 245 -41 286 -41 16 0 53 7 82 17 l52 16 32 -26 c38 -32 37 -32 134 -7
62 16 95 18 171 13 92 -6 96 -5 159 26 43 21 66 39 70 54 11 42 6 85 -16 133
-22 46 -23 61 -21 228 3 175 2 181 -22 222 -28 47 -25 68 13 100 38 31 43 116
10 164 -78 113 -78 112 -78 164 0 28 7 89 15 136 21 120 23 357 4 535 -14 130
-15 173 -4 320 7 94 11 173 9 176 -2 4 1 69 7 145 24 339 32 492 34 684 0 113
6 232 13 265 21 104 25 218 12 291 -15 88 -47 210 -65 249 -41 92 -59 172 -57
251 1 45 6 94 12 110 7 17 8 49 4 78 -3 28 -8 163 -9 301 -1 137 -6 297 -10
355 -6 88 -4 125 15 230 20 113 23 181 18 350 0 19 3 74 7 121 7 73 5 97 -13
155 -32 109 -33 124 -17 219 19 105 20 160 9 499 -5 165 -4 182 15 227 29 67
26 111 -15 252 -42 143 -42 135 22 387 l45 174 -1 216 c0 118 0 289 1 380 1
91 -2 212 -6 270 -6 98 -5 110 20 180 44 126 56 241 44 410 -6 85 -8 269 -4
445 7 387 -6 468 -80 496 -16 7 -78 13 -137 15 -76 2 -134 10 -201 28 -106 29
-121 31 -111 14 5 -8 0 -9 -17 -5 -13 4 -36 7 -51 7 -19 0 -28 5 -28 16 0 11
-6 14 -22 8 -13 -4 -25 -10 -28 -14 -9 -12 -60 -21 -60 -10 0 5 8 10 18 11 9
0 12 3 6 5 -7 3 -79 -14 -160 -37 -144 -40 -154 -41 -289 -40 -270 1 -405 16
-570 62 -94 25 -178 42 -225 45 -119 6 -682 11 -710 6z m85 -22 c-29 -13 -104
-13 -85 0 8 5 35 9 60 9 34 0 40 -2 25 -9z m45 0 c0 -5 -5 -10 -11 -10 -5 0
-7 5 -4 10 3 6 8 10 11 10 2 0 4 -4 4 -10z m-5335 -19 c3 -5 -3 -12 -12 -15
-31 -8 -143 -18 -143 -12 0 25 140 50 155 27z m5855 -18 c10 -4 5 -8 -15 -14
-31 -9 -151 7 -160 20 -5 8 151 3 175 -6z m70 -13 c0 -5 -4 -10 -10 -10 -5 0
-10 5 -10 10 0 6 5 10 10 10 6 0 10 -4 10 -10z m-6090 -5 c0 -5 -59 -21 -115
-31 -47 -8 -42 2 12 21 36 14 103 20 103 10z m-300 -15 c0 -5 -4 -10 -10 -10
-5 0 -10 5 -10 10 0 6 5 10 10 10 6 0 10 -4 10 -10z m-35 -9 c-12 -11 -75 -25
-75 -16 0 8 41 24 65 24 11 1 15 -3 10 -8z m-1320 -11 c-3 -5 -15 -10 -26 -10
-10 0 -19 5 -19 10 0 6 12 10 26 10 14 0 23 -4 19 -10z m465 2 c0 -10 -82 -32
-122 -32 -45 0 -31 8 43 24 81 18 79 17 79 8z m7667 -17 c6 -2 41 1 78 6 36 6
74 8 83 4 64 -24 -160 -34 -233 -10 l-40 13 50 -5 c28 -3 55 -6 62 -8z m853 6
c0 -5 -18 -13 -40 -19 -43 -11 -56 2 -17 18 29 12 57 12 57 1z m537 3 c-3 -3
-12 -4 -19 -1 -8 3 -5 6 6 6 11 1 17 -2 13 -5z m43 -23 c0 -9 -50 -22 -79 -20
-20 1 38 28 62 29 9 0 17 -4 17 -9z m-9534 -81 c22 9 24 7 24 -18 0 -22 -21
-123 -55 -262 -5 -19 -4 -21 4 -10 13 21 48 164 56 233 l7 57 59 0 c70 0 70
-2 34 -104 -20 -58 -36 -82 -91 -137 -37 -38 -71 -66 -75 -63 -4 2 -9 1 -12
-3 -2 -5 -2 -2 0 5 2 8 8 57 14 110 5 54 12 115 15 137 3 25 1 36 -5 30 -5 -6
-14 -59 -20 -120 -16 -179 -25 -204 -87 -273 -36 -41 -65 -63 -87 -68 -27 -6
-29 -8 -13 -14 14 -4 16 -9 8 -14 -15 -9 -32 1 -32 20 0 8 -4 14 -8 14 -5 0
-21 22 -35 49 -27 48 -27 52 -27 240 l0 191 119 0 118 0 21 -47 c24 -53 30
-42 8 12 -13 30 -13 34 2 38 9 2 21 0 26 -4 5 -4 19 -3 32 1z m6909 -92 c482
-260 1028 -604 1245 -786 19 -16 55 -42 79 -58 95 -62 617 -703 1055 -1294
l166 -225 -2 -2120 -3 -2120 -24 -125 c-22 -120 -67 -302 -89 -365 -6 -16 -18
-55 -28 -85 -37 -120 -57 -149 -309 -476 -44 -57 -136 -177 -204 -266 -237
-310 -731 -929 -790 -989 -48 -48 -334 -247 -510 -353 -128 -78 -394 -220
-480 -256 -40 -18 -153 -53 -250 -78 l-176 -47 -1946 0 c-1551 0 -1949 3
-1961 13 -10 8 -64 14 -154 17 -144 6 -371 40 -504 76 -41 11 -91 25 -111 30
-99 25 -401 196 -509 288 -138 117 -340 319 -457 457 -289 341 -356 424 -422
522 -38 57 -85 120 -104 141 -123 137 -498 723 -592 926 -23 50 -64 154 -91
232 -28 82 -54 143 -61 143 -7 0 -13 -8 -13 -17 0 -12 -3 -14 -11 -6 -14 14
-7 49 9 45 8 -1 12 13 12 40 0 24 0 980 0 2126 l0 2083 137 202 c313 462 561
791 944 1252 155 186 431 442 689 639 148 113 563 367 775 475 l90 46 1350 5
c743 3 1739 4 2215 2 l865 -2 170 -92z m-6730 61 c-19 -36 -25 -35 -18 4 3 15
12 27 19 27 12 0 12 -5 -1 -31z m18 -44 c-37 -41 -69 -75 -70 -75 -5 0 13 37
46 93 28 49 37 57 63 57 29 0 29 0 -39 -75z m122 28 c-9 -63 -15 -83 -25 -83
-4 0 -6 9 -3 20 3 11 1 32 -5 48 -8 24 -7 33 6 46 27 27 34 19 27 -31z m35 29
c0 -10 -7 -27 -15 -38 -13 -18 -14 -18 -9 6 9 38 13 50 19 50 3 0 5 -8 5 -18z
m315 9 c-6 -4 -46 -40 -90 -78 -44 -39 -137 -125 -208 -191 -188 -179 -191
-169 -30 98 l108 180 115 0 c64 0 110 -4 105 -9z m49 -18 c-4 -16 -14 -32 -23
-38 -46 -29 -131 -74 -131 -70 0 5 151 135 157 135 2 0 0 -12 -3 -27z m66 23
c0 -3 -4 -8 -10 -11 -5 -3 -10 -1 -10 4 0 6 5 11 10 11 6 0 10 -2 10 -4z m19
-113 c-146 -168 -146 -168 -109 -93 39 78 92 162 120 190 12 12 33 20 56 20
l35 0 -102 -117z m212 67 c-92 -63 -174 -126 -281 -214 l-85 -71 48 55 c26 30
91 106 144 168 l95 112 76 0 76 0 -73 -50z m249 46 c0 -5 -488 -448 -560 -507
l-65 -54 70 79 c39 44 108 111 155 149 47 39 123 108 170 153 110 106 230 200
230 180z m90 1 c0 -1 -25 -27 -56 -57 l-56 -55 38 58 c23 34 45 57 56 57 10 0
18 -1 18 -3z m98 -30 c-20 -18 -69 -61 -110 -96 -71 -63 -71 -62 22 32 52 53
101 97 110 97 9 -1 1 -13 -22 -33z m200 -59 c-97 -107 -589 -582 -627 -606
-14 -9 -51 -37 -81 -63 -130 -111 -234 -188 -370 -277 -80 -52 -192 -125 -249
-163 -57 -38 -105 -68 -107 -67 -10 10 165 191 318 329 382 345 879 783 999
879 73 58 75 59 137 60 l64 0 -84 -92z m122 89 c0 -2 -10 -12 -22 -23 l-23
-19 19 23 c18 21 26 27 26 19z m356 -10 c-242 -156 -427 -286 -678 -475 -170
-128 -308 -229 -308 -226 0 9 180 205 433 472 l231 242 170 -1 c136 0 167 -3
152 -12z m27 -52 c-104 -55 -307 -175 -405 -239 -16 -10 -28 -16 -28 -13 0 9
204 142 361 237 90 54 143 80 164 80 24 0 6 -13 -92 -65z m4882 10 c20 -30 66
-82 102 -115 35 -33 61 -60 59 -60 -3 0 -27 13 -53 29 -27 16 -120 68 -208
115 l-160 86 111 0 111 0 38 -55z m71 5 c-1 -27 -3 -50 -6 -50 -5 1 -24 26
-54 73 l-18 27 39 0 40 0 -1 -50z m177 24 c124 -63 225 -140 370 -283 156
-153 527 -544 527 -555 0 -9 -73 41 -217 150 -67 50 -157 113 -200 140 -195
120 -270 168 -293 189 -14 12 -72 50 -129 85 -57 35 -129 87 -160 115 -55 52
-55 53 -55 107 1 31 4 60 8 67 13 21 94 12 149 -15z m107 -9 c43 -44 30 -44
-40 0 -52 33 -53 35 -24 35 21 0 40 -10 64 -35z m40 14 c17 -31 7 -33 -20 -4
-19 20 -20 25 -7 25 9 0 21 -9 27 -21z m67 -31 c6 -29 9 -55 8 -56 -4 -4 -55
93 -55 103 0 3 8 5 18 5 14 0 21 -13 29 -52z m81 46 c18 -5 22 -13 22 -48 0
-22 7 -68 15 -101 21 -90 19 -93 -30 -45 -46 46 -75 111 -75 172 0 30 17 35
68 22z m326 -36 c19 -24 33 -44 31 -46 -2 -3 -131 72 -144 84 -2 2 14 4 37 4
35 0 45 -5 76 -42z m135 -70 l94 -110 -59 38 c-76 49 -107 78 -150 137 l-34
47 28 -1 c22 -1 45 -22 121 -111z m0 80 c15 -44 8 -45 -23 -3 -25 32 -25 35
-7 35 12 0 23 -11 30 -32z m147 -40 c74 -109 168 -233 252 -333 65 -77 70 -86
37 -61 -58 43 -251 215 -317 283 -43 44 -60 69 -67 103 -17 71 -15 80 17 80
24 0 36 -11 78 -72z m164 -63 c131 -149 105 -137 -55 25 -91 92 -105 111 -84
108 18 -2 57 -39 139 -133z m164 110 c9 -13 16 -27 16 -31 0 -10 -30 17 -41
38 -15 27 6 22 25 -7z m239 -87 c104 -124 185 -202 262 -254 54 -37 47 -42
-28 -19 -57 17 -236 134 -274 178 -14 18 -34 50 -43 72 -21 49 -35 135 -22
135 5 0 52 -51 105 -112z m53 15 c27 -54 51 -102 53 -107 5 -12 -81 84 -131
145 -21 25 -38 49 -38 53 0 3 15 6 33 6 32 0 35 -4 83 -97z m644 -87 l0 -184
-24 -6 c-14 -3 -84 -13 -157 -22 l-133 -15 -64 32 c-101 50 -177 132 -246 267
l-57 112 341 0 340 0 0 -184z m-1785 150 c58 -25 359 -331 599 -611 234 -272
575 -719 661 -865 4 -8 -43 35 -106 95 -63 61 -199 183 -304 272 -104 89 -215
190 -245 224 -99 114 -320 351 -455 489 -73 74 -140 149 -148 166 -30 60 -62
244 -42 244 3 0 21 -6 40 -14z m-7393 -33 c3 -10 1 -40 -2 -68 -5 -33 -8 -40
-9 -20 -1 17 -4 47 -7 68 -7 37 9 54 18 20z m8357 -43 c0 -10 -3 -8 -9 5 -12
27 -12 43 0 25 5 -8 9 -22 9 -30z m-8379 -46 c0 -39 -7 -61 -28 -95 -16 -24
-48 -75 -72 -114 -52 -85 -106 -151 -225 -273 -84 -87 -235 -222 -249 -222 -3
0 -6 42 -6 93 l0 92 281 299 c206 218 284 294 290 285 5 -8 9 -37 9 -65z m428
24 c-40 -107 -112 -241 -157 -293 -25 -30 -75 -76 -111 -103 -91 -68 -217
-152 -229 -152 -14 0 -31 58 -31 110 l0 48 171 163 c129 124 190 175 252 211
45 26 89 52 97 57 27 18 28 12 8 -41z m7894 -279 c96 -86 201 -187 235 -225
71 -80 214 -267 207 -273 -2 -2 -41 30 -86 71 -46 41 -128 112 -183 158 -138
115 -314 312 -445 496 l-34 49 66 -60 c37 -33 145 -130 240 -216z m-471 79
c14 -13 34 -45 44 -73 20 -57 64 -139 71 -132 3 3 -8 31 -25 63 -38 75 -50
113 -30 98 167 -127 360 -314 533 -514 59 -69 116 -134 126 -146 38 -42 524
-612 576 -676 l55 -66 -3 -113 -3 -112 -160 159 c-183 181 -342 369 -535 629
-143 193 -320 417 -420 530 -33 39 -70 87 -81 108 -11 21 -24 35 -28 32 -16
-9 -127 123 -165 194 -20 38 -36 72 -36 76 0 7 41 -21 81 -57z m992 -194 c97
-52 122 -72 225 -176 64 -65 118 -115 121 -113 3 3 -17 29 -45 57 l-49 51 51
-42 51 -43 2 -89 c1 -49 -1 -89 -3 -89 -14 0 -265 216 -364 314 -104 102 -262
277 -262 290 0 3 37 -19 83 -48 45 -29 131 -80 190 -112z m-8367 137 c-25 -27
-224 -179 -207 -157 17 21 209 176 218 176 3 0 -2 -9 -11 -19z m613 -68 c-81
-83 -211 -229 -390 -433 -462 -530 -806 -974 -1172 -1507 -54 -79 -100 -143
-103 -143 -2 0 -4 95 -4 210 l0 211 122 132 c205 223 1587 1597 1606 1597 3 0
-23 -30 -59 -67z m8111 -54 c0 -110 0 -110 -22 -104 -26 8 -408 192 -408 197
0 2 48 2 107 0 60 -2 140 1 178 6 39 5 87 10 108 11 l37 1 0 -111z m-9714 0
c16 -18 9 -49 -12 -49 -20 0 -54 73 -54 117 l0 38 26 -45 c14 -25 32 -52 40
-61z m484 86 c-7 -9 -15 -13 -17 -11 -7 7 7 26 19 26 6 0 6 -6 -2 -15z m-34
-32 c-10 -10 -19 5 -10 18 6 11 8 11 12 0 2 -7 1 -15 -2 -18z m-484 -97 c16
-23 16 -24 -7 -46 l-25 -23 0 46 c0 52 7 57 32 23z m457 -119 c6 -6 11 -14 11
-18 0 -10 -70 -52 -76 -46 -10 10 14 167 27 184 12 14 15 8 20 -46 3 -34 11
-67 18 -74z m326 22 c-78 -78 -202 -175 -212 -165 -4 4 4 18 18 31 26 27 251
204 259 205 2 0 -27 -32 -65 -71z m-500 34 c-16 -26 -188 -255 -233 -312 -13
-15 -25 -22 -36 -18 -20 8 -21 41 -1 57 8 7 15 17 15 23 0 5 -9 2 -20 -8 -11
-10 -22 -16 -25 -13 -7 6 20 29 37 32 7 1 71 61 143 133 72 72 132 131 134
132 2 1 -5 -11 -14 -26z m102 -10 c-3 -10 -5 -4 -5 12 0 17 2 24 5 18 2 -7 2
-21 0 -30z m-21 -129 c-4 -10 -131 -101 -196 -139 -19 -12 9 32 112 175 l83
114 3 -68 c2 -38 1 -75 -2 -82z m614 126 c0 -5 -5 -10 -11 -10 -5 0 -7 5 -4
10 3 6 8 10 11 10 2 0 4 -4 4 -10z m8768 -90 c2 -16 1 -30 -3 -30 -5 0 -155
121 -155 125 0 2 35 -12 78 -31 70 -30 77 -36 80 -64z m-838 50 c0 -4 3 -17 7
-27 6 -17 6 -17 -14 0 -12 10 -23 27 -26 37 -4 17 -2 18 14 9 10 -5 19 -14 19
-19z m-7998 -22 c-7 -7 -12 -8 -12 -2 0 14 12 26 19 19 2 -3 -1 -11 -7 -17z
m8046 -32 c4 -35 -14 -26 -20 9 -4 16 -1 24 6 22 6 -2 12 -16 14 -31z m-8091
-18 c-3 -7 -5 -2 -5 12 0 14 2 19 5 13 2 -7 2 -19 0 -25z m8211 -63 c60 -50
72 -65 72 -90 0 -60 -14 -58 -76 12 -82 93 -90 104 -98 136 -6 27 -5 28 12 15
10 -7 51 -40 90 -73z m-7668 41 c0 -2 -8 -10 -17 -17 -16 -13 -17 -12 -4 4 13
16 21 21 21 13z m-610 -30 c0 -13 -6 -29 -14 -35 -11 -9 -15 -6 -18 13 -5 24
7 46 24 46 4 0 8 -11 8 -24z m-66 -85 c-16 -15 -16 -15 -10 4 4 11 10 34 14
50 l7 30 3 -34 c2 -22 -2 -39 -14 -50z m-174 49 c0 -5 -5 -10 -11 -10 -5 0 -7
5 -4 10 3 6 8 10 11 10 2 0 4 -4 4 -10z m170 0 c0 -5 -4 -10 -10 -10 -5 0 -10
-13 -10 -29 0 -25 -37 -88 -46 -78 -6 5 28 99 40 114 13 15 26 17 26 3z m-74
-91 c-14 -46 -34 -70 -163 -203 -135 -138 -364 -380 -471 -499 -23 -26 -45
-47 -47 -47 -12 0 -1 77 34 222 21 87 106 188 261 309 89 70 393 278 398 274
2 -2 -4 -27 -12 -56z m7859 21 c3 -6 -1 -7 -9 -4 -18 7 -21 14 -7 14 6 0 13
-4 16 -10z m673 -29 c4 -38 -16 -71 -29 -48 -11 19 1 89 15 84 6 -2 12 -18 14
-36z m-8908 25 c0 -2 -17 -16 -37 -31 l-38 -28 29 31 c26 28 46 40 46 28z
m797 -44 c-15 -14 -27 -22 -27 -16 0 14 41 57 48 49 3 -3 -6 -18 -21 -33z
m8357 -219 c123 -154 320 -460 314 -488 -4 -21 -352 396 -406 488 -47 79 -122
222 -122 234 0 17 101 -93 214 -234z m-8407 191 c-8 -15 -187 -200 -398 -413
-212 -212 -436 -439 -498 -504 -63 -65 -111 -110 -107 -101 13 33 120 211 199
329 151 227 178 254 399 417 121 89 412 297 416 298 1 0 -4 -12 -11 -26z
m-1034 2 c6 -16 -2 -28 -14 -20 -12 7 -11 34 0 34 5 0 11 -6 14 -14z m9275
-89 c55 -106 54 -107 -22 -18 -34 41 -46 63 -46 88 0 18 3 33 8 33 4 0 31 -46
60 -103z m-9158 18 c0 -8 -4 -15 -10 -15 -5 0 -7 7 -4 15 4 8 8 15 10 15 2 0
4 -7 4 -15z m9638 -30 c-3 -3 -9 2 -12 12 -6 14 -5 15 5 6 7 -7 10 -15 7 -18z
m-9758 -20 c-7 -9 -15 -13 -19 -10 -3 3 1 10 9 15 21 14 24 12 10 -5z m8926
-155 c148 -127 340 -319 403 -405 64 -87 378 -632 369 -640 -2 -2 -31 33 -65
78 -187 251 -639 818 -817 1026 -105 122 -98 118 110 -59z m588 36 c77 -95
252 -363 243 -372 -3 -3 -45 59 -94 138 -48 79 -126 190 -172 248 -46 58 -77
99 -68 91 10 -7 50 -55 91 -105z m246 -58 c0 -16 -4 -27 -9 -24 -13 8 -121
151 -121 160 0 4 29 -19 65 -50 52 -46 65 -63 65 -86z m-9140 39 c-41 -37
-152 -118 -156 -114 -3 3 32 32 78 66 79 58 109 76 78 48z m-581 -94 c-21 -43
-39 -86 -39 -95 0 -9 -4 -20 -10 -23 -6 -4 -10 21 -10 67 l0 73 43 27 c23 14
45 27 48 27 4 1 -11 -34 -32 -76z m441 28 c-5 -11 -15 -23 -21 -27 -6 -3 -3 5
6 20 20 30 30 35 15 7z m-70 -94 c0 -1 -23 -25 -51 -52 -28 -28 -47 -40 -41
-29 15 28 92 97 92 81z m-151 -204 c-33 -49 -64 -88 -69 -88 -5 0 -17 -11 -26
-25 -9 -14 -42 -52 -73 -84 l-56 -60 60 48 c57 46 55 44 -23 -34 -84 -85 -116
-101 -66 -33 96 128 178 228 185 226 5 -2 9 4 9 12 0 8 5 15 10 15 6 0 13 8
17 18 4 13 80 90 91 92 1 0 -25 -39 -59 -87z m-189 -85 c-40 -51 -76 -94 -81
-96 -5 -2 -9 6 -9 19 0 14 28 50 77 100 42 43 78 77 81 75 2 -3 -29 -46 -68
-98z m9395 -72 c39 -44 120 -125 181 -180 101 -91 112 -104 113 -136 l0 -35
-76 80 c-116 123 -296 335 -327 385 l-27 45 33 -40 c18 -22 65 -76 103 -119z
m207 -282 l88 -90 0 -109 0 -109 -98 179 c-88 162 -135 245 -187 331 -10 16
11 -2 46 -41 35 -38 103 -111 151 -161z m-9623 131 c-58 -74 -69 -83 -69 -58
0 13 102 120 118 123 1 0 -21 -29 -49 -65z m-41 -97 c-16 -32 -23 -38 -26 -25
-3 15 32 67 45 67 2 0 -7 -19 -19 -42z m9909 -4298 l0 -55 -7 50 c-5 28 -8 66
-8 85 l0 35 8 -30 c4 -16 8 -55 7 -85z m-10037 -117 c0 -5 -12 -16 -26 -27
-25 -18 -26 -18 -22 0 2 11 10 18 16 17 7 -2 12 2 12 7 0 6 5 10 10 10 6 0 10
-3 10 -7z m-29 -177 c-10 -27 -21 -44 -25 -38 -7 11 32 98 39 90 3 -2 -4 -26
-14 -52z m80 -133 c-8 -14 -9 -9 -6 22 5 52 7 56 12 23 2 -15 0 -35 -6 -45z
m14 -33 c3 -5 1 -10 -4 -10 -6 0 -11 5 -11 10 0 6 2 10 4 10 3 0 8 -4 11 -10z
m9785 -247 c-27 -42 -31 -44 -25 -18 18 80 45 220 47 243 1 15 4 -19 5 -75 4
-100 3 -103 -27 -150z m-9850 99 c0 -4 -9 -13 -20 -20 -22 -13 -27 -3 -8 16
14 14 28 16 28 4z m134 -106 c14 -37 26 -71 26 -75 -2 -17 -59 107 -60 128 0
34 4 26 34 -53z m9856 20 c0 -13 -39 -67 -40 -55 0 3 5 20 11 38 11 32 29 42
29 17z m-111 -77 l0 -81 -76 -99 c-41 -55 -76 -99 -78 -99 -1 0 12 40 29 90
24 67 42 100 71 130 21 22 39 49 40 60 2 19 -1 18 -27 -7 l-30 -28 33 58 c18
31 34 57 36 57 1 0 2 -37 2 -81z m-9890 -17 c-11 -31 -79 -104 -79 -85 0 6 11
20 25 31 14 11 30 34 36 51 6 17 15 31 19 31 5 0 4 -13 -1 -28z m190 -132 c39
-71 71 -132 71 -135 0 -11 -72 -4 -110 11 l-40 16 0 119 c0 65 2 119 4 119 2
0 36 -58 75 -130z m9690 -114 c-9 -8 -10 2 -7 41 3 29 1 50 -4 47 -4 -3 -8
-30 -8 -60 0 -34 -4 -53 -10 -49 -5 3 -10 1 -10 -6 0 -7 -2 -10 -4 -8 -9 10
14 119 30 145 l19 28 3 -63 c2 -40 -1 -68 -9 -75z m-57 -5 c-4 -30 -12 -56
-19 -58 -8 -3 -6 14 4 57 9 33 17 59 19 58 1 -2 -1 -27 -4 -57z m-35 -42 c-10
-38 -28 -60 -107 -135 -52 -49 -88 -79 -80 -67 54 77 195 261 197 255 2 -4 -3
-28 -10 -53z m-9566 6 c55 0 57 -1 78 -37 37 -65 42 -86 25 -103 -27 -27 -51
-16 -133 61 -86 81 -99 102 -53 88 15 -5 52 -9 83 -9z m9629 -98 c-22 -48 -41
-87 -43 -87 -2 0 -1 28 1 63 4 56 8 65 41 94 20 17 37 28 39 24 1 -4 -16 -46
-38 -94z m-9567 -106 c70 -69 127 -129 127 -134 0 -4 -19 5 -42 21 -52 35
-158 92 -216 115 l-42 17 0 71 0 72 23 -19 c12 -10 79 -75 150 -143z m9551 -7
c-31 -41 -55 -77 -52 -79 3 -3 28 24 57 61 28 37 51 61 51 55 0 -14 -77 -116
-109 -145 -11 -11 -21 -15 -21 -11 0 4 -9 0 -21 -11 -12 -10 2 19 31 66 28 47
66 115 83 152 l32 66 3 -40 c3 -35 -3 -48 -54 -114z m-38 79 c-4 -32 -12 -74
-18 -93 -24 -80 -157 -223 -368 -400 -171 -142 -199 -167 -324 -289 l-110
-106 54 70 c30 39 141 183 246 320 253 328 385 457 422 412 6 -6 12 -28 15
-47 l4 -35 1 40 c2 54 -9 69 -44 61 -27 -6 -28 -5 -10 9 10 8 23 12 27 9 5 -3
9 1 9 10 0 12 86 96 99 96 2 0 0 -26 -3 -57z m-9346 -157 l23 -38 -62 46 c-34
25 -75 59 -91 76 l-29 31 24 9 c12 5 26 14 30 21 7 11 29 -20 105 -145z m-219
33 c96 -48 130 -75 58 -45 -19 7 -67 21 -106 31 -65 15 -73 20 -73 41 0 13 5
24 10 24 6 0 56 -23 111 -51z m9659 7 c0 -8 -15 -25 -32 -37 l-33 -23 30 36
c35 42 35 43 35 24z m-9760 -42 c0 -8 -4 -12 -10 -9 -5 3 -10 13 -10 21 0 8 5
12 10 9 6 -3 10 -13 10 -21z m41 -1 c0 -11 3 -13 6 -5 2 6 12 12 21 12 33 -1
185 -60 231 -90 65 -42 175 -171 358 -415 159 -213 312 -406 437 -550 l70 -80
-59 55 c-33 30 -129 124 -215 209 -85 84 -218 211 -295 281 -231 210 -550 522
-557 544 -3 12 -6 15 -7 8 -1 -7 -5 -11 -10 -8 -10 7 -2 56 10 56 5 0 9 -8 10
-17z m336 -88 c52 -80 53 -87 4 -35 -28 30 -60 67 -72 82 l-20 28 34 -23 c19
-12 43 -35 54 -52z m-291 -63 c-10 -10 -106 74 -106 92 0 16 11 9 55 -34 30
-29 53 -56 51 -58z m-229 37 c-15 -30 -23 -38 -25 -26 -2 9 -8 17 -13 17 -19
0 -8 21 15 30 13 5 27 14 31 20 4 6 9 10 11 8 2 -2 -6 -24 -19 -49z m9903 27
c0 -13 -22 -51 -51 -87 -62 -78 -75 -91 -59 -59 13 27 103 170 108 170 1 0 2
-11 2 -24z m-52 -8 c-8 -12 -20 -24 -26 -26 -19 -6 -14 26 6 37 28 17 35 13
20 -11z m-9643 -57 c66 -46 115 -92 109 -103 -3 -4 -2 -8 3 -8 12 0 76 -41 71
-45 -2 -3 -40 11 -84 30 -75 32 -129 77 -120 100 2 6 -11 25 -28 44 -34 37
-26 34 49 -18z m9475 30 c-11 -21 -30 -37 -30 -25 0 8 30 44 37 44 2 0 -1 -9
-7 -19z m110 -6 c0 -9 -7 -32 -15 -52 -9 -20 -13 -43 -10 -50 2 -8 1 -12 -4
-9 -12 8 -35 -50 -25 -66 4 -7 3 -10 -1 -5 -5 4 -21 -15 -35 -42 -107 -195
-750 -893 -1005 -1091 -262 -203 -503 -339 -538 -304 -3 3 42 62 101 130 72
84 108 120 114 111 5 -8 8 -5 8 10 0 14 49 82 128 175 70 85 159 193 197 241
68 84 70 86 76 60 6 -26 7 -25 8 8 1 37 36 93 51 84 5 -3 11 5 13 17 4 21 4
20 6 -3 0 -15 8 -40 17 -55 15 -28 15 -27 9 35 l-7 63 138 140 c147 148 362
339 454 403 30 20 64 45 75 55 29 25 229 160 238 160 4 0 7 -7 7 -15z m-9611
-102 c22 -35 39 -63 36 -63 -6 0 -95 126 -95 136 0 13 16 -7 59 -73z m9721 43
c0 -15 -30 -60 -81 -122 -81 -98 -99 -115 -99 -96 0 10 169 242 176 242 2 0 4
-11 4 -24z m-9956 -111 c-6 -16 -24 -21 -24 -7 0 11 11 22 21 22 5 0 6 -7 3
-15z m411 -29 c104 -49 29 18 751 -675 203 -195 389 -374 414 -398 l45 -44
-45 19 c-208 89 -296 134 -492 249 -106 63 -142 92 -225 177 -140 143 -305
350 -474 596 -78 113 -82 120 -73 120 4 0 48 -20 99 -44z m9519 -124 c-110
-191 -181 -305 -202 -324 -29 -26 -29 -27 28 66 46 76 102 199 144 314 14 41
32 83 39 95 11 20 12 15 15 -41 3 -54 -1 -71 -24 -110z m-9637 -42 c72 -93
170 -233 216 -307 45 -73 -145 166 -266 334 -37 51 -67 98 -67 105 0 17 10 5
117 -132z m9578 65 c-37 -98 -41 -104 -48 -60 -5 33 -2 43 30 81 19 24 37 44
39 44 2 0 -7 -29 -21 -65z m-114 -18 c-8 -8 -11 -7 -11 4 0 20 13 34 18 19 3
-7 -1 -17 -7 -23z m160 -104 c-21 -43 -56 -94 -77 -113 l-38 -35 22 35 c12 19
46 75 74 123 29 48 54 83 56 78 2 -5 -15 -45 -37 -88z m-181 77 c0 -5 -5 -10
-11 -10 -5 0 -7 5 -4 10 3 6 8 10 11 10 2 0 4 -4 4 -10z m80 -45 c0 -143 -222
-407 -595 -705 -22 -18 245 326 462 597 32 39 71 89 86 112 16 23 33 41 38 41
5 0 9 -20 9 -45z m-131 -14 c-29 -40 -38 -32 -9 9 12 17 24 29 27 26 3 -2 -5
-18 -18 -35z m255 -36 c-24 -36 -28 -24 -7 20 11 24 19 32 21 22 2 -9 -4 -27
-14 -42z m-9719 -53 c16 -20 106 -122 200 -226 143 -159 218 -247 192 -226 -3
3 -103 102 -221 220 -179 177 -216 219 -216 242 0 37 9 35 45 -10z m9714 -108
c-12 -13 -27 -24 -31 -24 -14 0 2 42 26 68 l21 24 3 -22 c2 -13 -6 -32 -19
-46z m-96 -65 c-5 -16 -203 -179 -203 -166 0 5 200 187 205 187 2 0 1 -9 -2
-21z m-9416 -222 c50 -45 90 -83 89 -85 -2 -1 -78 57 -170 130 -131 104 -166
137 -166 156 0 21 9 15 78 -48 42 -39 118 -108 169 -153z m9507 180 c-83 -66
-105 -76 -44 -19 36 33 67 56 68 51 2 -5 -9 -20 -24 -32z m-411 21 c-270 -348
-369 -469 -427 -518 -34 -30 -326 -219 -376 -244 -26 -13 42 43 123 100 84 60
261 217 316 280 19 21 99 107 177 189 78 83 152 162 164 178 12 15 24 27 27
27 3 0 1 -6 -4 -12z m158 -6 c-5 -9 -19 -26 -32 -37 -26 -23 -17 -2 14 33 25
27 31 28 18 4z m-8984 -167 c36 -47 40 -54 14 -30 -17 16 -54 61 -82 100 -56
78 -15 36 68 -70z m9263 112 c0 -7 -17 -21 -37 -31 l-38 -17 35 30 c41 35 40
35 40 18z m-9903 -78 l-16 -22 3 29 c5 40 5 39 17 27 8 -8 7 -17 -4 -34z
m9901 -10 c-2 -15 -17 -27 -53 -40 -27 -10 -54 -19 -58 -19 -4 0 18 24 50 54
57 54 69 55 61 5z m-9703 -4 c22 -20 25 -25 10 -20 -11 3 -32 9 -48 12 -32 6
-41 18 -33 39 7 17 24 10 71 -31z m9599 -23 c-48 -44 -80 -64 -144 -88 -45
-18 -78 -28 -73 -24 53 47 247 170 268 170 5 -1 -18 -26 -51 -58z m-9565 -24
c30 -10 74 -35 99 -55 25 -21 53 -43 61 -50 13 -9 8 -10 -24 -2 -22 5 -62 14
-90 20 -66 15 -155 72 -155 99 0 23 11 22 109 -12z m9671 -32 c0 -19 -10 -51
-21 -71 -26 -43 -37 -40 -15 4 28 54 17 48 -14 -8 -49 -89 -91 -136 -165 -184
-72 -46 -178 -95 -227 -104 -15 -3 -25 -9 -22 -14 3 -5 -2 -9 -10 -9 -13 0
-15 10 -12 50 3 28 11 64 20 80 8 17 10 28 5 25 -21 -13 -7 17 22 47 l31 33
-22 -35 -22 -35 30 35 c17 19 45 48 64 64 33 29 21 27 -17 -3 -12 -9 -8 -3 8
12 15 15 32 25 37 22 5 -3 22 4 38 15 23 17 258 108 285 109 4 1 7 -14 7 -33z
m-9740 -21 c18 -10 20 -14 8 -15 -23 0 -48 11 -48 21 0 12 11 11 40 -6z m128
-61 c68 -14 136 -30 149 -35 26 -10 360 -272 380 -298 7 -9 20 -31 30 -48 17
-32 17 -34 -3 -53 -11 -11 -38 -23 -60 -25 -21 -3 -32 -2 -24 1 57 24 79 38
85 52 4 11 -2 9 -19 -7 -38 -35 -107 -39 -187 -10 -120 43 -261 144 -441 315
-64 60 -78 79 -78 104 0 38 4 38 168 4z m9612 -6 c-1 -16 -16 -34 -48 -57 -36
-26 -42 -28 -24 -9 24 26 30 44 10 32 -7 -4 -8 -3 -4 5 4 6 11 9 16 6 5 -3 17
6 26 20 20 31 24 31 24 3z m-8817 -89 c67 -39 133 -75 146 -80 47 -18 14 -18
-57 1 -59 15 -84 28 -128 67 -31 26 -66 56 -78 65 -42 34 -3 17 117 -53z
m-383 26 c19 -19 32 -35 29 -35 -3 0 -20 16 -39 35 -19 19 -32 35 -29 35 3 0
20 -16 39 -35z m8800 32 c0 -2 -10 -12 -22 -23 l-23 -19 19 23 c18 21 26 27
26 19z m400 -49 c0 -17 -11 -27 -42 -40 -23 -10 -44 -16 -46 -13 -6 6 66 75
79 75 5 0 9 -10 9 -22z m-460 -6 c0 -13 -12 -22 -22 -16 -10 6 -1 24 13 24 5
0 9 -4 9 -8z m-9134 -147 c50 -38 101 -78 114 -88 46 -33 6 -11 -147 82 -142
86 -153 95 -153 122 l0 30 48 -38 c27 -21 89 -69 138 -108z m9112 109 c1 -10
-16 -57 -40 -104 -52 -104 -53 -108 -40 -95 6 6 22 33 36 60 27 53 36 47 12
-8 -13 -31 -56 -78 -56 -61 0 4 -24 -14 -52 -42 -74 -71 -130 -113 -229 -172
-108 -65 -119 -69 -119 -47 0 19 69 111 163 218 33 37 57 70 54 73 -2 3 -29
-24 -58 -60 -30 -35 -55 -63 -58 -61 -4 5 83 107 123 144 14 14 26 21 26 16 0
-5 17 7 38 28 47 45 174 136 187 133 6 -2 11 -11 13 -22z m371 -18 c-14 -15
-99 -53 -85 -39 4 4 26 20 49 34 43 27 62 29 36 5z m106 -64 c-3 -4 -10 0 -15
8 -8 13 -10 12 -10 -3 0 -13 -20 -28 -67 -49 -165 -74 -437 -200 -504 -233
-40 -19 -74 -33 -76 -31 -7 6 325 191 502 279 168 84 170 85 173 60 2 -14 1
-28 -3 -31z m149 42 c9 -23 7 -36 -3 -30 -12 8 -21 46 -11 46 4 0 11 -7 14
-16z m-9838 -56 c28 -18 60 -39 70 -45 13 -9 9 -9 -16 1 -108 42 -140 59 -140
78 0 22 5 20 86 -34z m1019 28 c82 -21 248 -87 344 -135 21 -11 82 -62 137
-114 l99 -95 -35 -10 c-19 -6 -27 -11 -17 -11 10 -1 27 4 37 9 17 9 31 -1 95
-61 41 -40 74 -74 72 -76 -10 -9 -160 31 -255 70 -138 54 -144 55 -47 7 70
-34 68 -45 -4 -18 -37 14 -82 49 -75 59 3 6 39 8 82 5 l77 -5 -85 10 c-93 11
-127 24 -180 70 -268 235 -360 319 -345 319 6 0 51 -11 100 -24z m8666 -79
c-16 -16 -26 0 -10 19 9 11 15 12 17 4 2 -6 -1 -17 -7 -23z m-356 3 c-3 -5
-12 -10 -18 -10 -7 0 -6 4 3 10 19 12 23 12 15 0z m325 -5 c0 -9 -9 -15 -24
-15 -13 0 -33 -3 -43 -6 -10 -3 -2 4 17 15 42 24 50 25 50 6z m37 -115 c0 -78
-3 -102 -15 -112 -13 -11 -14 -10 -4 9 7 12 12 28 12 35 -1 7 -12 -8 -25 -34
-40 -77 -46 -64 -9 23 33 78 48 147 19 84 -14 -29 -14 -28 -8 25 5 44 14 67
29 70 0 0 1 -45 1 -100z m-1552 70 c-10 -11 -21 -18 -23 -15 -3 3 3 12 14 20
27 20 30 18 9 -5z m1120 10 c-3 -5 -11 -10 -16 -10 -6 0 -7 5 -4 10 3 6 11 10
16 10 6 0 7 -4 4 -10z m382 -77 c-6 -99 -24 -147 -87 -237 -50 -70 -47 -87 3
-19 37 51 107 122 107 110 0 -4 -11 -30 -25 -58 -18 -35 -40 -59 -72 -79 -25
-16 -49 -27 -54 -25 -4 3 -10 1 -14 -5 -15 -25 -112 -60 -265 -98 -159 -40
-433 -93 -552 -107 -69 -9 -159 1 -184 19 -17 13 -17 15 0 40 9 15 56 52 103
83 85 55 469 242 678 330 60 26 113 51 116 56 4 5 12 6 19 2 8 -5 11 -4 7 2
-10 16 97 56 155 59 27 1 52 5 55 8 14 14 16 1 10 -81z m-9647 34 c44 -27 110
-86 110 -99 0 -8 -50 -5 -122 8 -32 6 -68 58 -68 98 0 24 3 26 23 21 12 -4 38
-17 57 -28z m8670 18 c0 -5 -560 -378 -600 -400 -33 -18 10 16 135 106 71 52
204 140 295 196 185 114 170 105 170 98z m-8552 -49 c48 -25 101 -56 117 -70
l30 -26 -55 6 c-49 6 -62 13 -115 62 -33 31 -64 59 -69 64 -21 18 8 6 92 -36z
m8743 27 c-6 -10 -51 -63 -100 -117 -49 -55 -109 -129 -133 -166 -54 -85 -158
-154 -158 -106 0 23 165 201 285 309 60 53 111 97 113 97 1 0 -2 -8 -7 -17z
m-751 -2 c0 -4 -28 -23 -62 -41 -58 -29 -60 -30 -33 -6 24 20 81 55 93 56 1 0
2 -4 2 -9z m1045 -11 c-3 -5 -11 -10 -16 -10 -6 0 -7 5 -4 10 3 6 11 10 16 10
6 0 7 -4 4 -10z m-8421 -53 c8 -12 15 -31 16 -42 5 -45 0 -55 -24 -55 -22 0
-24 3 -19 33 3 19 -2 49 -11 70 -15 36 -14 37 4 27 11 -6 26 -21 34 -33z
m7236 -82 c-91 -92 -95 -95 -98 -68 -2 15 -9 34 -14 41 -14 16 6 32 82 67 30
14 69 32 85 40 17 7 32 14 35 14 2 1 -38 -42 -90 -94z m-7290 40 c0 -40 1 -39
-52 -23 l-38 11 37 23 c51 30 53 29 53 -11z m8150 31 c0 -2 -8 -10 -17 -17
-16 -13 -17 -12 -4 4 13 16 21 21 21 13z m-8858 -36 c5 0 0 -11 -13 -24 -20
-21 -25 -22 -32 -10 -12 22 0 47 19 40 9 -3 20 -6 26 -6z m475 -37 c-8 -7 -81
15 -102 32 -14 10 -2 9 43 -6 35 -12 61 -23 59 -26z m383 -24 c0 -11 -7 -19
-17 -19 -34 0 -43 14 -36 55 l6 38 24 -27 c12 -15 23 -36 23 -47z m7480 67 c0
-2 -76 -59 -169 -125 -110 -79 -174 -119 -184 -115 -9 3 -20 18 -26 32 -8 24
-9 25 -10 5 -1 -12 8 -28 19 -36 19 -13 17 -16 -49 -61 -38 -25 -74 -46 -79
-46 -6 0 -13 -6 -15 -12 -3 -8 -6 -6 -6 5 -1 9 4 17 9 17 6 0 10 6 10 14 0 8
9 24 21 37 11 13 18 18 14 12 -3 -7 -1 -21 4 -30 9 -15 10 -14 11 11 0 26 2
27 18 15 15 -12 15 -11 -1 8 -19 21 -18 22 22 65 34 38 45 44 73 40 38 -4 151
48 263 122 73 47 75 49 75 42z m-8150 -26 c183 -23 349 -52 430 -76 110 -32
323 -105 333 -114 5 -4 -4 -22 -20 -39 -21 -24 -44 -35 -92 -47 -35 -8 -90
-23 -121 -33 -94 -31 -296 -47 -425 -33 -134 14 -175 25 -215 58 -16 14 -30
22 -30 18 0 -15 -53 42 -71 78 -34 67 -19 75 16 9 19 -36 40 -70 46 -75 14
-13 13 -10 -29 74 -40 81 -42 127 -6 170 23 27 31 31 63 26 20 -3 74 -10 121
-16z m8385 -28 c-6 -4 -22 -18 -37 -31 -16 -14 -28 -20 -28 -15 0 5 15 19 33
32 30 21 52 31 32 14z m189 -22 c-9 -16 -16 -43 -16 -58 -1 -16 -8 -33 -17
-39 -9 -5 -34 -20 -55 -33 l-39 -24 19 33 c20 34 112 151 119 151 2 0 -3 -13
-11 -30z m956 -10 c-16 -31 -23 -19 -9 16 6 16 13 24 16 17 2 -7 -1 -22 -7
-33z m-1836 4 c22 -58 -2 -89 -236 -295 -96 -85 -110 -94 -143 -93 -20 1 -38
4 -40 6 -8 7 45 115 79 161 21 27 34 52 31 55 -5 5 -112 -100 -188 -186 -31
-34 -43 -41 -64 -37 -39 7 -57 29 -49 59 5 21 32 39 149 98 78 40 147 73 152
73 6 0 26 12 45 26 19 15 67 45 105 67 39 23 84 50 100 61 36 25 51 26 59 5z
m-6913 -40 c12 -15 12 -16 -6 -11 -67 19 -66 18 -54 33 12 15 36 7 60 -22z
m7572 -72 c-54 -59 -110 -122 -125 -139 -18 -23 -37 -34 -62 -37 -20 -2 -36
-1 -36 4 0 8 309 278 318 280 2 0 -40 -48 -95 -108z m-63 75 c0 -2 -12 -14
-27 -28 l-28 -24 24 28 c23 25 31 32 31 24z m-126 -105 c-89 -83 -234 -204
-234 -195 0 4 17 29 38 55 34 44 214 185 237 187 6 0 -13 -21 -41 -47z m1370
29 c-5 -5 -20 -12 -34 -16 -23 -6 -22 -5 5 13 29 19 48 21 29 3z m-8096 -16
c42 -8 95 -17 116 -21 62 -9 77 -18 151 -86 l69 -64 -65 7 c-35 4 -78 12 -95
17 -49 15 -246 120 -279 148 l-30 26 28 -6 c15 -4 62 -13 105 -21z m-178 -31
c0 -3 -13 4 -30 16 -16 12 -30 24 -30 26 0 3 14 -4 30 -16 17 -12 30 -24 30
-26z m469 -1 c3 -2 0 -8 -5 -13 -7 -7 -22 2 -45 26 l-34 36 40 -23 c22 -12 42
-24 44 -26z m-1939 -5 l24 -33 -24 16 c-14 9 -26 24 -28 33 -5 24 1 20 28 -16z
m1020 -13 c-43 -15 -49 -11 -25 15 14 16 21 17 39 8 20 -11 19 -12 -14 -23z
m8730 15 c0 -5 -12 -10 -27 -9 -25 0 -26 1 -8 9 27 12 35 12 35 0z m-7765 -23
c22 -15 85 -42 215 -93 l85 -33 -110 0 -110 1 -42 41 c-33 31 -40 44 -31 54 7
9 7 13 0 13 -6 0 -14 -5 -17 -10 -9 -14 -35 7 -35 26 0 18 20 18 45 1z m-1866
-73 c3 -3 -3 -4 -14 -1 -11 3 -46 11 -77 17 -51 10 -58 14 -58 35 l0 24 71
-34 c39 -19 74 -37 78 -41z m1041 46 l35 -19 -100 0 -100 0 40 19 c51 24 82
24 125 0z m8589 -74 l-2 -94 -36 -5 c-20 -3 -137 -5 -259 -5 -183 0 -221 3
-210 13 34 33 212 133 266 149 80 25 105 17 175 -54 31 -33 57 -57 57 -53 0
16 -77 97 -106 110 -18 9 -31 20 -28 25 3 4 37 8 75 8 l70 0 -2 -94z m-1237
59 c0 -14 -29 -31 -38 -22 -9 8 16 39 28 35 5 -2 10 -8 10 -13z m-982 -25
c-11 -16 -31 -53 -44 -82 -21 -47 -27 -52 -55 -53 -17 0 -31 2 -31 5 0 8 140
160 147 160 2 0 -5 -13 -17 -30z m-7488 -11 c29 -7 94 -17 143 -24 l90 -13
-95 0 c-140 0 -204 9 -208 31 -4 20 1 21 70 6z m7782 -15 c-5 -20 -44 -51 -44
-35 0 10 41 63 46 59 2 -2 1 -13 -2 -24z m328 -21 c-10 -15 -27 -40 -36 -55
-20 -34 -42 -38 -25 -5 18 33 71 99 76 93 3 -2 -4 -17 -15 -33z m308 33 c0 -3
-4 -8 -10 -11 -5 -3 -10 -1 -10 4 0 6 5 11 10 11 6 0 10 -2 10 -4z m925 -4
c-6 -5 -48 -33 -94 -63 -77 -49 -90 -54 -143 -55 -32 0 -58 2 -58 6 0 3 55 27
123 53 67 27 131 52 142 57 26 11 42 12 30 2z m-8117 -30 c18 -16 32 -31 32
-33 0 -3 -39 3 -87 13 -49 9 -128 21 -178 25 -120 9 -78 21 81 22 119 1 121 1
152 -27z m-648 3 c0 -4 -101 -36 -210 -66 l-45 -13 35 -6 c31 -5 -92 -6 -347
-1 l-83 1 0 33 0 32 278 1 c156 1 294 6 317 12 49 12 55 13 55 7z m7467 -51
c-20 -29 -33 -37 -61 -40 -20 -2 -36 0 -36 4 1 8 113 80 118 76 2 -1 -8 -19
-21 -40z m288 36 c16 -7 13 -9 -17 -9 -20 -1 -40 4 -43 9 -7 12 32 12 60 0z
m-7474 -19 c30 -10 71 -26 92 -36 22 -9 36 -11 33 -6 -4 6 -34 20 -66 32 -33
12 -60 23 -60 25 0 10 200 -7 230 -19 72 -31 192 -48 312 -46 65 1 120 0 123
-3 3 -3 -250 -4 -562 -4 -334 0 -543 4 -508 9 33 4 89 8 125 9 63 1 63 1 20 8
l-45 7 46 1 c25 1 68 -5 94 -13 27 -8 51 -12 53 -10 6 6 -45 25 -67 25 -39 0
-30 15 16 26 71 17 104 16 164 -5z m6382 0 c-3 -10 0 -28 6 -40 13 -24 0 -28
-19 -6 -10 12 -10 21 -2 40 14 30 22 33 15 6z m1822 -17 c-79 -31 -103 -36
-195 -38 -128 -4 -112 3 95 42 205 38 207 38 100 -4z m-6785 7 c34 -8 34 -8
-23 -16 -79 -10 -158 -2 -188 19 -23 18 -22 18 76 12 55 -4 116 -11 135 -15z
m4934 -13 l-1 -31 -61 -2 c-34 0 -62 0 -62 2 0 3 112 62 120 63 3 0 5 -14 4
-32z m1074 12 c15 -1 14 -3 -2 -15 -28 -21 -46 -19 -46 6 0 15 4 19 16 15 9
-3 23 -6 32 -6z m133 -23 c-7 -18 -16 -25 -35 -23 -14 0 -26 3 -26 6 0 6 64
49 68 45 1 -1 -2 -14 -7 -28z m31 8 c-5 -31 -22 -44 -22 -18 0 15 17 43 26 43
1 0 -1 -11 -4 -25z m-1401 -6 c-45 -20 -131 -36 -117 -22 8 8 121 40 146 41 8
0 -5 -8 -29 -19z m1519 -10 c0 -4 -20 -9 -45 -11 -36 -2 -45 0 -45 13 0 9 2
18 5 21 7 7 85 -14 85 -23z m-6117 14 c-7 -2 -19 -2 -25 0 -7 3 -2 5 12 5 14
0 19 -2 13 -5z m5167 -8 c-7 -8 -18 -15 -24 -15 -6 0 -2 7 8 15 25 19 32 19
16 0z m600 -1 c0 -8 -4 -12 -10 -9 -5 3 -10 10 -10 16 0 5 5 9 10 9 6 0 10 -7
10 -16z m-6635 -14 c3 -5 -1 -10 -9 -10 -9 0 -16 5 -16 10 0 6 4 10 9 10 6 0
13 -4 16 -10z m640 0 c4 -7 -98 -9 -302 -8 l-308 3 295 5 c162 3 298 6 302 8
4 1 10 -2 13 -8z m62 -6 c-3 -3 -12 -4 -19 -1 -8 3 -5 6 6 6 11 1 17 -2 13 -5z
m281 -1 c-49 -2 -127 -2 -175 0 -49 1 -9 3 87 3 96 0 136 -2 88 -3z m294 0
c-40 -2 -103 -2 -140 0 -37 2 -4 3 73 3 77 0 107 -2 67 -3z"/>
<path d="M9391 9104 c0 -11 3 -14 6 -6 3 7 2 16 -1 19 -3 4 -6 -2 -5 -13z"/>
<path d="M9887 2313 c-4 -3 -7 -11 -7 -17 0 -6 5 -5 12 2 6 6 9 14 7 17 -3 3
-9 2 -12 -2z"/>
<path d="M300 2146 c0 -9 110 -80 115 -74 3 3 -18 20 -47 39 -62 39 -68 43
-68 35z"/>
<path d="M8881 1244 c0 -11 3 -14 6 -6 3 7 2 16 -1 19 -3 4 -6 -2 -5 -13z"/>
<path d="M9991 1274 c0 -11 3 -14 6 -6 3 7 2 16 -1 19 -3 4 -6 -2 -5 -13z"/>
<path d="M9269 903 c-13 -16 -12 -17 4 -4 16 13 21 21 13 21 -2 0 -10 -8 -17
-17z"/>
<path d="M1240 311 c22 -14 120 -52 120 -46 0 5 -80 41 -112 50 -17 4 -19 4
-8 -4z"/>
</g>
</svg>
