<?xml version="1.0" standalone="no"?>
<!DOCTYPE svg PUBLIC "-//W3C//DTD SVG 20010904//EN"
 "http://www.w3.org/TR/2001/REC-SVG-20010904/DTD/svg10.dtd">
<svg version="1.0" xmlns="http://www.w3.org/2000/svg"
 width="610.000000pt" height="300.000000pt" viewBox="0 0 610.000000 300.000000"
 preserveAspectRatio="xMidYMid meet">

<g transform="translate(0.000000,300.000000) scale(0.100000,-0.100000)"
fill="#000000" stroke="none">
<path d="M0 1500 l0 -1500 3050 0 3050 0 0 1500 0 1500 -1985 0 -1985 0 0 -60
0 -60 1840 0 1840 0 0 -90 0 -90 -130 0 -130 0 0 -680 c0 -447 -3 -680 -10
-680 -5 0 -10 -16 -10 -35 l0 -35 -670 0 -670 0 0 -515 0 -515 -1030 0 -1030
0 0 550 0 550 -1015 0 -1015 0 0 190 0 190 910 0 910 0 0 640 0 640 -960 0
-960 0 0 -1500z"/>
</g>
</svg>
