<?xml version="1.0" standalone="no"?>
<!DOCTYPE svg PUBLIC "-//W3C//DTD SVG 20010904//EN"
 "http://www.w3.org/TR/2001/REC-SVG-20010904/DTD/svg10.dtd">
<svg version="1.0" xmlns="http://www.w3.org/2000/svg"
 width="561.000000pt" height="561.000000pt" viewBox="0 0 561.000000 561.000000"
 preserveAspectRatio="xMidYMid meet">

<g transform="translate(0.000000,561.000000) scale(0.100000,-0.100000)"
fill="#000000" stroke="none">
<path d="M0 2805 l0 -2805 2805 0 2805 0 0 2805 0 2805 -2805 0 -2805 0 0
-2805z m2392 852 c3 -6 -11 -19 -33 -30 -21 -10 -39 -23 -39 -28 0 -5 -4 -9
-9 -9 -6 0 -3 20 6 45 14 41 17 44 41 38 15 -3 30 -11 34 -16z m243 -70 c1
-48 -2 -87 -5 -87 -9 0 -32 -219 -24 -231 3 -5 14 -7 25 -4 15 5 19 1 19 -20
0 -18 -6 -29 -20 -32 -23 -6 -36 -45 -45 -133 -3 -36 -15 -118 -26 -183 -11
-65 -18 -121 -15 -125 2 -4 -2 -16 -9 -26 -13 -17 -14 -15 -20 18 -4 20 0 127
8 238 11 142 12 206 5 215 -6 7 -28 13 -49 13 -37 0 -39 2 -39 31 0 30 2 31
33 26 17 -3 42 -8 53 -12 20 -6 23 -2 33 45 6 28 11 68 11 88 0 39 26 224 36
255 3 10 11 16 17 14 8 -2 12 -34 12 -90z m-1812 11 c17 -26 -9 -48 -54 -48
-36 0 -39 2 -39 28 0 16 3 32 7 36 13 13 76 1 86 -16z m-113 0 c1 -52 -1 -56
-27 -63 -14 -3 -38 -15 -52 -27 l-26 -20 -7 44 c-12 67 -6 74 57 74 30 -1 55
-4 55 -8z m3150 -8 c0 -11 -4 -20 -10 -20 -5 0 -10 -10 -10 -22 0 -13 -5 -30
-10 -38 -7 -11 -10 -1 -10 36 0 28 3 54 7 57 13 14 33 6 33 -13z m103 11 c4
-1 7 -6 7 -12 0 -7 -12 -10 -30 -7 -16 3 -30 1 -30 -3 0 -5 -7 -6 -15 -3 -8 4
-15 12 -15 20 0 11 24 13 83 5z m-3058 -22 c5 -5 -1 -9 -18 -9 -15 0 -30 0
-34 -1 -5 0 -10 8 -11 17 -3 14 1 15 25 10 15 -4 32 -12 38 -17z m2903 -116
c-1 -65 -5 -107 -8 -93 l-6 25 -12 -22 c-7 -12 -12 -49 -12 -83 0 -61 1 -62
24 -56 26 6 37 -8 31 -40 -2 -11 -4 -21 -4 -24 -1 -3 -18 -5 -38 -5 -31 0 -38
-4 -44 -25 -18 -61 -39 -203 -45 -297 -5 -70 -10 -100 -18 -97 -9 3 -11 55 -8
190 3 129 1 189 -7 197 -22 22 -11 97 14 97 19 0 75 152 87 235 9 62 29 115
43 115 3 0 4 -53 3 -117z m-3224 -68 c-2 -77 -6 -168 -9 -202 -5 -74 -5 -74
113 -44 l72 19 0 -34 c0 -31 -2 -33 -23 -25 -24 9 -85 -7 -152 -39 -45 -23
-95 -136 -111 -255 l-7 -50 -10 33 c-7 22 -7 39 1 55 23 47 44 164 52 295 5
75 14 159 20 186 10 45 9 51 -10 68 -21 20 -22 45 -1 41 6 -2 11 6 11 17 0 11
10 40 22 65 31 64 36 41 32 -130z m2980 115 c3 -17 -4 -88 -15 -158 -11 -70
-23 -143 -26 -162 -3 -19 -10 -40 -15 -47 -10 -13 -38 -212 -38 -278 0 -24 -8
-50 -19 -65 l-19 -25 -8 30 c-11 46 13 252 42 362 16 58 30 144 34 209 5 78
13 119 25 138 22 34 31 33 39 -4z m-1284 -187 c-6 -92 -14 -170 -17 -173 -6
-6 5 229 13 303 4 27 8 46 11 43 3 -3 0 -81 -7 -173z m56 -58 c-3 -38 -12
-124 -20 -190 -12 -109 -12 -130 5 -230 23 -136 23 -132 -2 -138 -11 -3 -23
-16 -27 -29 -5 -18 -8 -12 -13 27 -4 28 -12 77 -19 110 -18 88 6 365 31 365 5
0 9 19 9 43 0 23 3 73 7 110 l6 69 14 -34 c11 -24 13 -53 9 -103z m-1831 105
c3 -5 1 -10 -4 -10 -6 0 -11 5 -11 10 0 6 2 10 4 10 3 0 8 -4 11 -10z m874
-136 c-15 -19 -27 -18 -32 4 -3 12 -5 11 -6 -6 -1 -15 -9 -26 -21 -29 -11 -3
-38 -33 -60 -67 -49 -75 -54 -127 -15 -165 l25 -23 28 27 27 28 3 -29 c4 -28
-21 -58 -43 -51 -5 2 -14 -2 -20 -9 -5 -6 -20 -15 -32 -19 -18 -5 -26 0 -43
27 -26 43 -25 58 5 123 13 30 27 67 31 82 11 45 31 79 71 118 32 31 34 36 16
32 -18 -4 -23 -1 -23 14 0 17 5 19 40 15 24 -2 43 0 47 7 5 7 9 -4 11 -26 2
-21 -2 -45 -9 -53z m431 61 c0 -14 -4 -25 -10 -25 -11 0 -14 33 -3 43 11 11
13 8 13 -18z m17 -37 c-2 -13 -4 -3 -4 22 0 25 2 35 4 23 2 -13 2 -33 0 -45z
m-47 33 c0 -11 -8 -22 -17 -26 -59 -20 -193 -270 -193 -359 0 -23 -6 -51 -14
-61 -8 -12 -12 -33 -9 -56 3 -21 2 -46 -2 -56 -6 -13 -11 -4 -21 37 -14 57
-10 145 7 135 5 -4 9 -3 10 2 4 51 12 89 20 105 6 11 21 53 33 93 27 94 70
155 127 183 54 27 59 27 59 3z m106 -12 c27 -28 29 -36 29 -104 0 -73 0 -74
-40 -109 -31 -28 -41 -33 -43 -20 -2 9 6 26 17 38 15 16 21 35 21 68 0 53 -8
80 -21 72 -5 -3 -9 15 -9 40 0 25 4 46 8 46 5 0 21 -14 38 -31z m-452 -74
c-13 -99 -11 -228 4 -233 12 -4 17 -42 5 -42 -13 0 -53 43 -53 57 0 8 -4 11
-10 8 -13 -8 -12 15 5 110 8 44 14 107 15 139 l0 59 21 -19 c19 -17 20 -25 13
-79z m1351 48 c-4 -21 -8 -39 -8 -39 -1 -1 -26 1 -54 3 -50 5 -53 7 -53 33 0
26 3 28 30 24 17 -3 30 -1 30 3 0 5 14 10 31 11 31 2 31 2 24 -35z m-365 2 c0
-27 -1 -28 -24 -19 -12 5 -13 9 -3 25 16 26 27 24 27 -6z m824 -11 c7 -18 -10
-44 -28 -44 -8 0 -11 11 -8 30 5 32 26 40 36 14z m65 6 c20 0 41 -39 41 -75 0
-30 -20 -75 -33 -75 -6 0 -19 -7 -29 -17 -17 -15 -18 -14 -18 19 0 20 6 41 14
47 26 22 26 51 0 67 -27 18 -34 50 -8 40 9 -3 24 -6 33 -6z m-2299 -50 c0 -23
-6 -33 -22 -39 -27 -10 -38 2 -38 42 0 23 4 27 30 27 27 0 30 -3 30 -30z m90
-52 c0 -38 -33 -94 -60 -101 -16 -4 -20 0 -20 21 0 15 7 36 15 46 17 23 20 56
5 56 -5 0 -10 12 -9 28 0 24 1 25 9 7 8 -18 9 -18 10 5 l1 25 24 -28 c15 -17
25 -40 25 -59z m2076 35 c-3 -21 -6 -53 -6 -71 0 -18 -4 -31 -9 -28 -9 6 -13
114 -4 129 2 4 9 7 15 7 7 0 8 -14 4 -37z m424 0 c0 -20 -3 -33 -7 -29 -11 11
-12 66 -2 66 5 0 9 -16 9 -37z m31 -26 c-8 -8 -11 -2 -11 19 0 40 14 54 18 19
2 -15 -1 -32 -7 -38z m229 49 c0 -8 -4 -18 -10 -21 -5 -3 -10 3 -10 14 0 12 5
21 10 21 6 0 10 -6 10 -14z m1005 -6 c-3 -5 -10 -10 -16 -10 -5 0 -9 5 -9 10
0 6 7 10 16 10 8 0 12 -4 9 -10z m-3925 -35 c0 -13 -5 -36 -12 -50 -9 -19 -9
-28 0 -37 23 -23 14 -48 -17 -48 -17 0 -33 5 -37 12 -5 7 -11 5 -21 -7 -32
-45 -3 -102 58 -111 36 -6 39 -9 39 -38 0 -27 -3 -31 -27 -30 -78 3 -132 52
-133 122 0 60 21 104 81 167 53 56 69 61 69 20z m1978 29 c31 -9 28 -22 -10
-37 -31 -13 -33 -12 -39 7 -10 35 1 42 49 30z m-68 -49 c0 -18 -6 -35 -12 -38
-9 -3 -8 -9 5 -19 25 -19 21 -94 -5 -90 -13 2 -18 -4 -19 -20 -1 -21 -1 -21
-11 5 -5 15 -16 27 -23 27 -7 0 -23 8 -35 18 -17 13 -20 24 -15 44 8 31 93
121 106 112 5 -3 9 -20 9 -39z m1985 35 c3 -5 1 -10 -4 -10 -6 0 -11 5 -11 10
0 6 2 10 4 10 3 0 8 -4 11 -10z m-1704 -89 c-5 -4 -14 -25 -19 -48 -7 -32 -6
-47 4 -60 19 -26 18 -93 -1 -93 -9 0 -18 -7 -21 -15 -10 -25 -26 -17 -23 13 2
15 -2 37 -9 49 -28 51 -3 169 46 219 l27 26 3 -42 c2 -24 -1 -46 -7 -49z m119
10 c0 -23 -5 -30 -25 -33 -14 -3 -29 0 -34 6 -13 16 3 40 22 33 9 -3 18 1 21
9 9 23 16 16 16 -15z m-1463 -13 c-3 -8 -6 -5 -6 6 -1 11 2 17 5 13 3 -3 4
-12 1 -19z m-787 -23 c0 -29 -25 -44 -43 -26 -9 9 -6 16 13 31 31 24 30 25 30
-5z m745 -94 c-3 -24 0 -49 5 -56 11 -13 20 -105 10 -105 -12 1 -27 17 -50 54
-30 50 -31 144 0 165 11 7 20 21 21 30 0 9 5 3 10 -14 6 -16 7 -50 4 -74z m77
65 c2 -19 0 -32 -4 -30 -8 5 -12 64 -4 64 2 0 6 -15 8 -34z m1104 0 l29 -4 -3
-82 c-3 -90 -11 -115 -42 -123 -17 -4 -20 0 -20 32 0 30 5 40 25 51 17 9 25
22 25 41 0 32 -26 63 -46 55 -10 -4 -14 4 -14 27 0 21 3 27 9 19 4 -7 21 -15
37 -16z m-1131 -25 c-3 -12 -11 -21 -16 -21 -16 0 -22 29 -9 46 17 20 34 3 25
-25z m-448 -3 c-3 -8 -6 -5 -6 6 -1 11 2 17 5 13 3 -3 4 -12 1 -19z m333 -14
c0 -22 -3 -24 -22 -18 -30 9 -31 11 -25 26 2 8 14 14 26 15 16 1 21 -4 21 -23z
m1318 -40 c2 -30 -3 -46 -19 -64 l-22 -25 8 50 c4 28 8 58 7 68 -2 37 23 9 26
-29z m348 -6 c-3 -13 -6 -26 -6 -30 0 -5 -7 -8 -15 -8 -8 0 -15 -4 -15 -9 0
-5 -7 -11 -15 -15 -11 -4 -15 2 -15 25 0 23 4 30 14 26 8 -3 16 2 19 14 3 10
13 19 22 19 13 0 16 -6 11 -22z m-2263 -43 c-12 -25 -24 -35 -50 -40 -42 -8
-46 -5 -37 29 6 23 17 29 51 25 4 0 11 9 15 21 7 18 11 20 23 10 12 -10 12
-16 -2 -45z m392 35 c3 -5 1 -10 -4 -10 -6 0 -11 5 -11 10 0 6 2 10 4 10 3 0
8 -4 11 -10z m1736 -10 c24 0 29 -4 29 -25 0 -14 -3 -25 -7 -26 -48 -6 -84 -5
-89 2 -10 17 8 60 23 55 8 -3 28 -6 44 -6z m-2234 -52 c-2 -13 -4 -5 -4 17 -1
22 1 32 4 23 2 -10 2 -28 0 -40z m1738 13 c37 -33 96 -43 120 -20 22 21 36 9
33 -28 -4 -50 -23 -53 -112 -13 -115 51 -116 52 -116 76 0 21 2 23 28 13 15
-6 36 -18 47 -28z m-924 -99 c-8 -13 -10 -5 -10 33 1 48 1 49 10 17 6 -21 6
-39 0 -50z m-302 5 c1 -16 -3 -26 -9 -22 -5 3 -10 25 -9 48 0 33 2 38 9 22 5
-11 9 -33 9 -48z m341 0 c0 -15 11 -29 30 -40 33 -20 39 -44 14 -54 -27 -10
-64 35 -64 79 0 21 5 38 10 38 6 0 10 -10 10 -23z m60 13 c0 -5 -2 -10 -4 -10
-3 0 -8 5 -11 10 -3 6 -1 10 4 10 6 0 11 -4 11 -10z m795 -1390 c3 -5 1 -10
-4 -10 -6 0 -11 5 -11 10 0 6 2 10 4 10 3 0 8 -4 11 -10z m215 -180 c0 -5 -2
-10 -4 -10 -3 0 -8 5 -11 10 -3 6 -1 10 4 10 6 0 11 -4 11 -10z"/>
</g>
</svg>
