<?xml version="1.0" standalone="no"?>
<!DOCTYPE svg PUBLIC "-//W3C//DTD SVG 20010904//EN"
 "http://www.w3.org/TR/2001/REC-SVG-20010904/DTD/svg10.dtd">
<svg version="1.0" xmlns="http://www.w3.org/2000/svg"
 width="640.000000pt" height="360.000000pt" viewBox="0 0 640.000000 360.000000"
 preserveAspectRatio="xMidYMid meet">

<g transform="translate(0.000000,360.000000) scale(0.100000,-0.100000)"
fill="#000000" stroke="none">
<path d="M0 1800 l0 -1800 3200 0 3200 0 0 1800 0 1800 -1700 0 c-1528 0
-1700 -2 -1700 -16 0 -8 -5 -12 -10 -9 -6 4 -8 11 -5 16 4 5 -1 9 -9 9 -10 0
-16 -9 -16 -25 0 -28 -3 -29 -31 -14 -12 6 -18 17 -15 25 5 12 -196 14 -1454
14 l-1460 0 0 -1800z m3056 1744 c-6 -15 34 -46 54 -42 7 2 15 -3 18 -11 3
-11 0 -12 -14 -6 -11 4 -34 13 -52 20 -18 6 -29 15 -25 20 5 4 0 5 -10 2 -11
-4 -16 -3 -12 3 3 6 1 10 -4 10 -18 0 -12 18 7 22 26 6 44 -3 38 -18z m389
-14 c3 -5 1 -10 -4 -10 -6 0 -11 5 -11 10 0 6 2 10 4 10 3 0 8 -4 11 -10z
m-142 -19 c-5 -3 -9 -25 -9 -47 0 -33 3 -41 15 -36 11 4 13 1 8 -12 -4 -10 -7
-22 -7 -27 0 -5 -4 -9 -10 -9 -5 0 -10 7 -10 16 0 10 -6 14 -15 10 -9 -3 -19
3 -26 15 -14 27 -3 38 15 14 12 -17 13 -17 11 3 -1 12 -4 25 -8 28 -12 13 -7
24 11 25 9 0 12 3 5 5 -17 8 -4 34 14 27 8 -3 11 -9 6 -12z m1303 -34 c3 -19
-1 -29 -15 -37 -26 -13 -34 -13 -25 3 5 8 2 8 -9 -2 -9 -7 -17 -10 -17 -5 1
15 26 44 39 44 6 0 11 8 11 17 0 23 10 10 16 -20z m-1535 -9 c46 -22 69 -38
69 -50 0 -10 9 -22 20 -28 15 -8 19 -17 14 -32 -4 -14 -2 -18 5 -14 6 4 11 6
11 4 0 -2 4 -18 10 -37 l9 -34 -26 24 c-16 14 -12 6 10 -19 33 -38 45 -73 38
-114 0 -5 4 -8 10 -8 5 0 7 -5 4 -10 -5 -8 -11 -7 -21 1 -7 6 -11 16 -7 22 3
5 1 7 -5 4 -12 -8 -96 69 -106 98 -5 14 -9 16 -15 7 -5 -9 -23 3 -59 40 -47
48 -68 79 -42 63 6 -3 10 -1 10 4 0 6 8 11 18 12 10 0 12 3 4 6 -6 2 -10 9 -7
14 4 5 0 6 -8 3 -16 -6 -32 11 -40 44 -6 24 8 31 17 7 3 -8 15 -14 28 -12 16
1 23 -3 23 -15 0 -9 4 -20 9 -25 5 -4 6 -3 2 4 -3 6 -2 15 4 18 15 9 -7 35
-31 35 -10 0 -21 5 -24 10 -10 16 1 12 76 -22z m148 -35 c13 -28 13 -28 -8 -9
-22 20 -27 36 -13 36 5 0 14 -12 21 -27z m1816 17 c-3 -5 -14 -10 -23 -9 -14
0 -13 2 3 9 27 11 27 11 20 0z m-3171 -63 c-6 -19 -5 -20 9 -9 10 8 17 9 21 3
4 -6 14 -7 23 -4 11 4 14 3 9 -6 -5 -7 -15 -10 -23 -7 -8 3 -20 0 -27 -7 -10
-9 -8 -17 11 -35 13 -12 23 -18 23 -13 0 7 9 6 25 -1 18 -8 22 -14 13 -19 -8
-5 -3 -11 17 -19 21 -8 26 -13 16 -19 -11 -7 -9 -11 5 -20 11 -6 15 -11 11
-11 -4 0 -3 -9 3 -20 9 -16 6 -22 -15 -36 -20 -13 -23 -19 -14 -30 9 -11 8
-14 -4 -14 -21 0 -42 -27 -25 -33 8 -3 6 -6 -5 -6 -10 -1 -15 -5 -12 -11 3 -5
-1 -10 -9 -10 -10 0 -13 6 -9 18 5 13 3 14 -6 6 -9 -9 -22 -6 -51 10 -21 11
-42 17 -47 13 -9 -10 103 -117 113 -108 4 3 1 -5 -6 -17 -6 -13 -25 -31 -41
-40 -16 -10 -29 -23 -29 -29 0 -7 -4 -13 -10 -13 -5 0 -10 7 -10 15 0 8 -5 15
-11 15 -6 0 -9 -6 -6 -14 3 -7 0 -19 -6 -25 -14 -14 -57 -15 -57 -1 0 6 -10
10 -23 10 -12 0 -28 9 -35 20 -10 16 -16 18 -31 10 -14 -7 -20 -6 -25 6 -3 8
-10 12 -16 9 -6 -4 -8 -10 -6 -14 3 -4 -12 -6 -32 -4 l-37 2 38 -11 c38 -12
49 -31 22 -42 -19 -7 -42 2 -48 19 -3 7 -29 18 -57 25 -28 7 -54 19 -57 26 -3
8 -11 14 -19 14 -8 0 -14 10 -14 25 0 28 3 29 31 15 21 -12 26 -1 7 18 -10 10
-10 15 2 22 8 5 18 6 22 4 4 -3 15 -1 24 4 12 7 3 11 -36 16 -33 4 -50 11 -47
19 5 15 71 29 75 16 3 -6 10 -5 18 2 8 6 14 7 14 2 0 -18 76 -46 95 -36 15 9
13 11 -12 21 -15 6 -37 13 -48 15 -13 3 -10 5 10 6 17 1 41 4 54 8 l24 6 -24
19 c-15 11 -18 16 -6 12 11 -4 17 -1 17 9 0 8 7 18 16 21 8 3 13 10 9 15 -3 6
-12 8 -20 5 -7 -3 -18 4 -25 15 -14 28 2 28 41 0 31 -22 40 -11 13 15 -18 18
-14 20 49 31 20 3 37 10 37 15 0 6 -4 10 -10 10 -23 0 -7 19 25 30 19 6 35 16
35 22 0 6 7 8 15 4 8 -3 15 -1 15 4 0 6 -7 10 -15 10 -8 0 -15 5 -15 10 0 6 9
10 20 10 10 0 24 9 30 20 14 26 33 15 24 -13z m919 12 c4 -16 3 -18 -9 -8 -16
13 -19 29 -5 29 5 0 11 -9 14 -21z m74 -17 l22 -26 -6 24 c-6 22 -5 24 10 11
20 -16 23 -2 5 19 -14 14 38 -16 59 -34 111 -103 162 -169 155 -199 -1 -4 8
-22 21 -40 29 -38 40 -67 27 -67 -6 0 0 -10 12 -22 20 -20 21 -23 5 -26 -19
-4 -23 -27 -7 -37 6 -4 8 -11 4 -17 -9 -14 -64 41 -64 64 0 16 -2 17 -14 6
-14 -13 -9 -19 87 -106 11 -10 28 -34 38 -54 11 -21 22 -38 25 -38 2 0 0 9 -6
21 -7 11 -9 23 -6 26 3 3 12 -8 19 -26 7 -17 16 -29 19 -26 2 3 5 -11 6 -30 1
-33 0 -35 -19 -25 -11 6 -24 21 -29 33 -5 12 -9 16 -9 8 -1 -8 -7 -11 -17 -7
-12 5 -15 2 -10 -10 4 -10 2 -14 -6 -11 -7 2 -20 -1 -28 -9 -13 -11 -15 -9
-16 10 -1 19 3 23 20 20 17 -4 16 -2 -4 7 -14 6 -33 15 -42 20 -13 7 -16 5
-12 -6 4 -9 0 -15 -7 -15 -11 0 -11 -2 1 -10 8 -5 16 -22 16 -37 1 -15 5 -36
9 -46 5 -12 3 -17 -6 -15 -8 2 -13 -3 -11 -10 3 -18 -11 -9 -76 47 -52 46
-112 128 -112 156 0 26 -50 104 -97 152 -44 45 -52 43 -13 -2 22 -25 93 -155
88 -160 -5 -6 -203 224 -206 241 -4 17 9 18 28 2 8 -7 7 -4 -3 8 -9 11 -17 26
-17 33 0 22 -48 61 -67 55 -17 -5 -17 -5 -1 6 25 15 4 60 -28 60 l-24 0 21 36
c11 20 18 39 14 42 -3 3 -5 0 -5 -5 0 -13 -25 -11 -37 2 -4 4 -3 5 4 2 6 -4
19 0 27 9 9 8 16 11 16 5 0 -6 9 -11 19 -11 11 0 23 -5 27 -12 4 -7 3 -8 -4
-4 -7 4 -12 1 -12 -7 0 -18 24 -29 37 -16 12 12 45 1 37 -12 -3 -5 -1 -9 4 -9
5 0 15 -12 22 -27 8 -16 20 -35 28 -45 7 -9 15 -22 16 -30 2 -7 8 -26 14 -41
7 -16 12 -34 12 -42 0 -8 4 -16 9 -19 12 -8 -17 111 -40 161 -29 63 -13 73 33
22 l39 -44 -27 42 c-23 38 -37 96 -27 115 6 12 37 -3 60 -30z m308 28 c3 -5 1
-10 -4 -10 -6 0 -11 5 -11 10 0 6 2 10 4 10 3 0 8 -4 11 -10z m1372 -12 c-2
-7 -10 -12 -16 -10 -6 1 -11 -3 -11 -10 0 -6 -2 -9 -5 -6 -10 9 7 38 22 38 8
0 13 -6 10 -12z m-1847 -19 c0 -14 -17 -10 -23 5 -4 10 -1 13 9 9 7 -3 14 -9
14 -14z m-915 -9 c3 -5 1 -10 -4 -10 -6 0 -11 5 -11 10 0 6 2 10 4 10 3 0 8
-4 11 -10z m1565 -10 c0 -5 -7 -7 -15 -4 -8 4 -15 8 -15 10 0 2 7 4 15 4 8 0
15 -4 15 -10z m1640 0 c0 -5 -12 -10 -27 -10 -22 0 -25 2 -13 10 20 13 40 13
40 0z m207 4 c-3 -3 -12 -4 -19 -1 -8 3 -5 6 6 6 11 1 17 -2 13 -5z m-1907
-14 c0 -5 -2 -10 -4 -10 -3 0 -8 5 -11 10 -3 6 -1 10 4 10 6 0 11 -4 11 -10z
m-1375 -10 c3 -5 2 -10 -4 -10 -5 0 -13 5 -16 10 -3 6 -2 10 4 10 5 0 13 -4
16 -10z m3325 -4 c0 -7 14 -16 32 -20 42 -8 67 -32 60 -58 -4 -18 -11 -20 -48
-15 -49 5 -51 -7 -4 -17 17 -3 39 -13 48 -22 15 -15 13 -16 -19 -10 -26 5 -29
4 -13 -3 33 -14 43 -36 13 -28 -23 6 -23 5 -5 -8 17 -13 18 -15 3 -15 -9 0
-17 -6 -17 -14 0 -8 -18 -21 -41 -30 -33 -14 -44 -14 -58 -4 -9 7 -13 8 -9 4
5 -5 -15 -22 -43 -38 -28 -16 -48 -32 -45 -35 3 -3 24 6 48 19 24 14 75 31
113 38 39 7 86 22 105 34 l35 20 -19 -22 c-14 -17 -16 -22 -5 -22 21 0 79 -75
79 -102 -1 -33 -23 -58 -52 -58 -16 0 -25 -6 -25 -15 0 -9 6 -14 13 -11 7 3
25 1 41 -4 21 -6 8 -9 -57 -11 -47 -1 -67 -4 -45 -6 99 -8 147 -15 139 -21
-17 -12 -10 -47 8 -46 14 1 15 -2 5 -20 -7 -11 -16 -24 -22 -28 -5 -4 4 -8 20
-8 21 0 26 -3 16 -9 -8 -5 -12 -19 -9 -34 3 -17 1 -24 -8 -20 -7 2 -11 -3 -11
-14 2 -19 -8 -20 -53 -7 l-25 7 24 -24 25 -23 -30 -13 -29 -14 36 6 c41 6 62
-17 31 -34 -16 -10 -16 -10 0 -11 12 0 15 -5 11 -17 -5 -12 -2 -15 10 -10 9 3
17 2 17 -3 0 -6 -7 -10 -15 -10 -9 0 -18 -7 -21 -15 -4 -8 -13 -15 -22 -15 -8
0 -13 -2 -10 -5 9 -9 -20 -80 -31 -78 -6 2 -10 -1 -8 -6 1 -5 -1 -10 -5 -11
-4 -1 -20 -5 -35 -9 -16 -5 -39 -4 -52 0 -18 7 -22 6 -18 -5 5 -11 -11 -14
-81 -14 -48 0 -105 3 -127 7 l-40 8 30 7 c17 4 41 12 55 17 21 8 19 8 -10 4
-162 -26 -336 -26 -374 -2 -12 8 -37 19 -56 25 -32 11 -33 10 -16 -3 19 -14
19 -15 -8 -15 -36 0 -98 29 -93 44 2 6 15 12 28 13 13 0 42 2 64 3 25 2 31 4
18 7 -13 2 -23 9 -23 15 0 6 10 8 23 4 13 -3 32 1 43 8 10 7 37 19 59 25 22 7
59 21 82 32 24 10 54 19 67 19 13 0 47 11 74 25 28 14 56 25 63 25 9 0 10 3 2
11 -8 8 -22 5 -52 -11 -23 -11 -79 -30 -124 -41 -45 -11 -116 -31 -157 -44
-41 -13 -86 -26 -100 -27 -14 -2 -30 -7 -37 -11 -8 -5 -9 0 -6 15 5 19 3 21
-8 11 -19 -18 -50 -17 -43 2 4 11 -1 15 -17 15 -22 0 -22 0 -3 15 19 14 19 14
-1 16 -13 1 -10 4 10 8 l30 7 -38 8 c-37 7 -38 8 -22 26 16 18 14 18 -64 0
-45 -10 -78 -14 -75 -9 3 5 -11 9 -30 9 -20 0 -36 5 -36 11 0 7 12 9 33 5 17
-3 39 -1 47 4 13 9 13 10 0 11 -8 1 -22 2 -30 3 -8 2 -26 3 -39 4 l-24 2 23
25 23 24 -32 -4 c-34 -4 -34 3 2 43 11 12 26 22 33 22 6 0 18 8 25 18 11 14
11 15 -1 5 -11 -10 -17 -9 -33 4 -10 10 -18 13 -17 8 5 -21 -1 -36 -10 -30 -6
4 -8 10 -5 15 3 5 -7 8 -21 7 -15 -1 -29 3 -31 10 -6 16 127 14 152 -4 22 -15
55 -18 40 -4 -6 5 -19 11 -30 14 -12 4 -8 5 11 4 23 -1 41 8 73 38 49 46 85
70 62 42 -12 -15 -12 -17 3 -11 9 3 16 10 16 14 0 5 13 3 29 -3 23 -8 36 -8
55 2 20 11 39 11 106 1 83 -13 118 -8 59 8 -19 5 -33 15 -31 21 2 9 -5 10 -20
5 -13 -4 -27 -7 -33 -6 -5 0 -47 1 -92 2 -56 1 -87 6 -97 15 -9 10 -16 11 -24
3 -6 -6 -25 -8 -49 -3 l-38 7 38 17 c21 9 35 19 32 23 -4 3 3 9 14 13 12 3 19
10 16 15 -3 4 2 13 10 20 8 7 15 9 15 4 0 -5 6 -2 13 6 7 8 32 25 57 37 25 12
69 45 98 72 36 33 58 48 69 44 12 -5 15 -2 10 10 -3 9 1 21 11 29 15 12 16 11
3 -4 -8 -11 -9 -18 -3 -18 6 0 16 9 22 20 8 15 17 19 33 15 16 -5 18 -4 8 4
-27 18 6 41 59 41 35 0 57 -7 86 -27 42 -30 55 -32 94 -15 17 7 20 11 8 11
-22 1 -32 17 -17 27 8 4 9 3 5 -4 -4 -7 -3 -12 3 -12 5 0 13 5 16 10 4 6 10 8
15 5 5 -3 12 0 16 6 5 8 3 9 -7 4 -10 -5 -11 -5 -4 3 9 10 42 17 93 21 13 0
22 -5 22 -13z m-175 -8 c5 4 5 1 1 -5 -10 -18 -23 -16 -30 3 -5 13 -4 14 7 6
8 -7 18 -8 22 -4z m-1725 -12 c0 -3 -4 -8 -10 -11 -5 -3 -10 -1 -10 4 0 6 5
11 10 11 6 0 10 -2 10 -4z m1250 -4 c0 -14 -11 -21 -26 -15 -8 3 -11 9 -8 14
7 11 34 12 34 1z m-122 -49 c-7 -9 -7 -13 0 -13 6 0 13 8 16 18 4 12 15 17 38
15 53 -3 54 -3 38 -13 -8 -5 -11 -10 -6 -10 5 0 1 -10 -10 -22 l-19 -23 26 23
c31 27 38 27 56 5 13 -17 13 -16 7 6 -5 18 -3 22 7 16 11 -6 12 -5 2 6 -7 7
-13 20 -13 28 0 13 2 13 14 1 22 -23 47 -90 32 -84 -7 3 -18 -7 -26 -21 -15
-28 -32 -34 -24 -7 5 16 5 16 -6 -1 -6 -9 -15 -15 -20 -12 -5 3 -7 -4 -5 -15
3 -15 -3 -24 -23 -33 -15 -6 -33 -17 -40 -24 -13 -13 -28 -17 -45 -14 -5 1 -6
-3 -2 -9 3 -5 -2 -10 -12 -10 -11 0 -14 -3 -7 -8 6 -4 -6 -20 -33 -40 l-44
-32 37 56 c19 32 42 64 50 71 8 8 19 24 25 36 8 16 3 14 -18 -8 -16 -17 -35
-40 -44 -52 -15 -22 -44 -27 -128 -24 -24 0 -41 4 -37 9 4 4 12 8 17 8 19 3
19 4 7 18 -10 11 -16 11 -27 3 -8 -7 -5 6 8 30 21 42 71 84 58 49 -4 -9 -2
-16 3 -16 6 0 10 4 10 9 0 5 7 12 16 15 8 3 13 2 10 -3 -3 -5 1 -11 9 -14 9
-4 12 -1 8 9 -3 9 1 14 13 14 11 0 15 4 9 8 -5 4 -11 15 -11 25 -1 13 6 17 33
17 34 0 34 1 28 33 -7 32 -7 32 13 12 14 -14 17 -24 10 -32z m57 29 c-3 -3
-11 0 -18 7 -9 10 -8 11 6 5 10 -3 15 -9 12 -12z m229 9 c3 -4 -6 -13 -20 -20
-18 -8 -23 -8 -18 0 3 6 0 15 -7 20 -10 6 -6 9 13 9 15 0 29 -4 32 -9z m-1398
-38 c-11 -11 -19 6 -11 24 8 17 8 17 12 0 3 -10 2 -21 -1 -24z m-756 2 c7 -9
10 -18 7 -22 -8 -7 -37 15 -37 28 0 14 16 11 30 -6z m2088 -13 c2 -12 -2 -22
-8 -22 -6 0 -8 5 -5 10 3 6 1 10 -4 10 -6 0 -11 7 -11 16 0 23 24 11 28 -14z
m-2118 -38 c0 -2 -9 0 -20 6 -11 6 -20 13 -20 16 0 2 9 0 20 -6 11 -6 20 -13
20 -16z m795 17 c3 -5 2 -12 -3 -15 -5 -3 -9 1 -9 9 0 17 3 19 12 6z m972 -7
c-3 -3 -12 -4 -19 -1 -8 3 -5 6 6 6 11 1 17 -2 13 -5z m-1992 -34 c3 -5 1 -10
-4 -10 -6 0 -11 5 -11 10 0 6 2 10 4 10 3 0 8 -4 11 -10z m325 -93 c0 -5 -6
-7 -12 -4 -7 2 -12 9 -11 15 2 6 -6 16 -17 22 -11 6 -25 20 -31 33 -8 14 3 9
30 -18 22 -21 41 -43 41 -48z m5 73 c3 -5 2 -10 -4 -10 -5 0 -13 5 -16 10 -3
6 -2 10 4 10 5 0 13 -4 16 -10z m-289 -12 c3 -3 -7 -5 -21 -5 -14 0 -28 3 -30
7 -5 9 42 6 51 -2z m-855 -21 c-10 -9 -11 -8 -5 6 3 10 9 15 12 12 3 -3 0 -11
-7 -18z m1664 13 c3 -5 1 -10 -4 -10 -6 0 -11 5 -11 10 0 6 2 10 4 10 3 0 8
-4 11 -10z m-761 -29 c20 -17 14 -25 -19 -27 -20 -1 -24 4 -23 21 2 25 17 27
42 6z m130 -38 c10 -25 3 -23 -17 3 -13 18 -14 22 -3 18 8 -3 17 -13 20 -21z
m-234 -3 c0 -5 -2 -10 -4 -10 -3 0 -8 5 -11 10 -3 6 -1 10 4 10 6 0 11 -4 11
-10z m479 -122 c126 -137 155 -182 165 -258 l6 -45 -127 128 c-104 104 -125
130 -113 138 13 9 12 10 -2 5 -11 -3 -27 7 -47 30 -17 19 -31 38 -31 42 0 4
-10 12 -22 17 -12 6 -23 18 -24 28 -1 9 2 15 7 11 5 -3 12 2 15 11 5 12 9 13
20 4 8 -7 17 -9 21 -5 3 3 1 6 -6 6 -7 0 -9 5 -6 10 3 6 10 10 15 10 5 0 63
-59 129 -132z m-351 97 c-3 -3 -9 2 -12 12 -6 14 -5 15 5 6 7 -7 10 -15 7 -18z
m-88 -27 c0 -13 -17 -9 -30 7 -6 8 -8 20 -4 26 5 9 11 7 21 -6 7 -11 13 -22
13 -27z m-118 4 c-19 -6 -64 7 -57 18 3 5 19 4 37 -2 18 -6 27 -13 20 -16z
m2128 3 c-10 -12 -16 -13 -26 -4 -18 15 -18 14 12 17 23 2 25 0 14 -13z
m-2113 -27 c32 -14 33 -38 2 -38 -21 0 -26 16 -6 23 9 4 9 6 0 6 -6 1 -15 -3
-18 -9 -10 -16 -33 -12 -55 10 l-20 20 34 0 c18 0 47 -6 63 -12z m156 5 c-7
-2 -19 -2 -25 0 -7 3 -2 5 12 5 14 0 19 -2 13 -5z m177 -44 c0 -4 -10 -5 -22
-1 -13 3 -17 7 -10 10 10 3 10 7 0 20 -9 12 -6 11 10 -2 12 -11 22 -22 22 -27z
m-107 24 c-25 -9 -13 -21 28 -28 39 -7 40 -8 20 -21 -15 -11 -26 -12 -40 -5
-10 6 -20 8 -23 6 -3 -4 -3 45 1 53 0 1 7 2 14 1 10 0 10 -2 0 -6z m717 -3 c0
-5 -2 -10 -4 -10 -3 0 -8 5 -11 10 -3 6 -1 10 4 10 6 0 11 -4 11 -10z m-765
-19 c-3 -6 -14 -11 -23 -11 -13 0 -13 2 4 14 21 15 30 14 19 -3z m260 -112
c97 -119 135 -169 130 -169 -9 0 -215 172 -215 180 0 4 -8 11 -17 14 -13 6 73
-96 98 -114 22 -16 129 -167 129 -181 0 -18 15 -32 38 -35 7 -2 11 3 9 9 -3 7
-10 11 -16 9 -7 -1 -10 2 -6 8 4 6 -10 32 -29 59 -20 27 -36 51 -36 55 0 3 34
-21 75 -54 83 -68 150 -144 140 -160 -3 -5 1 -10 9 -10 8 0 25 -10 36 -22 18
-19 22 -20 30 -8 8 13 14 12 47 -5 39 -21 55 -45 29 -45 -9 0 -15 5 -14 11 2
6 -4 16 -13 22 -13 8 -23 5 -44 -11 -15 -12 -35 -22 -44 -22 -9 0 -29 -7 -45
-15 -15 -8 -39 -15 -51 -15 -25 0 -30 -10 -40 -77 -3 -25 -2 -43 4 -43 5 0 12
23 16 50 8 56 22 63 55 28 22 -24 23 -28 11 -46 -6 -10 -10 -10 -21 3 -7 8
-17 15 -23 15 -5 0 2 -11 15 -25 22 -22 30 -24 52 -15 29 11 120 21 111 12 -2
-3 -1 -10 5 -16 10 -13 -29 -48 -90 -82 -19 -10 -51 -31 -70 -45 -19 -14 -43
-29 -53 -32 -15 -6 -18 -16 -15 -54 3 -48 3 -48 38 -46 19 1 36 6 38 12 2 6
14 11 26 11 13 0 26 3 30 8 4 4 11 7 14 8 17 2 76 33 64 34 -7 0 -10 5 -6 11
10 17 27 -17 19 -40 -4 -14 1 -20 25 -25 19 -3 29 -10 25 -17 -4 -5 1 -17 11
-24 18 -14 17 -14 -7 -15 -14 0 -36 -11 -50 -26 -21 -22 -29 -25 -66 -19 -34
5 -54 0 -107 -24 -36 -17 -71 -31 -78 -31 -21 0 -84 43 -70 47 22 8 13 43 -14
53 -36 14 -39 12 -14 -8 16 -13 20 -24 15 -44 -8 -31 -26 -28 -45 8 -7 13 -15
22 -17 20 -6 -5 17 -45 40 -68 9 -10 31 -18 47 -18 24 0 30 -4 30 -21 0 -12
-8 -23 -20 -26 -11 -3 -17 -9 -14 -14 3 -5 3 -9 -1 -9 -3 0 -10 10 -15 23 -8
18 -9 17 -4 -10 7 -38 -10 -44 -51 -17 -14 9 -25 14 -25 10 0 -4 71 -54 87
-61 1 -1 -1 -14 -6 -31 -6 -25 -15 -31 -66 -44 -33 -8 -61 -22 -63 -30 -4 -12
-2 -13 9 -4 8 6 32 14 54 17 22 3 50 9 63 13 18 5 21 3 16 -10 -8 -22 2 -20
53 9 l43 26 68 -17 c68 -16 92 -33 92 -66 0 -22 -58 -48 -107 -48 -35 0 -93
-24 -93 -39 0 -21 98 -28 119 -8 11 10 12 9 6 -2 -6 -11 -3 -13 13 -9 12 4 25
2 28 -3 3 -5 15 -9 28 -9 12 0 28 -6 35 -12 6 -7 16 -14 21 -14 6 -1 14 -2 19
-3 5 0 11 -13 13 -28 2 -23 8 -29 35 -31 41 -4 46 -31 15 -94 -19 -40 -20 -51
-10 -67 15 -25 4 -38 -17 -21 -17 14 -37 11 -115 -19 -65 -25 -95 -26 -166 -5
-48 14 -54 18 -54 43 0 57 37 101 57 67 10 -17 124 -56 138 -47 6 3 1 7 -10 9
-11 3 -29 11 -40 18 -11 8 -27 14 -37 14 -26 0 -22 12 11 44 24 23 36 28 60
23 25 -5 29 -4 25 11 -5 14 -3 14 10 -2 20 -25 21 -40 1 -32 -10 3 -15 -1 -15
-12 0 -37 13 -62 31 -62 18 0 25 15 31 70 6 48 -73 90 -102 55 -7 -8 -18 -15
-24 -15 -7 0 -6 3 2 9 10 6 10 10 -2 20 -9 7 -46 11 -102 10 -58 -1 -89 2 -92
10 -7 22 -22 11 -16 -13 6 -25 -18 -58 -39 -51 -7 2 -25 6 -40 9 -15 4 -25 11
-22 16 3 5 1 11 -5 15 -5 3 -10 1 -10 -6 0 -8 -4 -8 -15 1 -9 8 -15 31 -16 59
-1 25 -5 57 -10 71 -7 21 -8 18 -5 -15 1 -22 -2 -48 -8 -57 -8 -13 -5 -28 13
-62 16 -34 23 -67 25 -126 2 -44 6 -83 9 -86 8 -8 -3 -34 -15 -34 -5 0 -6 9
-3 21 6 18 3 20 -22 17 -26 -3 -28 -6 -25 -40 3 -31 1 -37 -12 -32 -9 3 -16
11 -17 18 -2 26 -8 49 -16 55 -4 3 -8 12 -9 19 -3 33 -4 34 -19 22 -13 -11
-15 -7 -14 31 1 41 2 42 9 14 l8 -30 1 31 c0 17 8 48 16 67 9 23 11 38 5 42
-6 3 -10 17 -10 30 0 13 -4 27 -10 30 -5 3 -17 22 -26 41 -9 20 -20 31 -23 26
-3 -6 -23 -10 -45 -10 -37 0 -38 0 -15 14 13 7 32 17 42 20 9 3 17 12 17 19 0
14 -68 14 -90 0 -6 -4 -31 -8 -55 -10 -42 -2 -45 -1 -46 24 -2 23 -2 24 -6 3
-2 -12 -9 -20 -14 -17 -12 8 -12 45 1 45 6 0 10 6 10 13 0 7 12 20 28 29 15
10 21 18 15 18 -18 0 -16 30 1 30 8 0 27 5 42 10 l27 11 -21 19 c-27 25 -32
25 -32 0 0 -11 -4 -20 -10 -20 -5 0 -7 7 -4 15 4 9 0 15 -9 15 -9 0 -19 5 -22
10 -4 7 2 9 19 4 17 -4 26 -2 26 6 0 6 5 8 10 5 6 -3 10 -2 10 4 0 5 19 14 43
20 l42 10 -42 -2 c-24 -1 -43 0 -43 3 0 3 13 16 29 30 17 13 28 27 25 31 -2 4
0 10 6 14 5 3 10 1 10 -6 0 -10 3 -10 11 -2 16 16 -18 83 -41 83 -17 0 -33
-26 -29 -46 3 -21 -2 -34 -14 -34 -6 0 -32 -18 -56 -40 -25 -23 -50 -39 -58
-36 -21 8 -15 26 12 36 14 5 25 14 25 20 0 7 8 9 20 5 23 -7 26 7 7 27 -8 7
-12 19 -9 27 3 10 0 11 -17 2 -12 -7 -26 -9 -31 -6 -5 3 -7 0 -4 -8 9 -25 -16
-30 -34 -7 l-18 22 -19 -37 c-14 -24 -29 -38 -47 -42 -16 -3 -28 -9 -28 -14 0
-5 -10 -9 -22 -9 -27 0 -63 -19 -38 -20 13 0 13 -1 0 -10 -9 -5 -17 -5 -20 0
-4 6 -19 6 -36 2 -16 -5 -37 -6 -48 -4 -16 4 -16 5 5 16 18 9 24 20 24 44 0
32 -8 41 -20 22 -4 -6 -11 -8 -16 -5 -18 11 43 85 66 81 5 -2 7 -1 2 1 -13 8
4 23 26 23 12 1 33 7 47 15 29 17 18 19 -27 6 -20 -6 -35 -6 -38 0 -9 14 -29
11 -51 -10 -24 -22 -74 -34 -91 -23 -33 21 -31 116 3 129 8 3 24 27 35 54 12
27 25 49 30 49 5 0 9 7 9 15 0 8 5 15 11 15 5 0 7 5 4 10 -4 6 5 10 20 10 14
0 24 4 20 10 -3 5 7 5 25 -1 17 -6 27 -16 23 -22 -3 -6 -1 -7 6 -3 15 10 117
-39 125 -59 3 -8 12 -12 19 -9 8 3 17 -2 21 -11 3 -9 11 -13 17 -9 8 5 10 -5
8 -33 -3 -31 -1 -40 11 -39 8 1 18 6 22 11 4 6 8 0 8 -13 0 -13 4 -21 9 -18 7
4 8 49 2 111 -1 6 -19 11 -41 13 -26 2 -66 19 -121 52 l-82 50 64 -5 64 -4
-74 15 c-81 17 -110 34 -87 53 7 6 17 7 21 3 5 -4 1 5 -8 20 -9 15 -17 29 -17
31 0 1 16 2 35 2 20 -1 38 2 41 7 3 4 -4 8 -16 8 -34 0 -79 29 -80 51 0 3 8
15 18 26 17 20 36 22 82 9 18 -5 16 -1 -10 13 -29 17 -31 20 -13 21 12 0 23 5
25 12 4 11 31 4 145 -39 9 -3 8 5 -3 26 -10 20 -13 42 -9 61 4 18 3 30 -4 30
-13 0 -34 -37 -27 -48 3 -4 1 -14 -5 -22 -7 -12 -9 -10 -9 8 0 15 -6 22 -19
22 -14 0 -18 5 -14 19 3 11 11 22 19 25 8 3 14 12 14 21 0 8 6 15 14 15 7 0
19 6 25 14 10 12 6 15 -19 21 -16 4 -30 11 -30 16 0 5 -5 9 -12 9 -9 0 -9 -3
0 -12 16 -16 -4 -48 -31 -47 -12 0 -16 3 -9 6 15 6 16 43 1 43 -6 0 -9 6 -6
13 2 6 10 11 17 9 8 -2 11 4 7 19 -4 13 0 28 10 37 11 12 12 17 4 20 -8 3 -4
10 10 20 26 18 79 18 91 0 6 -9 8 -7 6 7 -2 11 -7 23 -11 26 -5 3 23 17 61 31
l70 25 47 -35 c34 -24 46 -39 42 -52 -3 -11 0 -17 7 -15 9 4 76 -75 76 -90 0
-3 -7 -5 -16 -5 -8 0 -12 -4 -9 -10 3 -5 15 -10 26 -10 10 0 19 -4 19 -10 0
-5 9 -10 20 -10 21 0 24 8 14 34 -3 8 -12 12 -19 10 -19 -7 -30 16 -14 28 12
8 11 9 -1 5 -19 -5 -71 59 -63 78 7 19 34 5 62 -31 12 -15 21 -23 21 -18 -1
13 -58 74 -69 74 -5 0 -19 13 -31 30 -15 21 -17 28 -6 24 11 -4 13 0 9 18 -3
13 -3 20 1 16 4 -3 7 -9 6 -13 -2 -8 31 -34 43 -35 4 0 -2 10 -13 22 -11 12
-18 28 -15 35 3 10 -3 13 -22 11 -14 -2 -28 2 -30 7 -2 6 9 10 23 10 16 -1 47
-20 80 -49 61 -54 72 -55 17 -1 -20 19 -34 37 -32 39 2 3 17 8 33 12 20 5 27
3 22 -4 -3 -6 -2 -13 4 -17 5 -3 10 2 10 13 0 45 27 28 105 -69z m-390 71 c3
-5 2 -10 -4 -10 -5 0 -13 5 -16 10 -3 6 -2 10 4 10 5 0 13 -4 16 -10z m2041 0
c7 7 29 9 51 6 21 -3 49 -5 63 -6 19 0 21 -3 11 -9 -8 -5 -22 -8 -31 -6 -10 2
-16 -4 -17 -18 -1 -12 -9 -27 -17 -33 -27 -19 -153 -4 -140 17 3 5 10 7 15 4
5 -4 9 -1 9 6 0 7 3 9 7 6 9 -9 32 12 29 26 -1 7 -1 8 2 4 2 -4 10 -3 18 3z
m-1458 -223 c47 -48 92 -101 99 -117 l12 -30 -42 29 c-48 33 -49 34 -193 212
l-107 134 72 -70 c40 -38 111 -109 159 -158z m-1355 176 c34 -10 15 -39 -31
-49 -7 -1 -11 3 -9 9 2 7 11 11 20 11 9 -1 13 4 10 12 -6 17 -8 17 -33 2 -15
-10 -22 -10 -32 0 -11 11 -10 12 5 6 10 -3 17 -3 16 2 -3 20 2 26 19 19 9 -4
25 -10 35 -12z m797 -4 c0 -6 -9 -9 -20 -6 -10 3 -21 0 -23 -7 -2 -6 -8 -7
-13 -3 -10 10 14 27 39 27 9 0 17 -5 17 -11z m-70 -9 c0 -5 -2 -10 -4 -10 -3
0 -8 5 -11 10 -3 6 -1 10 4 10 6 0 11 -4 11 -10z m-30 -20 c0 -5 -7 -10 -16
-10 -8 0 -12 5 -9 10 3 6 10 10 16 10 5 0 9 -4 9 -10z m243 -53 c-7 -12 -22 1
-39 35 l-16 32 30 -30 c16 -16 28 -32 25 -37z m1681 32 c-6 -11 -45 -12 -71
-2 -16 6 -15 8 7 13 31 8 72 1 64 -11z m36 -10 c0 -5 -10 -9 -21 -9 -18 0 -19
2 -9 15 12 15 30 12 30 -6z m-2633 -15 c-3 -3 -12 -4 -19 -1 -8 3 -5 6 6 6 11
1 17 -2 13 -5z m2586 0 c35 -5 47 -11 51 -28 5 -17 8 -18 15 -6 7 10 6 17 -2
22 -7 5 -1 8 15 8 37 0 44 -17 18 -45 -18 -19 -29 -22 -56 -18 -20 3 -34 1
-34 -5 0 -12 -68 -14 -76 -1 -3 5 12 9 33 10 26 0 32 3 20 8 -10 3 -34 6 -53
6 -23 -1 -34 3 -34 13 0 9 7 13 18 10 11 -3 19 0 19 7 0 8 -7 11 -15 7 -10 -3
-13 -1 -8 6 8 14 24 15 89 6z m-927 -26 c4 -7 3 -8 -4 -4 -7 4 -12 2 -12 -5 0
-7 -3 -10 -6 -6 -6 5 3 27 11 27 2 0 7 -5 11 -12z m-191 -61 c50 -51 75 -84
58 -73 -7 4 -13 2 -13 -4 0 -6 7 -13 15 -16 15 -6 20 -35 9 -47 -15 -14 -103
60 -104 88 -1 6 -5 29 -9 53 -5 23 -6 42 -2 42 3 0 24 -19 46 -43z m113 18
c-3 -3 -9 2 -12 12 -6 14 -5 15 5 6 7 -7 10 -15 7 -18z m39 -5 c-3 -11 -1 -18
4 -14 12 7 11 -7 -4 -34 -12 -22 -13 -21 -14 15 -1 37 3 53 14 53 3 0 3 -9 0
-20z m131 -35 c18 -46 27 -54 53 -48 25 7 46 -12 54 -47 3 -16 13 -34 22 -42
9 -7 26 -29 39 -48 13 -19 41 -57 62 -84 34 -44 43 -50 78 -50 33 -1 39 -4 36
-21 -7 -54 -5 -85 8 -100 13 -15 15 -15 22 6 11 30 21 17 24 -32 1 -22 9 -48
17 -57 8 -9 12 -23 10 -29 -3 -7 0 -13 5 -13 16 0 31 -52 31 -110 0 -53 -1
-56 -24 -56 -20 0 -22 3 -12 14 9 11 7 18 -11 32 -12 10 -22 23 -22 29 0 6 -7
11 -17 11 -15 0 -15 -1 0 -18 10 -10 17 -27 17 -37 0 -18 -1 -18 -15 1 -13 17
-16 17 -26 4 -9 -13 -10 -12 -5 3 3 9 0 17 -6 17 -7 0 -7 4 1 14 9 11 9 16 -1
23 -8 4 -20 27 -27 49 -8 25 -23 47 -37 55 -13 7 -24 17 -24 23 0 7 -7 22 -16
34 -15 22 -17 22 -40 8 -13 -9 -28 -16 -34 -16 -18 0 -11 17 13 28 17 8 18 11
5 11 -10 1 -30 -11 -46 -26 -15 -16 -39 -36 -52 -45 -20 -13 -22 -19 -11 -26
14 -10 12 -93 -4 -139 -6 -18 -4 -21 14 -16 15 4 21 1 21 -10 0 -25 -20 -30
-41 -11 -11 10 -19 12 -19 6 0 -7 -7 -12 -15 -12 -18 0 -19 12 -4 27 8 8 8 17
0 31 -6 11 -10 31 -8 44 1 18 -2 22 -18 20 -20 -4 -20 -3 0 11 16 13 17 17 6
31 -7 9 -26 16 -42 16 -16 0 -29 5 -29 11 0 5 -4 8 -9 4 -14 -8 -23 12 -16 35
5 15 15 20 41 20 19 0 33 4 30 9 -3 5 1 11 9 15 21 8 18 224 -4 236 -12 6 -10
10 7 21 12 8 22 17 22 21 0 12 -61 73 -70 71 -5 -1 -1 11 7 28 12 24 18 28 29
18 24 -20 27 15 5 52 -23 38 -26 52 -10 47 6 -2 19 -22 27 -43z m-92 -42 c-3
-7 -1 -13 4 -13 6 0 9 -10 9 -22 -1 -17 -3 -18 -6 -6 -2 9 -10 15 -17 12 -15
-6 -31 40 -20 57 8 14 36 -11 30 -28z m1008 -42 c-9 -9 -45 -11 -39 -2 3 6 14
9 25 8 10 -1 17 -3 14 -6z m231 -11 c-3 -5 -12 -10 -18 -10 -7 0 -6 4 3 10 19
12 23 12 15 0z m-1314 -32 c19 -24 25 -48 11 -48 -4 0 -18 7 -30 16 -17 11
-20 19 -13 28 6 7 8 16 4 19 -3 4 -3 7 1 7 4 0 16 -10 27 -22z m863 -63 c3 -8
16 -15 28 -15 19 0 20 2 8 10 -11 7 -8 10 15 9 17 0 24 -3 17 -6 -9 -4 -5 -11
15 -23 26 -16 30 -16 53 -2 22 14 24 14 12 0 -10 -13 -9 -18 10 -30 13 -8 31
-17 40 -21 9 -3 20 -22 24 -42 4 -24 14 -39 28 -44 27 -11 46 -3 39 15 -4 10
0 12 11 8 9 -3 23 -1 31 6 19 16 65 22 65 9 0 -11 59 -8 67 4 5 8 291 0 305
-9 4 -2 62 -7 130 -9 190 -7 392 -26 406 -38 10 -8 12 -7 10 4 -4 16 23 19 67
6 42 -12 85 -15 85 -5 0 4 7 8 15 8 8 0 14 -3 14 -7 -1 -5 -1 -15 0 -23 1 -12
3 -12 10 -2 7 11 9 11 14 -1 7 -19 -18 -30 -46 -21 -12 4 -17 2 -13 -4 3 -6 1
-12 -6 -15 -7 -2 1 -2 17 -1 17 2 24 1 18 -2 -25 -11 -12 -24 23 -24 47 0 35
-18 -19 -27 -37 -6 -39 -7 -17 -13 14 -4 37 -5 51 -3 15 3 30 0 33 -6 4 -6 2
-9 -6 -6 -9 4 -13 -6 -14 -35 -1 -26 3 -40 12 -40 7 0 11 -8 9 -17 -2 -10 -4
-22 -4 -27 -1 -4 -7 -6 -13 -3 -49 18 -59 16 -23 -5 32 -19 39 -29 36 -48 -1
-14 -8 -28 -15 -32 -7 -5 -5 -8 7 -8 12 0 17 -8 17 -29 0 -37 -13 -46 -42 -30
-23 12 -23 12 -4 -10 21 -23 21 -24 -9 -38 -29 -13 -76 -2 -114 28 l-34 27 29
16 c18 9 23 15 13 16 -9 0 -22 -7 -29 -15 -12 -14 -15 -14 -31 1 -13 12 -22
13 -36 5 -16 -10 -15 -10 6 -8 13 1 26 -4 28 -10 3 -7 -1 -13 -8 -13 -7 0 -28
-12 -47 -26 -27 -22 -36 -24 -43 -13 -5 9 -1 21 14 34 12 11 18 17 13 13 -6
-5 -18 -8 -28 -8 -10 0 -18 -5 -18 -11 0 -5 -8 -9 -17 -8 -10 2 -28 -2 -40 -9
-17 -9 -22 -9 -27 3 -3 8 -10 15 -16 15 -6 0 -8 -5 -4 -11 4 -7 -1 -7 -16 1
-17 9 -20 17 -15 38 4 15 12 30 18 34 7 4 -2 8 -20 8 -18 0 -34 3 -34 8 -7 36
-5 58 5 65 6 5 -1 7 -17 4 -26 -4 -26 -3 -12 13 20 22 19 36 -1 19 -14 -12
-20 -9 -46 21 -16 20 -27 43 -24 53 2 9 1 15 -4 12 -4 -3 -11 -21 -15 -41 -7
-39 -43 -96 -56 -89 -15 10 -20 -30 -4 -41 14 -10 13 -12 -5 -17 -13 -3 -20
-13 -20 -30 0 -17 -7 -27 -22 -31 -34 -9 -68 -7 -65 3 1 5 -1 9 -5 10 -22 3
-29 0 -23 -9 3 -5 -1 -10 -9 -10 -9 0 -16 7 -16 15 0 8 7 15 15 15 8 0 15 7
15 15 0 8 -6 15 -14 15 -8 0 -17 9 -21 19 -4 13 -12 18 -22 14 -14 -5 -14 -7
1 -15 28 -16 17 -27 -16 -17 -41 11 -38 12 -38 -5 0 -8 12 -17 28 -21 15 -4
21 -10 14 -12 -6 -3 -10 -10 -6 -16 3 -7 0 -5 -8 4 -7 9 -19 14 -27 11 -11 -4
-11 -6 0 -13 11 -7 11 -9 -1 -9 -9 0 -26 7 -38 16 -12 8 -22 10 -22 5 0 -6
-19 -11 -42 -11 -40 -1 -42 -2 -24 -15 11 -8 28 -15 37 -15 20 0 51 -28 44
-39 -2 -5 7 -7 20 -5 14 1 25 -2 25 -7 0 -9 -7 -11 -35 -11 -42 0 -47 2 -42
22 3 11 1 18 -4 14 -5 -3 -9 -11 -9 -19 0 -7 -12 -16 -27 -20 -27 -8 -26 -9
20 -22 42 -13 49 -12 63 1 15 16 85 18 100 3 4 -4 3 -7 -2 -7 -17 0 -13 -41 4
-47 29 -11 31 -26 6 -39 -16 -9 -33 -10 -47 -5 -23 9 -93 1 -115 -13 -7 -4
-18 -4 -24 1 -7 4 -34 9 -61 10 -48 1 -77 -14 -77 -42 0 -18 26 -9 34 11 8 22
26 17 36 -12 11 -29 35 -28 35 2 0 15 6 18 30 16 17 -2 36 -9 43 -14 17 -15
15 -48 -4 -48 -10 0 -14 5 -10 16 3 8 2 12 -4 9 -6 -3 -10 -1 -10 4 0 6 -4 11
-10 11 -5 0 -10 -6 -10 -13 0 -14 -40 -37 -65 -37 -8 0 -15 6 -15 13 0 9 -2 9
-9 -1 -10 -16 -9 -62 2 -62 4 0 22 1 40 1 l32 2 -35 7 c-31 6 -32 8 -8 9 15 0
38 -3 51 -8 17 -7 37 -5 63 4 22 8 31 14 22 15 -21 0 -22 4 -7 31 7 15 7 24
-1 34 -16 19 -4 35 26 35 32 0 67 -39 52 -58 -7 -8 -15 -9 -22 -3 -7 6 -16 4
-24 -5 -11 -12 -7 -14 22 -14 28 0 37 -5 49 -29 13 -25 12 -29 -4 -40 -25 -15
-24 -37 1 -44 36 -9 21 -27 -23 -27 -31 0 -49 -6 -61 -19 -13 -14 -26 -18 -49
-14 -80 12 -99 -19 -102 -167 -1 -47 -2 -105 -3 -129 l-2 -45 -28 27 c-15 15
-35 27 -43 28 -10 0 -10 2 -1 6 14 6 16 33 2 33 -5 0 -10 12 -10 28 0 21 2 24
10 12 8 -13 10 -13 10 1 0 9 -7 20 -16 23 -12 4 -13 10 -6 19 7 8 6 24 -4 52
-7 22 -14 48 -14 58 0 9 -5 17 -11 17 -5 0 -7 -4 -4 -10 3 -6 -1 -7 -10 -4
-11 5 -15 14 -11 28 4 15 -3 29 -24 48 -35 31 -38 58 -10 83 11 10 18 21 15
25 -2 4 -5 37 -6 74 l-2 66 -72 -1 c-40 -1 -79 2 -86 6 -9 6 -11 3 -6 -8 5
-13 2 -15 -16 -8 -12 4 -27 6 -32 4 -6 -2 -11 6 -12 16 -1 14 3 18 15 15 15
-5 15 -4 -1 9 -12 10 -15 17 -7 22 6 4 9 13 6 20 -3 9 2 11 17 8 21 -4 21 -4
4 10 -16 13 -15 15 10 15 32 0 53 -14 53 -35 0 -8 -5 -11 -12 -7 -10 5 -10 4
-1 -6 9 -10 16 -9 34 4 13 9 31 16 41 16 10 0 18 4 18 8 0 5 6 9 13 10 168 22
202 34 133 47 -31 6 -33 9 -26 33 5 22 12 26 33 24 15 -1 27 0 27 4 0 11 -45
43 -61 44 -24 0 -13 56 12 56 10 0 19 -5 19 -11 0 -6 3 -6 8 1 6 10 45 17 171
29 68 6 63 18 -6 13 -49 -3 -63 -1 -63 9 0 11 -4 11 -22 -1 -12 -9 -29 -16
-38 -16 -13 0 -13 1 0 10 11 7 1 9 -32 6 -27 -2 -46 0 -42 5 3 5 14 9 25 9 23
0 25 15 4 24 -20 7 -19 24 3 29 13 4 11 5 -5 6 -17 1 -23 -5 -24 -21 -1 -17
-2 -19 -6 -5 -2 9 -12 17 -21 16 -11 0 -12 -2 -4 -6 17 -7 15 -23 -3 -23 -9 0
-12 -6 -8 -16 4 -10 1 -15 -8 -14 -8 1 -23 2 -34 1 -27 -2 -7 -19 30 -24 28
-4 27 -4 -7 -6 -39 -1 -73 22 -64 45 4 11 2 11 -14 2 -16 -10 -22 -8 -40 11
-22 26 -27 51 -9 51 5 0 7 6 3 13 -6 9 -5 9 8 0 12 -11 17 -9 26 13 16 34 15
36 -8 24 -12 -6 -30 -8 -42 -4 -16 5 -20 3 -15 -10 3 -8 2 -18 -4 -22 -6 -4
-7 -10 0 -17 5 -7 11 -23 13 -37 1 -13 14 -30 26 -36 17 -8 20 -13 10 -17 -9
-4 -6 -8 10 -12 18 -6 22 -15 22 -46 0 -22 5 -39 11 -39 6 0 8 9 3 22 -6 20
-5 21 10 9 10 -8 14 -22 11 -35 -3 -12 -2 -15 1 -8 9 20 26 14 19 -7 -4 -13 0
-23 12 -30 10 -6 14 -11 8 -12 -5 0 0 -4 11 -7 18 -6 19 -9 9 -19 -10 -9 -23
-2 -63 36 -51 49 -82 68 -82 51 0 -6 9 -10 21 -10 15 0 19 -4 15 -16 -3 -9 -6
-19 -6 -23 0 -10 -70 2 -91 15 -14 8 -19 10 -51 12 -10 1 -15 8 -12 15 3 10
-5 12 -31 9 -30 -4 -35 -1 -35 17 0 12 -3 21 -7 21 -14 0 -31 -49 -26 -70 4
-15 0 -20 -15 -20 -22 0 -23 1 -45 105 -32 148 -49 220 -54 228 -3 4 -11 3
-18 -3 -20 -17 -28 19 -10 46 20 30 19 40 -1 20 -8 -9 -20 -14 -25 -11 -16 10
-10 33 11 40 26 8 26 25 -1 25 -11 0 -38 18 -59 40 -35 36 -36 40 -20 55 9 8
22 15 28 15 6 0 12 8 14 17 3 15 4 15 19 0 12 -11 19 -13 27 -5 17 17 139 37
151 25 7 -7 12 -5 17 6 8 21 20 22 28 2z m-943 -22 c13 -16 12 -17 -3 -4 -17
13 -22 21 -14 21 2 0 10 -8 17 -17z m2429 -7 c0 -33 -37 -76 -66 -76 -19 0
-24 5 -24 25 0 29 34 36 44 9 3 -8 11 -12 17 -8 8 4 7 9 -2 15 -11 8 -10 13 6
26 16 13 17 15 3 10 -20 -7 -25 9 -5 16 23 10 27 7 27 -17z m-960 -34 c19 -17
19 -18 0 -18 -10 0 -16 4 -13 9 3 5 -5 6 -18 2 -21 -7 -22 -6 -10 9 17 20 18
20 41 -2z m-1408 -114 c-11 -11 -44 1 -36 13 3 5 0 9 -6 9 -7 0 -6 5 2 14 11
11 16 10 31 -7 9 -11 14 -24 9 -29z m93 -19 c11 -16 1 -19 -13 -3 -7 8 -8 14
-3 14 5 0 13 -5 16 -11z m-35 -59 c0 -5 -2 -10 -4 -10 -3 0 -8 5 -11 10 -3 6
-1 10 4 10 6 0 11 -4 11 -10z m297 -105 c-5 -39 -17 -60 -17 -29 0 23 11 64
16 64 3 0 3 -16 1 -35z m336 10 c-3 -9 1 -15 8 -15 10 0 10 -3 1 -12 -9 -9
-15 -9 -23 -1 -13 13 -2 56 11 48 5 -3 7 -12 3 -20z m-708 5 c3 -5 -1 -10 -9
-10 -9 0 -16 5 -16 10 0 6 4 10 9 10 6 0 13 -4 16 -10z m100 -8 c8 -23 0 -24
-18 -4 -14 15 -15 19 -2 19 8 0 17 -7 20 -15z m627 -54 c-6 -6 -15 -8 -19 -4
-4 4 -1 11 7 16 19 12 27 3 12 -12z m-667 2 c3 -5 2 -10 -4 -10 -5 0 -13 5
-16 10 -3 6 -2 10 4 10 5 0 13 -4 16 -10z m1809 -6 c11 -27 7 -37 -9 -24 -16
14 -20 40 -6 40 5 0 12 -7 15 -16z m-1786 -32 c3 -9 -2 -13 -14 -10 -9 1 -19
9 -22 16 -3 9 2 13 14 10 9 -1 19 -9 22 -16z m17 -52 c2 -4 -3 -14 -12 -21
-15 -12 -16 -12 -10 4 3 9 2 18 -3 18 -6 1 -16 2 -22 3 -7 0 -14 9 -16 18 -3
16 -1 16 27 2 17 -8 33 -19 36 -24z m1135 1 c0 -23 -62 -28 -80 -6 -11 13 -6
15 34 15 25 0 46 -4 46 -9z m-853 -43 c-3 -7 -5 -2 -5 12 0 14 2 19 5 13 2 -7
2 -19 0 -25z m843 2 c0 -5 -8 -10 -17 -10 -15 0 -16 2 -3 10 19 12 20 12 20 0z
m-653 -40 c1 -11 -4 -20 -12 -20 -7 0 -12 -7 -11 -16 0 -9 -5 -19 -13 -22 -10
-3 -11 2 -6 19 4 13 13 27 19 31 6 4 7 8 3 8 -10 0 1 20 11 20 4 0 8 -9 9 -20z
m120 -39 c-10 -12 -9 -13 3 -6 11 6 12 5 5 -3 -7 -7 -21 -9 -39 -4 l-29 8 28
22 c21 17 30 19 36 10 4 -7 2 -19 -4 -27z m-587 9 c0 -13 -5 -18 -15 -14 -8 4
-15 12 -15 20 0 8 7 14 15 14 8 0 15 -9 15 -20z m806 8 c5 -7 3 -8 -7 -3 -12
8 -12 6 0 -8 9 -11 10 -17 2 -17 -6 0 -14 0 -18 -1 -4 0 -10 9 -15 20 -6 17
-3 21 12 21 10 0 22 -5 26 -12z m334 -8 c0 -5 -5 -10 -11 -10 -5 0 -7 5 -4 10
3 6 8 10 11 10 2 0 4 -4 4 -10z m1045 -15 l30 -24 -25 0 c-14 0 -43 3 -65 8
l-40 7 30 17 c38 21 35 21 70 -8z m-2998 -22 c-8 -7 -37 9 -31 19 3 5 12 4 20
-3 8 -6 13 -14 11 -16z m-527 13 c0 -3 -4 -8 -10 -11 -5 -3 -10 -1 -10 4 0 6
5 11 10 11 6 0 10 -2 10 -4z m1290 -24 c-17 -6 -42 7 -35 18 4 6 13 5 26 -3
10 -6 15 -13 9 -15z m2180 -7 c11 -13 10 -14 -4 -9 -9 3 -16 10 -16 15 0 13 6
11 20 -6z m-2150 -5 c0 -5 -8 -10 -17 -10 -15 0 -16 2 -3 10 19 12 20 12 20 0z
m2255 -8 c21 -17 22 -19 6 -29 -13 -8 -26 -7 -48 2 -46 20 -49 33 -5 29 28 -3
32 -2 17 5 -11 5 -14 10 -7 10 8 1 24 -7 37 -17z m-1720 -13 c4 -6 5 -13 2
-16 -8 -7 -47 7 -47 18 0 13 37 11 45 -2z m257 -1 c-9 -9 -15 -9 -24 0 -9 9
-7 12 12 12 19 0 21 -3 12 -12z m1358 -2 c35 -14 20 -29 -15 -15 -11 4 -15 8
-10 9 6 1 -1 6 -15 10 -14 5 -18 8 -9 9 9 1 31 -5 49 -13z m-2390 -17 c0 -5
-4 -9 -10 -9 -5 0 -10 7 -10 16 0 8 5 12 10 9 6 -3 10 -10 10 -16z m206 9 c4
-7 4 -10 -1 -6 -4 4 -14 1 -22 -7 -15 -16 -43 -20 -43 -7 0 27 53 43 66 20z
m-988 -43 c-3 -3 -9 2 -12 12 -6 14 -5 15 5 6 7 -7 10 -15 7 -18z m1521 -7
c15 -24 21 -28 21 -15 0 25 34 18 38 -8 4 -20 4 -20 -13 0 -12 14 -15 15 -12
4 3 -10 -1 -16 -11 -16 -21 0 -43 17 -37 27 3 5 -4 11 -15 15 -23 7 -27 25 -6
25 8 0 23 -15 35 -32z m1602 13 c-12 -8 -51 -4 -51 5 0 2 15 4 33 4 22 0 28
-3 18 -9z m69 -11 c0 -4 -11 -5 -25 -2 -14 2 -23 8 -20 12 6 10 45 1 45 -10z
m-3064 -5 c-16 -9 -34 -14 -40 -11 -6 2 0 8 14 14 39 16 59 14 26 -3z m872 7
c13 -9 6 -68 -9 -78 -5 -3 -6 -10 -3 -16 4 -7 -2 -8 -17 -3 -31 10 -30 7 -36
53 -4 33 -2 41 13 45 30 7 38 7 52 -1z m662 -2 c0 -5 -2 -10 -4 -10 -3 0 -8 5
-11 10 -3 6 -1 10 4 10 6 0 11 -4 11 -10z m-1700 -19 c0 -5 -15 -11 -32 -15
-26 -5 -30 -9 -18 -16 13 -8 12 -10 -2 -10 -21 0 -24 -25 -5 -37 6 -4 20 -6
30 -5 9 2 17 -2 17 -8 0 -7 7 -7 23 2 33 20 115 17 120 -4 4 -12 -4 -17 -32
-21 -77 -12 -176 -44 -175 -58 1 -27 36 -324 42 -369 5 -32 12 -46 26 -48 11
-3 16 0 12 7 -5 7 3 11 21 11 22 0 25 -2 13 -10 -12 -8 -11 -10 7 -10 12 0 23
5 25 12 3 9 8 9 19 0 8 -7 24 -21 36 -31 34 -27 11 -51 -56 -57 -59 -6 -111
-27 -111 -47 0 -6 -5 -4 -11 6 -13 22 -94 23 -135 2 -53 -27 -92 -11 -60 24 9
10 16 23 16 30 0 7 5 9 12 5 8 -5 9 -2 5 10 -5 13 0 18 23 23 16 3 27 9 24 14
-3 5 -3 9 0 9 2 0 13 3 23 6 15 5 16 4 3 -6 -13 -10 -13 -11 0 -7 8 2 15 12
15 23 0 10 5 28 12 39 9 16 7 28 -8 59 -10 21 -20 54 -21 72 -1 18 -6 30 -10
28 -4 -3 -8 17 -8 45 0 27 -4 53 -10 56 -5 3 -10 28 -10 56 l0 49 -42 -6 c-24
-4 -53 -11 -66 -15 -42 -16 -80 -10 -96 13 -19 27 -21 72 -3 86 17 14 165 45
188 39 10 -3 20 1 23 9 3 8 12 14 20 14 8 0 16 5 18 12 3 8 12 9 35 0 25 -8
31 -8 27 2 -3 7 9 16 28 22 34 10 48 9 48 -5z m60 -11 c0 -5 -5 -10 -11 -10
-5 0 -7 5 -4 10 3 6 8 10 11 10 2 0 4 -4 4 -10z m20 -18 c18 2 34 -1 36 -7 2
-6 -17 -10 -46 -10 -42 0 -50 3 -50 19 0 14 3 16 14 7 7 -6 28 -10 46 -9z
m740 11 c-1 -38 -14 -53 -46 -53 -19 0 -34 3 -34 8 1 10 30 48 30 38 0 -4 8
-2 18 3 21 12 32 14 32 4z m438 -13 c16 -18 33 -21 130 -23 76 -1 112 -6 112
-13 0 -7 -12 -15 -27 -19 -25 -6 -26 -8 -9 -17 10 -5 29 -8 42 -5 16 3 24 0
24 -9 0 -10 -14 -14 -45 -14 -24 0 -78 -5 -120 -11 l-75 -11 0 -43 c0 -29 -5
-45 -15 -49 -18 -7 -20 -40 -2 -53 33 -26 184 -4 208 30 10 14 34 -5 34 -25 0
-10 5 -18 10 -18 6 0 10 9 10 19 0 31 10 33 54 10 40 -21 41 -22 41 -75 0 -30
-4 -54 -10 -54 -5 0 -10 9 -10 20 0 25 -13 25 -47 3 -19 -13 -28 -14 -31 -5
-2 6 -10 12 -17 12 -8 0 -11 7 -8 20 5 19 4 19 -25 5 -16 -9 -35 -22 -42 -30
-15 -18 -31 -20 -27 -3 1 8 -11 11 -38 9 -52 -4 -51 -4 -59 -50 -5 -30 -10
-39 -21 -35 -12 5 -15 -2 -15 -31 0 -31 3 -36 18 -30 60 25 211 49 239 38 20
-8 16 -23 -6 -23 -31 0 -35 -19 -5 -26 23 -6 24 -8 9 -16 -9 -6 -54 -18 -99
-27 -44 -10 -104 -28 -131 -42 -63 -30 -83 -27 -89 14 -9 61 -27 243 -34 347
-5 75 -12 112 -24 130 -10 13 -18 28 -18 32 0 15 78 85 97 88 1 0 11 -9 21
-20z m258 -3 c4 -4 -5 -7 -19 -7 -15 0 -27 4 -27 8 0 10 36 9 46 -1z m204 -17
c11 -6 26 -33 35 -62 19 -64 19 -68 0 -68 -20 0 -19 -12 3 -41 10 -13 24 -37
30 -54 18 -45 41 -188 35 -218 -5 -26 9 -38 21 -18 11 17 105 41 161 41 42 0
64 -5 82 -20 14 -11 32 -20 39 -20 17 0 18 -24 2 -38 -12 -9 -53 -18 -134 -27
-56 -7 -127 -25 -140 -36 -8 -6 -14 -18 -14 -27 0 -12 -9 -14 -47 -8 -42 6
-83 28 -83 46 0 4 12 20 26 35 29 32 28 61 -7 141 -12 25 -27 81 -34 123 -8
42 -16 87 -19 101 -6 21 -5 22 3 5 9 -19 10 -19 10 3 1 12 -6 39 -14 59 -20
48 -19 80 3 86 9 3 18 5 20 6 2 0 12 -4 22 -9z m170 -72 c0 -6 -7 -5 -15 2 -8
7 -15 17 -15 22 0 6 7 5 15 -2 8 -7 15 -17 15 -22z m-940 12 c0 -5 -4 -10 -10
-10 -5 0 -10 5 -10 10 0 6 5 10 10 10 6 0 10 -4 10 -10z m1475 -40 c-3 -5 -12
-10 -18 -10 -7 0 -6 4 3 10 19 12 23 12 15 0z m-565 -19 c0 -12 -20 -25 -27
-18 -7 7 6 27 18 27 5 0 9 -4 9 -9z m35 -11 c3 -5 -1 -10 -9 -10 -9 0 -16 5
-16 10 0 6 4 10 9 10 6 0 13 -4 16 -10z m-276 -36 c7 -19 10 -38 7 -41 -3 -4
-6 -1 -6 5 0 7 -10 12 -22 12 -23 0 -48 12 -51 23 -3 8 35 36 48 37 6 0 17
-16 24 -36z m-1518 -9 c24 -14 51 -25 60 -25 8 0 24 -7 35 -15 18 -14 18 -14
-6 -9 -14 3 -38 8 -55 12 -16 3 -35 12 -42 21 -17 24 -28 5 -13 -24 7 -14 11
-28 7 -31 -10 -11 -50 34 -44 50 3 9 2 18 -4 21 -10 7 -3 25 11 25 4 0 28 -11
51 -25z m1776 4 c9 -9 11 -15 3 -23 -5 -5 -10 -14 -10 -19 0 -5 7 -1 16 7 8 9
20 14 25 11 5 -4 9 -2 9 4 0 5 -6 11 -12 14 -7 2 -10 8 -5 12 13 15 31 -13 36
-57 1 -3 9 -8 19 -10 13 -3 9 -8 -16 -22 -33 -17 -43 -15 -72 14 -3 3 -14 10
-25 16 -11 6 -28 25 -38 43 l-19 31 37 -5 c21 -2 44 -10 52 -16z m-2197 -9 c0
-5 -7 -10 -15 -10 -8 0 -15 5 -15 10 0 6 7 10 15 10 8 0 15 -4 15 -10z m594
-11 c-3 -5 -10 -7 -15 -3 -5 3 -7 10 -3 15 3 5 10 7 15 3 5 -3 7 -10 3 -15z
m1761 -1 c5 4 5 1 1 -6 -6 -10 -11 -10 -22 -1 -8 6 -14 14 -14 16 0 3 6 0 13
-6 8 -6 18 -7 22 -3z m-2040 -37 c5 -36 -9 -48 -30 -27 -20 19 -19 36 2 52 22
15 23 14 28 -25z m31 9 c1 -16 -3 -27 -8 -24 -5 3 -7 12 -4 20 3 8 1 14 -4 14
-6 0 -10 5 -10 10 0 6 6 10 13 10 7 0 13 -13 13 -30z m184 -27 c0 -22 -25 -43
-52 -43 l-31 0 21 23 c12 13 20 26 17 29 -3 3 6 3 20 1 14 -3 25 -7 25 -10z
m55 7 c3 -5 0 -10 -7 -10 -9 0 -9 -3 2 -10 13 -9 13 -10 0 -10 -8 0 -21 9 -28
20 -11 17 -10 20 7 20 11 0 23 -4 26 -10z m50 1 c3 -5 1 -12 -4 -15 -5 -3 -11
1 -15 9 -6 16 9 21 19 6z m1526 -37 c9 -5 10 -2 6 10 -6 14 -4 15 14 5 21 -11
21 -11 -6 -25 -34 -17 -36 -17 -29 1 4 8 1 15 -5 15 -6 0 -11 10 -10 23 l0 22
9 -21 c5 -12 14 -25 21 -30z m-1495 -42 c-3 -3 -6 2 -6 11 0 8 -5 17 -11 19
-6 2 -7 11 -3 23 7 17 9 15 17 -14 4 -18 6 -36 3 -39z m-296 38 c0 -12 -28
-25 -36 -17 -9 9 6 27 22 27 8 0 14 -5 14 -10z m44 -6 c7 -17 0 -34 -13 -34
-5 0 -8 11 -8 25 0 28 12 33 21 9z m192 -39 c-13 -20 -13 -24 -1 -29 19 -7 19
-22 1 -29 -11 -4 -13 -1 -9 10 4 10 2 14 -5 9 -19 -11 -25 14 -8 33 9 10 16
22 15 27 -1 5 -1 16 0 24 1 12 4 11 12 -3 8 -13 7 -24 -5 -42z m1681 38 c2 -6
-4 -13 -13 -17 -21 -8 -39 15 -21 26 15 9 30 5 34 -9z m-1707 -24 c0 -13 -5
-17 -17 -12 -11 4 -14 3 -9 -5 4 -7 3 -12 -2 -12 -5 0 -9 13 -8 28 1 22 5 28
19 24 9 -2 17 -13 17 -23z m2188 24 c-10 -2 -26 -2 -35 0 -10 3 -2 5 17 5 19
0 27 -2 18 -5z m-2288 -38 c10 -12 6 -18 -19 -33 l-31 -19 40 -12 c28 -8 38
-16 34 -26 -7 -18 -34 -20 -34 -2 0 7 -10 17 -22 22 -14 6 -22 17 -20 28 2 12
-4 17 -18 17 -13 0 -18 4 -14 11 3 6 15 9 25 6 12 -3 19 0 19 9 0 18 24 18 40
-1z m-122 -25 c12 0 13 -3 4 -12 -7 -7 -12 -19 -11 -27 0 -11 2 -12 6 -3 7 17
48 15 64 -4 11 -14 10 -19 -8 -34 -12 -9 -21 -25 -20 -35 1 -12 -7 -21 -27
-26 -26 -7 -28 -6 -24 19 3 18 -3 35 -16 47 -19 20 -19 20 -11 0 14 -36 17
-63 8 -68 -5 -4 -10 -1 -11 6 -1 7 -6 32 -11 57 -6 25 -10 59 -9 75 l0 30 7
-27 c4 -20 10 -25 20 -19 8 5 11 16 8 24 -3 8 -3 18 1 22 4 4 8 0 10 -9 2 -9
11 -16 20 -16z m777 20 c3 -5 1 -10 -5 -10 -7 0 -10 -6 -7 -14 3 -8 -2 -16
-14 -19 -23 -6 -25 6 -4 23 8 7 12 16 9 21 -3 5 -1 9 5 9 5 0 13 -4 16 -10z
m675 0 c0 -5 -5 -10 -11 -10 -8 0 -7 -5 2 -16 10 -13 10 -17 -2 -24 -21 -14
-31 3 -20 33 10 26 31 37 31 17z m-1276 -32 c-5 -8 -44 -11 -44 -4 0 2 3 11 6
20 5 12 9 13 24 4 10 -7 16 -16 14 -20z m1386 12 c0 -5 -4 -10 -10 -10 -5 0
-10 5 -10 10 0 6 5 10 10 10 6 0 10 -4 10 -10z m-1220 -15 c0 -8 -4 -15 -10
-15 -5 0 -10 -5 -10 -10 0 -6 -11 -23 -25 -38 -21 -21 -24 -23 -19 -7 4 11 15
25 23 32 11 8 12 12 4 13 -7 0 -13 5 -13 11 0 5 5 7 12 3 8 -5 9 -2 5 9 -5 12
-1 17 13 17 11 0 20 -7 20 -15z m183 1 c15 -4 27 -13 27 -22 0 -9 5 -12 13 -8
10 6 10 4 0 -7 -17 -18 -16 -30 1 -23 11 4 13 0 9 -15 -7 -28 -22 -36 -29 -17
-3 9 -10 13 -16 10 -5 -4 -5 -11 2 -19 8 -9 5 -14 -10 -18 -13 -3 -20 0 -20 8
0 8 -6 20 -13 27 -16 15 -31 81 -21 91 3 3 11 4 17 2 7 -2 24 -6 40 -9z m1657
-28 c0 -5 -4 -8 -10 -8 -5 0 -10 10 -10 23 0 18 2 19 10 7 5 -8 10 -18 10 -22z
m-590 8 c0 -2 -8 -10 -17 -17 -16 -13 -17 -12 -4 4 13 16 21 21 21 13z m-150
-20 c0 -2 -7 -7 -16 -10 -8 -3 -12 -2 -9 4 6 10 25 14 25 6z m650 -26 c0 -5
-9 -6 -20 -3 -11 3 -20 9 -20 13 0 5 9 6 20 3 11 -3 20 -9 20 -13z m279 -4 c9
-10 8 -15 -4 -20 -10 -4 -15 1 -15 14 0 24 4 25 19 6z m-2284 -16 c-3 -5 -11
-10 -16 -10 -6 0 -7 5 -4 10 3 6 11 10 16 10 6 0 7 -4 4 -10z m1015 -20 c0 -5
-4 -10 -10 -10 -5 0 -10 5 -10 10 0 6 5 10 10 10 6 0 10 -4 10 -10z m1315 0
c3 -6 -1 -7 -9 -4 -18 7 -21 14 -7 14 6 0 13 -4 16 -10z m-848 -6 c-3 -3 -12
-4 -19 -1 -8 3 -5 6 6 6 11 1 17 -2 13 -5z m838 -14 c3 -5 1 -10 -4 -10 -6 0
-11 5 -11 10 0 6 2 10 4 10 3 0 8 -4 11 -10z m55 6 c0 -11 -19 -15 -25 -6 -3
5 1 10 9 10 9 0 16 -2 16 -4z m-2370 -10 c0 -11 -19 -15 -25 -6 -3 5 1 10 9
10 9 0 16 -2 16 -4z m2271 -6 c12 0 12 -37 -1 -45 -5 -3 -10 1 -10 11 0 9 -8
23 -17 31 -17 14 -17 14 0 9 10 -3 23 -6 28 -6z m-798 -7 c-7 -2 -19 -2 -25 0
-7 3 -2 5 12 5 14 0 19 -2 13 -5z m-1833 -42 c0 -22 -26 -35 -36 -19 -4 6 -3
8 3 5 6 -4 13 2 16 13 7 25 17 26 17 1z m2340 9 c0 -5 -4 -10 -10 -10 -5 0
-10 5 -10 10 0 6 5 10 10 10 6 0 10 -4 10 -10z m-1322 -14 c22 -8 43 -12 46
-9 3 4 6 2 6 -4 0 -16 -112 -26 -122 -11 -5 8 -1 18 9 26 20 15 13 15 61 -2z
m292 -1 c10 -12 10 -18 0 -30 -25 -30 -61 -7 -46 30 3 8 12 15 19 15 8 0 20
-7 27 -15z m469 0 c2 -2 6 -25 8 -50 5 -38 3 -44 -10 -39 -9 3 -24 1 -34 -5
-15 -9 -12 -10 20 -11 37 0 44 -9 31 -44 -3 -9 -12 -12 -22 -8 -15 5 -15 3 -4
-10 11 -14 8 -22 -19 -52 -24 -28 -39 -36 -64 -36 -19 0 -37 -5 -40 -10 -4 -6
-11 -8 -16 -5 -5 4 -9 -1 -9 -9 0 -9 -7 -16 -15 -16 -9 0 -15 9 -15 22 0 21 0
21 -15 2 -13 -17 -14 -17 -15 -2 0 15 9 67 26 146 2 12 11 22 19 22 7 0 17 5
21 12 5 8 2 9 -9 5 -14 -5 -17 0 -17 32 l0 38 63 15 c54 14 103 15 116 3z
m-1871 -50 c0 -14 -4 -25 -9 -25 -9 0 -10 6 -13 40 -1 8 -9 14 -19 12 -17 -3
-23 9 -11 21 13 12 52 -24 52 -48z m1908 18 c1 -32 -1 -34 -9 -16 -8 18 -5 53
5 53 2 0 3 -17 4 -37z m434 17 c0 -13 -32 -28 -49 -22 -7 2 -17 -2 -22 -9 -6
-10 -9 -11 -9 -1 0 17 -25 15 -40 -3 -7 -9 -15 -13 -18 -10 -3 3 -12 -1 -21
-7 -10 -8 -8 -3 4 12 29 36 37 41 62 37 12 -2 20 0 17 4 -3 5 13 9 35 9 23 0
41 -4 41 -10z m-2304 -48 c-15 -15 -16 -14 -16 17 0 30 1 31 16 16 16 -15 16
-18 0 -33z m3380 19 c-4 -5 0 -11 6 -13 8 -3 4 -9 -10 -17 -30 -16 -70 3 -51
25 12 15 64 20 55 5z m-2226 -12 c-12 -8 -12 -12 -2 -16 10 -4 8 -11 -9 -29
-12 -13 -17 -24 -11 -24 7 0 12 -4 12 -8 0 -15 -57 -6 -85 12 -16 11 -24 23
-21 32 4 11 2 12 -14 4 -26 -14 -28 -13 -22 15 4 24 7 25 86 25 60 0 77 -3 66
-11z m-1233 -21 c-3 -8 -6 -5 -6 6 -1 11 2 17 5 13 3 -3 4 -12 1 -19z m2178 1
l20 -8 -20 -1 c-11 0 -29 -3 -40 -5 -25 -6 -50 9 -41 24 7 11 38 7 81 -10z
m-1412 -10 c-4 -13 -9 -17 -15 -11 -11 11 -3 32 12 32 4 0 6 -9 3 -21z m1908
-54 c-4 -16 -6 -15 -11 10 -4 17 -4 37 -1 45 7 22 19 -30 12 -55z m-487 26 c3
-5 -1 -12 -10 -15 -24 -9 -46 -7 -39 3 3 5 -3 12 -12 14 -10 3 -1 5 19 6 20 0
39 -3 42 -8z m83 3 c-3 -3 -12 -4 -19 -1 -8 3 -5 6 6 6 11 1 17 -2 13 -5z
m-2197 -23 c0 -6 -4 -13 -10 -16 -5 -3 -10 1 -10 9 0 9 5 16 10 16 6 0 10 -4
10 -9z m757 -16 c6 -14 7 -23 2 -19 -13 8 -31 44 -22 44 4 0 13 -11 20 -25z
m2348 -2 c-3 -8 -5 -19 -5 -24 0 -6 -4 -7 -10 -4 -16 10 -12 42 5 42 10 0 14
-6 10 -14z m-435 -9 c0 -8 -19 -13 -24 -6 -3 5 1 9 9 9 8 0 15 -2 15 -3z m533
-17 c-3 -5 4 -19 16 -31 l21 -23 -25 -11 c-16 -8 -23 -17 -19 -25 5 -9 4 -9
-6 0 -7 6 -19 9 -28 6 -10 -4 -13 -2 -8 5 4 7 2 20 -3 29 -6 11 -11 13 -11 5
0 -20 -20 -3 -20 17 0 10 9 22 20 27 26 11 70 12 63 1z m-940 -33 c-27 -20
-39 -17 -17 5 10 10 23 16 27 14 5 -3 0 -11 -10 -19z m71 7 c6 -9 -25 -21 -53
-21 -11 0 -9 4 5 15 22 17 40 19 48 6z m-214 -21 c8 -5 11 -10 5 -10 -5 0 -17
5 -25 10 -8 5 -10 10 -5 10 6 0 17 -5 25 -10z m236 -32 c14 -17 15 -19 2 -10
-9 8 -29 17 -45 22 l-28 8 26 1 c15 1 34 -8 45 -21z m-147 3 c7 -5 10 -14 7
-20 -4 -6 -1 -11 8 -11 19 0 16 -52 -5 -73 -12 -11 -19 -11 -44 -1 -17 7 -25
13 -20 14 6 0 1 7 -10 16 -19 14 -19 15 8 38 15 13 27 28 27 35 0 13 10 14 29
2z m58 3 c-3 -3 -12 -4 -19 -1 -8 3 -5 6 6 6 11 1 17 -2 13 -5z m-123 -25
c-12 -13 -20 -16 -22 -9 -3 7 2 16 9 21 25 16 32 9 13 -12z m1096 11 c0 -5 -7
-10 -15 -10 -8 0 -15 5 -15 10 0 6 7 10 15 10 8 0 15 -4 15 -10z m-1204 -79
c-3 -5 5 -12 19 -15 24 -6 36 -26 15 -26 -5 0 -7 -7 -4 -15 8 -20 -35 -20 -62
0 -18 14 -18 14 6 15 14 1 20 4 14 6 -14 6 -6 44 8 44 5 0 7 -4 4 -9z"/>
<path d="M1771 3296 c-10 -12 -8 -13 8 -9 12 3 21 9 21 14 0 14 -16 11 -29 -5z"/>
<path d="M1740 3130 c0 -5 7 -10 16 -10 8 0 12 5 9 10 -3 6 -10 10 -16 10 -5
0 -9 -4 -9 -10z"/>
<path d="M1515 3060 c-3 -6 1 -7 9 -4 18 7 21 14 7 14 -6 0 -13 -4 -16 -10z"/>
<path d="M1750 2900 c0 -5 5 -10 11 -10 5 0 7 5 4 10 -3 6 -8 10 -11 10 -2 0
-4 -4 -4 -10z"/>
<path d="M2683 3302 c10 -10 17 -26 17 -36 0 -9 4 -15 9 -12 4 3 6 17 4 31 -3
13 -9 22 -14 19 -5 -3 -9 0 -9 5 0 6 -5 11 -12 11 -6 0 -4 -7 5 -18z"/>
<path d="M3010 3284 c0 -5 7 -18 15 -28 8 -11 15 -16 15 -10 0 5 -7 18 -15 28
-8 11 -15 16 -15 10z"/>
<path d="M2680 3225 c0 -7 6 -18 13 -22 6 -4 25 -27 41 -50 16 -24 31 -43 33
-43 6 0 -35 69 -54 91 -7 8 -13 21 -13 27 0 7 -4 12 -10 12 -5 0 -10 -7 -10
-15z"/>
<path d="M3100 3079 c0 -5 5 -7 10 -4 6 3 10 8 10 11 0 2 -4 4 -10 4 -5 0 -10
-5 -10 -11z"/>
<path d="M5180 3325 c0 -8 2 -15 4 -15 2 0 6 7 10 15 3 8 1 15 -4 15 -6 0 -10
-7 -10 -15z"/>
<path d="M5148 3303 c7 -3 16 -2 19 1 4 3 -2 6 -13 5 -11 0 -14 -3 -6 -6z"/>
<path d="M4865 3290 c-3 -6 1 -7 9 -4 18 7 21 14 7 14 -6 0 -13 -4 -16 -10z"/>
<path d="M4825 2980 c-13 -5 -14 -9 -5 -9 8 0 24 4 35 9 13 5 14 9 5 9 -8 0
-24 -4 -35 -9z"/>
<path d="M4525 2890 c-16 -17 -16 -20 -3 -15 9 4 19 13 22 21 7 19 2 18 -19
-6z"/>
<path d="M4870 2897 c18 -17 211 -89 218 -82 3 2 -1 7 -9 9 -24 8 -123 44
-154 56 -28 11 -28 13 -10 20 15 7 11 9 -20 9 -33 1 -37 -1 -25 -12z"/>
<path d="M4948 2903 c6 -2 18 -2 25 0 6 3 1 5 -13 5 -14 0 -19 -2 -12 -5z"/>
<path d="M5153 2883 c9 -2 23 -2 30 0 6 3 -1 5 -18 5 -16 0 -22 -2 -12 -5z"/>
<path d="M5208 2883 c6 -2 18 -2 25 0 6 3 1 5 -13 5 -14 0 -19 -2 -12 -5z"/>
<path d="M4335 2775 c-31 -32 -33 -46 -2 -17 13 12 28 22 35 22 6 0 14 5 17
10 13 21 -25 9 -50 -15z"/>
<path d="M5370 2740 c-45 -24 -28 -24 25 0 22 10 33 19 25 19 -8 0 -31 -8 -50
-19z"/>
<path d="M5289 2715 c19 -8 36 -13 39 -10 8 8 0 12 -38 19 l-35 7 34 -16z"/>
<path d="M4580 2619 c0 -5 5 -7 10 -4 6 3 10 8 10 11 0 2 -4 4 -10 4 -5 0 -10
-5 -10 -11z"/>
<path d="M4520 2585 c-7 -9 -10 -18 -7 -21 8 -8 28 6 23 15 -3 4 9 6 27 3 25
-3 29 -1 17 7 -21 15 -46 13 -60 -4z"/>
<path d="M5363 2525 c0 -7 6 -11 14 -8 7 3 13 6 13 8 0 2 -6 5 -13 8 -8 3 -14
-1 -14 -8z"/>
<path d="M5298 2433 c7 -3 16 -2 19 1 4 3 -2 6 -13 5 -11 0 -14 -3 -6 -6z"/>
<path d="M5158 2413 c6 -2 18 -2 25 0 6 3 1 5 -13 5 -14 0 -19 -2 -12 -5z"/>
<path d="M4485 3260 c-3 -5 -1 -10 4 -10 6 0 11 5 11 10 0 6 -2 10 -4 10 -3 0
-8 -4 -11 -10z"/>
<path d="M4298 3083 c7 -3 16 -2 19 1 4 3 -2 6 -13 5 -11 0 -14 -3 -6 -6z"/>
<path d="M2481 2843 c7 -12 15 -20 18 -17 3 2 -3 12 -13 22 -17 16 -18 16 -5
-5z"/>
<path d="M2580 2681 c0 -5 5 -13 10 -16 6 -3 10 -2 10 4 0 5 -4 13 -10 16 -5
3 -10 2 -10 -4z"/>
<path d="M2598 2633 c7 -3 16 -2 19 1 4 3 -2 6 -13 5 -11 0 -14 -3 -6 -6z"/>
<path d="M2630 2607 c0 -9 10 -14 25 -14 29 0 29 0 -2 16 -19 9 -23 9 -23 -2z"/>
<path d="M2620 2558 c-92 -43 -107 -47 -180 -52 -41 -2 -82 -7 -91 -11 -9 -3
-20 -29 -27 -65 -7 -33 -17 -60 -22 -60 -13 0 -13 -37 0 -45 6 -3 10 -2 10 3
0 5 12 7 28 5 58 -8 67 -9 75 -5 4 2 2 11 -5 20 -14 16 -15 16 52 -4 14 -5 20
-2 20 10 0 9 5 16 11 16 8 0 7 6 -2 18 -13 15 -12 16 4 3 9 -7 17 -23 17 -35
0 -16 2 -18 9 -7 5 8 14 10 22 6 9 -6 11 -3 6 8 -4 11 -1 17 8 17 7 0 15 -10
17 -22 2 -12 9 -24 17 -26 10 -3 12 0 7 14 -5 13 2 10 24 -11 17 -16 26 -31
20 -33 -21 -7 -9 -19 15 -14 15 2 25 0 25 -7 0 -6 -4 -11 -9 -11 -5 0 -8 -8
-7 -17 0 -11 -7 -19 -21 -20 -22 -3 -62 -9 -74 -12 -3 0 -6 -8 -6 -16 0 -11 4
-12 11 -5 5 5 26 10 46 10 40 0 60 14 60 43 0 13 5 17 15 13 25 -9 17 11 -12
33 -23 16 -24 20 -10 21 24 0 11 20 -13 20 -11 0 -34 13 -52 29 -29 26 -31 30
-16 36 10 4 32 2 50 -4 l33 -11 -25 20 c-21 16 -22 20 -7 20 10 0 27 -5 38
-11 12 -6 28 -7 37 -3 9 4 22 6 28 5 7 -1 9 9 6 25 -3 17 -7 22 -12 14 -4 -7
-13 -9 -20 -5 -9 6 -9 9 1 16 11 6 10 9 -4 15 -9 3 -14 10 -11 15 3 5 -2 9
-10 9 -19 0 -40 36 -26 45 12 7 14 25 3 24 -5 0 -28 -10 -53 -21z m-10 -68 c0
-5 6 -10 14 -10 20 0 29 -17 15 -26 -7 -4 -9 -3 -6 2 3 6 -10 11 -29 11 -41 1
-54 10 -34 23 20 13 40 12 40 0z m-170 -20 c0 -5 -4 -10 -10 -10 -5 0 -10 5
-10 10 0 6 5 10 10 10 6 0 10 -4 10 -10z m-64 -16 c-1 -18 39 -30 49 -14 8 12
25 13 25 1 0 -10 -47 -28 -76 -29 -15 0 -23 7 -27 23 -5 27 0 35 19 35 6 0 11
-7 10 -16z m92 -66 c-3 -7 -15 -15 -28 -16 -21 -3 -22 -2 -11 12 16 19 44 21
39 4z m-83 -29 c-4 -5 -15 -9 -25 -9 -16 0 -19 9 -11 38 1 1 10 -2 21 -8 11
-6 18 -15 15 -21z"/>
<path d="M2876 2526 c3 -8 13 -17 22 -21 13 -5 13 -2 -3 15 -21 24 -26 25 -19
6z"/>
<path d="M2920 2480 c0 -5 5 -10 11 -10 5 0 7 5 4 10 -3 6 -8 10 -11 10 -2 0
-4 -4 -4 -10z"/>
<path d="M2763 2470 c2 -8 12 -16 23 -17 13 -2 15 -1 4 4 -8 3 -19 11 -23 17
-6 7 -7 6 -4 -4z"/>
<path d="M2196 2405 c4 -8 8 -15 10 -15 2 0 4 7 4 15 0 8 -4 15 -10 15 -5 0
-7 -7 -4 -15z"/>
<path d="M2775 2400 c3 -5 8 -10 11 -10 2 0 4 5 4 10 0 6 -5 10 -11 10 -5 0
-7 -4 -4 -10z"/>
<path d="M2690 2389 c0 -9 7 -20 16 -23 10 -4 14 -14 11 -26 -5 -21 16 -45 31
-36 13 8 30 -15 27 -37 -2 -9 1 -15 6 -11 18 11 10 56 -11 61 -11 3 -20 10
-20 15 0 5 -13 23 -30 41 -21 23 -30 27 -30 16z"/>
<path d="M2146 2381 c-4 -6 -5 -15 -2 -20 8 -12 56 -20 56 -9 0 5 5 6 10 3 6
-3 10 -1 10 5 0 8 -9 10 -24 6 -17 -4 -28 -1 -34 10 -6 11 -11 13 -16 5z"/>
<path d="M2740 2257 c0 -18 -4 -26 -11 -21 -8 4 -8 0 0 -15 7 -11 18 -21 25
-21 8 0 16 -9 19 -19 3 -13 1 -18 -8 -14 -8 2 -18 -5 -25 -16 -7 -14 -7 -21 0
-21 5 0 10 5 10 10 0 6 10 8 23 5 17 -5 23 -2 24 12 1 10 2 23 3 28 1 6 2 21
0 35 -1 23 -2 23 -9 5 -7 -18 -10 -15 -29 20 -20 39 -21 39 -22 12z"/>
<path d="M2445 2221 c-16 -3 -39 -12 -50 -18 -19 -12 -19 -14 -2 -24 21 -12
14 -27 -19 -39 -27 -11 -30 -35 -11 -90 9 -24 10 -43 3 -61 -5 -14 -6 -34 -3
-43 6 -16 8 -16 23 -2 8 9 20 16 25 16 5 0 9 7 9 16 0 13 3 14 15 4 10 -8 12
-17 5 -29 -5 -10 -6 -28 -3 -41 5 -17 3 -21 -7 -15 -9 5 -11 4 -6 -4 4 -6 13
-8 19 -5 8 5 8 3 0 -7 -7 -7 -13 -17 -13 -21 0 -10 59 30 76 51 8 10 13 11 18
3 4 -7 13 -12 19 -12 7 0 4 5 -6 11 -14 8 -16 14 -6 25 10 12 9 13 -5 8 -25
-9 -80 44 -65 63 8 9 8 13 1 13 -6 0 -14 -4 -17 -10 -10 -16 -24 -12 -24 8 -2
52 -14 90 -27 85 -21 -8 -17 10 6 25 12 7 20 23 20 38 0 14 4 23 10 19 6 -4 7
-11 4 -17 -4 -6 -3 -9 2 -6 5 2 24 11 42 18 17 8 32 18 32 22 0 4 9 8 20 8 11
0 20 5 20 10 0 11 -56 11 -105 1z m52 -294 c-2 -6 -11 -15 -20 -21 -13 -8 -20
-7 -27 4 -7 11 -5 16 5 18 8 2 15 7 15 12 0 5 7 7 15 3 9 -3 14 -10 12 -16z"/>
<path d="M2158 2213 c6 -2 18 -2 25 0 6 3 1 5 -13 5 -14 0 -19 -2 -12 -5z"/>
<path d="M2460 2163 c0 -6 8 -17 18 -24 16 -13 16 -13 2 6 -8 11 -16 22 -17
24 -2 2 -3 0 -3 -6z"/>
<path d="M2500 2155 c7 -8 16 -15 21 -15 5 0 6 7 3 15 -4 8 -13 15 -21 15 -13
0 -13 -3 -3 -15z"/>
<path d="M2666 2147 c4 -7 13 -19 21 -29 11 -12 11 -18 2 -24 -7 -4 -17 0 -24
9 -19 26 -27 20 -10 -6 14 -22 12 -37 -7 -37 -4 0 -8 9 -8 19 0 11 -4 23 -10
26 -6 4 -7 -1 -3 -12 6 -16 5 -17 -12 -3 -18 14 -18 13 1 -18 l19 -34 -25 -20
c-23 -19 -24 -20 -3 -14 15 5 28 1 42 -13 30 -30 36 -26 12 7 l-20 29 20 17
c19 16 21 16 38 -5 12 -15 20 -19 25 -11 4 7 1 12 -9 12 -9 0 -13 5 -10 10 4
6 11 7 17 4 7 -5 8 -2 4 5 -5 7 -14 10 -22 7 -16 -6 -19 10 -3 19 12 8 51 -24
44 -36 -3 -4 3 -13 12 -19 17 -11 17 -11 1 -6 -22 7 -24 -10 -2 -18 8 -3 13
-9 10 -14 -2 -4 3 -8 13 -9 14 -1 18 6 18 38 0 27 -4 38 -12 35 -13 -4 -64 38
-66 54 -1 6 -2 15 -3 22 0 6 -13 15 -29 19 -19 5 -25 4 -21 -4z"/>
<path d="M2577 2113 c-4 -3 -7 -11 -7 -17 0 -6 5 -5 12 2 6 6 9 14 7 17 -3 3
-9 2 -12 -2z"/>
<path d="M2806 2097 c3 -10 9 -15 12 -12 3 3 0 11 -7 18 -10 9 -11 8 -5 -6z"/>
<path d="M2541 2083 c0 -11 59 -56 65 -51 2 3 -11 17 -31 32 -19 15 -35 23
-34 19z"/>
<path d="M3070 2000 c0 -5 7 -10 15 -10 8 0 15 5 15 10 0 6 -7 10 -15 10 -8 0
-15 -4 -15 -10z"/>
<path d="M3008 1973 c7 -3 16 -2 19 1 4 3 -2 6 -13 5 -11 0 -14 -3 -6 -6z"/>
<path d="M2397 1936 c-3 -8 -2 -18 3 -21 13 -8 20 9 11 24 -6 10 -10 9 -14 -3z"/>
<path d="M2450 1839 c0 -5 5 -7 10 -4 6 3 10 8 10 11 0 2 -4 4 -10 4 -5 0 -10
-5 -10 -11z"/>
<path d="M1960 1791 c0 -6 5 -13 10 -16 6 -3 10 1 10 9 0 9 -4 16 -10 16 -5 0
-10 -4 -10 -9z"/>
<path d="M2354 1726 c21 -17 56 -22 56 -8 0 4 -8 8 -17 8 -10 1 -27 4 -38 8
-20 8 -20 7 -1 -8z"/>
<path d="M2315 1640 c3 -5 10 -10 16 -10 5 0 9 5 9 10 0 6 -7 10 -16 10 -8 0
-12 -4 -9 -10z"/>
<path d="M2598 1629 c-14 -6 -29 -17 -32 -26 -9 -23 1 -28 20 -9 9 10 22 15
29 12 7 -2 15 4 18 15 6 21 4 22 -35 8z"/>
<path d="M2660 1575 c-10 -12 -10 -15 4 -15 9 0 16 7 16 15 0 8 -2 15 -4 15
-2 0 -9 -7 -16 -15z"/>
<path d="M3270 2626 c0 -9 5 -16 10 -16 6 0 10 4 10 9 0 6 -4 13 -10 16 -5 3
-10 -1 -10 -9z"/>
<path d="M3384 2383 c-3 -10 -11 -31 -19 -48 -26 -59 -26 -65 0 -65 13 0 27 5
30 10 4 6 12 10 18 9 38 -5 67 2 67 16 0 17 -67 95 -81 95 -6 0 -12 -8 -15
-17z"/>
<path d="M3936 2423 c-27 -4 -28 -6 -23 -47 4 -23 12 -56 18 -72 7 -16 11 -35
10 -41 -1 -7 3 -13 10 -13 6 0 9 8 6 20 -7 26 17 43 61 44 34 1 37 3 34 28 -2
23 1 26 20 21 20 -4 21 -3 5 7 -9 6 -29 22 -44 36 -25 23 -37 26 -97 17z m84
-46 c0 -2 -18 -18 -40 -36 -37 -30 -40 -30 -40 -11 0 12 5 18 10 15 6 -3 10
-2 10 4 0 7 22 19 58 30 1 1 2 0 2 -2z"/>
<path d="M4283 2324 c13 -13 -14 -44 -38 -44 -15 0 -26 -7 -30 -21 -5 -14 -13
-19 -25 -16 -24 6 -75 -46 -67 -67 4 -9 12 -16 19 -16 10 0 10 2 0 9 -10 6
-10 10 2 20 8 7 20 10 26 6 6 -4 9 -1 8 7 -2 9 9 13 36 15 21 0 43 7 50 13 8
10 6 12 -10 8 -13 -3 -21 0 -21 8 0 7 13 16 29 19 15 4 28 11 28 16 0 5 6 9
13 9 17 1 95 39 79 40 -7 0 -22 -6 -33 -12 -17 -10 -23 -10 -26 0 -3 6 -14 12
-25 12 -12 0 -18 -3 -15 -6z"/>
<path d="M3980 2145 c-7 -8 -19 -15 -27 -15 -11 0 -13 -9 -8 -42 9 -57 10 -58
55 -58 29 0 38 4 34 14 -3 8 3 16 15 19 25 6 28 27 4 27 -16 0 -16 2 -3 11 12
8 11 9 -5 6 -11 -2 -19 -8 -18 -14 1 -6 -11 -16 -28 -22 -28 -10 -30 -9 -24 7
4 9 8 23 8 29 0 7 9 15 19 19 11 3 17 11 15 17 -6 18 -23 19 -37 2z"/>
<path d="M4421 2120 c-13 -11 -19 -20 -13 -20 10 0 42 27 42 36 0 7 -4 5 -29
-16z"/>
<path d="M4200 2110 c0 -5 5 -10 10 -10 6 0 10 5 10 10 0 6 -4 10 -10 10 -5 0
-10 -4 -10 -10z"/>
<path d="M4070 2050 l-25 -8 26 -1 c14 -1 31 -7 38 -13 11 -11 11 -9 2 10 -6
12 -13 22 -14 21 -1 -1 -13 -5 -27 -9z"/>
<path d="M3968 2008 c9 -9 15 -9 24 0 9 9 7 12 -12 12 -19 0 -21 -3 -12 -12z"/>
<path d="M4140 1991 c0 -5 7 -12 16 -15 24 -9 28 -7 14 9 -14 17 -30 20 -30 6z"/>
<path d="M5440 1990 c-13 -9 -13 -10 0 -10 8 0 22 5 30 10 13 9 13 10 0 10 -8
0 -22 -5 -30 -10z"/>
<path d="M5360 1960 c-8 -5 -10 -10 -5 -10 6 0 17 5 25 10 8 5 11 10 5 10 -5
0 -17 -5 -25 -10z"/>
<path d="M4458 1913 c7 -3 16 -2 19 1 4 3 -2 6 -13 5 -11 0 -14 -3 -6 -6z"/>
<path d="M4385 1890 c-8 -13 -1 -24 14 -19 6 3 7 10 2 18 -6 10 -10 10 -16 1z"/>
<path d="M5496 1885 c-9 -26 -7 -32 5 -12 6 10 9 21 6 23 -2 3 -7 -2 -11 -11z"/>
<path d="M4590 1670 c0 -6 5 -10 10 -10 6 0 10 -7 10 -16 0 -14 3 -14 15 -4 9
7 14 18 12 23 -4 13 -47 20 -47 7z"/>
<path d="M2026 1162 c-4 -13 -5 -26 -2 -29 10 -11 18 4 14 29 l-4 23 -8 -23z"/>
<path d="M3590 1430 c0 -5 7 -10 16 -10 8 0 12 5 9 10 -3 6 -10 10 -16 10 -5
0 -9 -4 -9 -10z"/>
<path d="M3685 1400 c-3 -5 -1 -10 4 -10 6 0 11 5 11 10 0 6 -2 10 -4 10 -3 0
-8 -4 -11 -10z"/>
<path d="M2120 1301 c0 -5 7 -11 14 -14 10 -4 13 -1 9 9 -6 15 -23 19 -23 5z"/>
<path d="M3660 1005 c0 -8 4 -15 10 -15 5 0 7 7 4 15 -4 8 -8 15 -10 15 -2 0
-4 -7 -4 -15z"/>
<path d="M5175 1080 c-3 -5 -1 -10 4 -10 6 0 11 5 11 10 0 6 -2 10 -4 10 -3 0
-8 -4 -11 -10z"/>
<path d="M2915 1066 c17 -7 29 -16 28 -19 -6 -16 -2 -28 7 -22 10 6 2 36 -14
47 -6 4 -20 8 -31 7 -15 0 -13 -3 10 -13z"/>
<path d="M5040 910 c0 -5 5 -10 11 -10 5 0 7 5 4 10 -3 6 -8 10 -11 10 -2 0
-4 -4 -4 -10z"/>
<path d="M4012 838 c2 -6 10 -14 16 -16 7 -2 10 2 6 12 -7 18 -28 22 -22 4z"/>
<path d="M2930 3590 c0 -5 5 -10 10 -10 6 0 10 5 10 10 0 6 -4 10 -10 10 -5 0
-10 -4 -10 -10z"/>
</g>
</svg>
