<?xml version="1.0" standalone="no"?>
<!DOCTYPE svg PUBLIC "-//W3C//DTD SVG 20010904//EN"
 "http://www.w3.org/TR/2001/REC-SVG-20010904/DTD/svg10.dtd">
<svg version="1.0" xmlns="http://www.w3.org/2000/svg"
 width="300.000000pt" height="300.000000pt" viewBox="0 0 300.000000 300.000000"
 preserveAspectRatio="xMidYMid meet">

<g transform="translate(0.000000,300.000000) scale(0.100000,-0.100000)"
fill="#000000" stroke="none">
<path d="M0 2035 c0 -686 3 -965 11 -965 6 0 8 8 4 19 -3 11 -1 22 5 26 5 3 7
17 4 31 -4 16 -2 24 6 24 9 0 11 -22 7 -85 -3 -62 -1 -88 8 -95 14 -11 17 -97
4 -105 -4 -3 -3 -22 2 -42 5 -21 8 -49 8 -63 l0 -25 -22 28 -23 27 1 -24 c0
-14 6 -31 12 -38 7 -6 13 -17 13 -24 0 -6 6 -17 14 -23 30 -25 -1 -59 -46 -52
-5 0 -8 -145 -8 -324 l0 -325 580 0 c509 0 580 2 580 15 0 15 -44 21 -112 17
-20 -2 -28 3 -28 14 0 14 -7 15 -42 10 -24 -4 -52 -7 -63 -7 -11 0 -48 1 -82
1 -34 1 -68 -2 -75 -7 -20 -13 -58 -10 -58 4 0 7 -7 13 -15 13 -8 0 -15 5 -15
11 0 6 7 8 16 5 39 -15 60 -16 78 -3 18 13 16 14 -29 15 -26 1 -49 3 -52 5 -2
2 30 15 72 28 41 13 84 31 96 40 20 15 17 16 -58 13 -43 -2 -109 -10 -146 -18
-69 -14 -153 -10 -257 12 -25 5 -52 10 -60 10 -17 1 -66 10 -93 18 -22 7 -22
31 0 37 10 3 3 5 -15 6 -20 1 -31 -3 -27 -9 10 -16 -21 -12 -35 4 -8 10 -8 21
-2 32 10 17 105 63 133 64 9 0 20 7 23 16 3 8 9 13 14 10 4 -2 14 -1 22 4 11
7 8 10 -12 15 -15 4 -31 4 -36 2 -4 -3 -21 5 -38 19 -16 13 -23 23 -15 22 7
-2 15 2 18 8 4 13 -119 27 -155 18 -13 -4 -22 -2 -22 5 0 7 -5 9 -10 6 -5 -3
-10 -1 -10 5 0 6 -5 8 -10 5 -6 -3 -10 3 -10 14 0 12 5 18 13 16 6 -3 26 4 42
15 28 18 28 20 8 20 -25 0 -25 -1 -23 108 1 48 -3 79 -12 90 -11 13 -11 14 1
7 10 -6 12 -4 6 5 -12 20 -17 250 -5 250 5 0 10 -8 11 -17 0 -16 1 -15 8 2 9
24 2 144 -10 166 -4 9 -6 19 -2 23 8 8 7 175 -2 207 -4 17 -2 30 5 34 6 4 8
16 4 27 -5 17 -3 18 14 9 17 -9 19 -8 15 9 -3 11 -10 18 -17 17 -7 -1 -10 14
-8 46 2 26 0 47 -5 47 -5 0 -10 34 -11 76 -1 62 2 81 18 101 14 18 17 34 13
61 -3 20 -10 41 -14 47 -14 15 -10 123 6 161 16 40 17 234 1 234 -5 0 -3 6 3
14 16 19 23 93 11 101 -7 4 -6 13 0 26 7 13 7 19 0 19 -13 0 -13 57 0 65 6 4
3 17 -10 35 -11 16 -23 42 -26 59 -5 26 -3 31 12 32 17 0 17 2 -3 16 -13 8
-23 21 -23 28 0 8 -6 15 -12 18 -10 3 -11 13 -2 48 7 24 11 58 10 74 0 19 6
36 19 47 11 10 15 17 9 18 -18 0 -12 29 9 36 13 4 17 12 14 25 -5 20 18 39 48
39 13 0 15 -6 10 -30 -8 -34 8 -60 34 -59 11 0 12 2 3 6 -10 4 -8 9 7 20 12 8
26 11 31 8 6 -3 10 -1 10 4 0 6 -7 11 -16 11 -8 0 -12 5 -8 11 3 6 0 16 -7 21
-10 7 -8 8 9 5 12 -3 22 -1 22 4 0 13 26 11 68 -6 30 -13 34 -18 22 -26 -11
-8 -12 -12 -2 -16 6 -2 12 -12 13 -21 0 -12 3 -10 9 6 8 20 17 22 82 23 40 1
62 4 48 6 -45 9 -49 43 -5 43 13 0 26 6 29 13 5 9 7 9 12 0 3 -8 15 -11 30 -7
18 5 24 2 24 -10 0 -13 4 -15 17 -8 19 11 66 -5 57 -19 -3 -5 20 -9 51 -9 50
0 56 2 65 26 6 14 10 34 10 45 0 18 -11 19 -394 19 l-395 0 -1 -965z m450 895
c10 -19 9 -20 -17 -14 -42 10 -49 17 -27 25 29 12 32 11 44 -11z m-380 -90 c0
-5 -4 -10 -10 -10 -5 0 -10 5 -10 10 0 6 5 10 10 10 6 0 10 -4 10 -10z m-30
-155 c0 -8 -4 -15 -10 -15 -5 0 -10 7 -10 15 0 8 5 15 10 15 6 0 10 -7 10 -15z
m0 -55 c0 -5 -2 -10 -4 -10 -3 0 -8 5 -11 10 -3 6 -1 10 4 10 6 0 11 -4 11
-10z m4 -65 c-4 -8 -8 -15 -10 -15 -2 0 -4 7 -4 15 0 8 4 15 10 15 5 0 7 -7 4
-15z m12 -202 c-10 -10 -19 5 -10 18 6 11 8 11 12 0 2 -7 1 -15 -2 -18z m44 6
c0 -5 -4 -9 -10 -9 -5 0 -10 7 -10 16 0 8 5 12 10 9 6 -3 10 -10 10 -16z m-10
-1341 c0 -16 -3 -19 -11 -11 -6 6 -8 16 -5 22 11 17 16 13 16 -11z m-33 -434
c-3 -3 -12 -4 -19 -1 -8 3 -5 6 6 6 11 1 17 -2 13 -5z m64 -191 c0 -11 3 -13
6 -5 7 18 21 15 33 -8 9 -17 6 -25 -22 -50 -39 -36 -48 -37 -49 -7 l0 22 -10
-23 c-5 -15 -13 -20 -21 -16 -9 6 -9 9 1 12 11 4 11 6 0 13 -12 8 -12 11 1 18
8 5 18 7 22 5 4 -3 9 0 9 5 1 6 3 16 4 21 1 6 3 15 4 20 2 17 21 11 22 -7z
m-62 -276 c13 -16 5 -27 -20 -27 -12 0 -16 6 -12 20 6 23 16 25 32 7z m536 -7
c-3 -5 -11 -10 -16 -10 -6 0 -7 5 -4 10 3 6 11 10 16 10 6 0 7 -4 4 -10z
m-475 -21 c0 -11 -27 -12 -34 -1 -2 4 4 9 15 9 10 1 19 -2 19 -8z"/>
<path d="M910 2979 c0 -11 5 -17 10 -14 6 3 10 13 10 21 0 8 -4 14 -10 14 -5
0 -10 -9 -10 -21z"/>
<path d="M970 2975 c0 -18 5 -25 19 -25 11 0 33 -8 50 -17 35 -21 47 -14 31
17 -6 12 -9 28 -6 36 4 11 -5 14 -44 14 -47 0 -50 -2 -50 -25z"/>
<path d="M1202 2976 c15 -13 24 -27 21 -30 -4 -3 8 -6 25 -6 18 0 31 3 31 8
-4 23 3 33 23 30 26 -4 37 -28 12 -28 -13 0 -15 -3 -7 -11 7 -7 19 -9 28 -5
13 5 15 13 10 34 -5 22 -4 25 6 15 18 -18 30 -16 23 2 -8 20 -140 22 -147 3
-4 -10 -6 -10 -6 0 -1 6 -11 12 -23 12 -23 -1 -23 -1 4 -24z"/>
<path d="M1536 2990 c5 -5 22 -11 36 -12 15 -1 24 -6 21 -11 -6 -11 15 -27 36
-27 11 0 10 4 -3 19 -17 18 -16 19 18 19 20 0 33 -4 31 -9 -3 -5 12 -11 34
-15 22 -4 39 -11 38 -16 -2 -9 43 -17 133 -21 25 -1 58 4 73 11 21 11 32 11
40 3 16 -16 42 -14 57 4 10 12 9 15 -5 15 -10 0 -15 5 -12 14 7 18 -39 40 -47
23 -5 -9 -7 -9 -12 1 -4 9 -60 12 -227 12 -146 0 -218 -3 -211 -10z m344 -4
c0 -2 -7 -6 -15 -10 -8 -3 -15 -1 -15 4 0 6 7 10 15 10 8 0 15 -2 15 -4z m88
-23 c18 -4 20 -8 10 -14 -20 -13 -42 -11 -64 6 -18 14 -18 14 6 15 14 0 36 -3
48 -7z"/>
<path d="M2066 2985 c-19 -15 -19 -15 3 -15 18 0 21 -4 16 -20 -6 -18 -2 -19
80 -14 76 5 86 3 92 -13 11 -28 26 -40 45 -36 25 7 32 33 8 33 -11 0 -20 6
-20 14 0 8 -7 16 -15 20 -8 3 -15 9 -15 13 0 13 53 8 90 -9 33 -16 34 -17 13
-23 -13 -4 -23 -14 -23 -22 0 -13 3 -14 23 -1 14 9 38 13 65 10 38 -4 45 -8
64 -45 l21 -41 21 27 c21 26 25 27 99 24 42 -2 82 2 87 7 16 16 113 13 127 -4
6 -9 9 -37 7 -71 -4 -48 -2 -57 13 -61 12 -3 26 4 38 20 16 22 16 25 2 19 -11
-4 -17 -1 -17 8 0 8 8 15 17 15 16 0 16 1 1 16 -12 12 -13 20 -4 40 6 13 17
24 24 24 14 0 17 -26 3 -34 -5 -3 -5 -25 0 -48 4 -24 8 -47 9 -52 0 -4 7 -5
16 -2 10 4 15 0 13 -12 -3 -30 1 -34 15 -19 11 10 15 46 15 140 l1 127 -457 0
c-387 -1 -461 -3 -477 -15z m168 -24 c3 -5 -12 -9 -34 -9 -22 0 -40 3 -40 9 0
12 67 12 74 0z m633 -43 c-3 -8 -6 -5 -6 6 -1 11 2 17 5 13 3 -3 4 -12 1 -19z"/>
<path d="M2782 2801 c0 -20 4 -31 11 -28 17 5 19 21 4 41 -13 17 -14 16 -15
-13z"/>
<path d="M90 2769 c0 -5 5 -7 10 -4 6 3 10 8 10 11 0 2 -4 4 -10 4 -5 0 -10
-5 -10 -11z"/>
<path d="M285 2750 c-3 -5 -1 -10 4 -10 6 0 11 5 11 10 0 6 -2 10 -4 10 -3 0
-8 -4 -11 -10z"/>
<path d="M2776 2751 c-3 -5 1 -11 9 -15 9 -3 15 0 15 9 0 16 -16 20 -24 6z"/>
<path d="M2940 2720 c0 -5 5 -10 11 -10 5 0 7 5 4 10 -3 6 -8 10 -11 10 -2 0
-4 -4 -4 -10z"/>
<path d="M2900 2694 c0 -8 5 -12 10 -9 6 4 8 11 5 16 -9 14 -15 11 -15 -7z"/>
<path d="M2989 2695 c-5 -20 -3 -65 4 -65 4 0 7 16 7 35 0 29 -7 48 -11 30z"/>
<path d="M2870 2675 c0 -8 4 -15 10 -15 5 0 7 7 4 15 -4 8 -8 15 -10 15 -2 0
-4 -7 -4 -15z"/>
<path d="M2880 2620 c0 -5 -7 -10 -15 -10 -8 0 -15 -7 -15 -15 0 -13 6 -11 30
7 34 25 36 28 15 28 -8 0 -15 -4 -15 -10z"/>
<path d="M2873 2561 c1 -16 5 -27 10 -24 10 6 9 53 -3 53 -5 0 -8 -13 -7 -29z"/>
<path d="M2983 2554 c-9 -20 -10 -32 -1 -48 9 -16 13 -17 16 -6 3 7 0 16 -6
18 -7 2 -12 8 -12 13 0 6 5 7 10 4 6 -4 10 5 10 19 0 32 -2 32 -17 0z"/>
<path d="M2840 2505 c0 -8 4 -15 10 -15 5 0 7 7 4 15 -4 8 -8 15 -10 15 -2 0
-4 -7 -4 -15z"/>
<path d="M2901 2459 c-13 -36 -7 -49 20 -49 25 0 24 -16 -1 -32 -24 -15 -26
-28 -5 -28 8 0 15 -8 14 -17 0 -11 -3 -13 -6 -5 -8 20 -22 14 -16 -8 3 -11 10
-20 15 -20 5 0 7 -4 4 -9 -3 -5 1 -11 8 -14 12 -5 14 4 11 44 -4 45 6 66 18
37 3 -8 6 -6 6 5 1 9 -5 17 -12 17 -9 0 -12 10 -9 31 4 30 -14 79 -29 79 -4 0
-12 -14 -18 -31z"/>
<path d="M2990 2459 c0 -6 -7 -9 -15 -5 -20 7 -19 -8 1 -29 14 -14 16 -35 12
-141 -3 -68 -1 -124 4 -124 4 0 8 70 8 155 0 85 -2 155 -5 155 -3 0 -5 -5 -5
-11z"/>
<path d="M2870 2358 c0 -7 5 -20 10 -28 8 -12 10 -9 10 13 0 15 -4 27 -10 27
-5 0 -10 -6 -10 -12z"/>
<path d="M2907 2233 c-13 -13 -7 -31 13 -36 11 -3 20 -13 20 -22 0 -9 4 -14 9
-11 16 10 -9 76 -29 76 -3 0 -10 -3 -13 -7z"/>
<path d="M2890 2146 c0 -7 7 -19 15 -26 12 -10 15 -9 15 8 0 11 -7 22 -15 26
-9 3 -15 0 -15 -8z"/>
<path d="M2833 2115 c-10 -22 -9 -25 7 -25 26 0 35 19 19 36 -12 11 -16 9 -26
-11z"/>
<path d="M2941 2094 c0 -11 3 -14 6 -6 3 7 2 16 -1 19 -3 4 -6 -2 -5 -13z"/>
<path d="M2983 2000 c-1 -102 0 -104 9 -43 6 38 6 78 0 105 -8 36 -9 27 -9
-62z"/>
<path d="M2911 2074 c0 -11 3 -14 6 -6 3 7 2 16 -1 19 -3 4 -6 -2 -5 -13z"/>
<path d="M2971 1858 c0 -21 -1 -40 -1 -43 0 -3 5 -5 10 -5 6 0 10 -8 11 -17 0
-12 2 -13 6 -5 3 7 -1 20 -9 29 -9 12 -9 15 0 9 7 -4 12 -1 12 9 0 9 -4 14 -9
10 -5 -3 -12 7 -14 22 -3 23 -4 21 -6 -9z"/>
<path d="M2970 1726 c0 -35 5 -58 15 -66 12 -10 15 -10 15 4 0 9 -4 16 -10 16
-6 0 -6 9 0 24 6 17 5 26 -3 30 -9 3 -9 5 1 5 17 1 15 28 -3 35 -12 4 -15 -5
-15 -48z"/>
<path d="M2964 1609 c-3 -5 -2 -23 1 -41 3 -18 7 -104 9 -190 2 -129 0 -155
-11 -146 -9 7 -13 7 -13 -1 0 -13 31 -51 42 -51 5 0 8 98 8 218 0 191 -2 219
-15 219 -9 0 -18 -4 -21 -8z"/>
<path d="M2802 1565 c1 -28 7 -62 15 -77 12 -25 15 -27 40 -15 l28 12 -27 3
c-24 3 -27 8 -26 35 1 18 -6 46 -14 62 l-16 30 0 -50z"/>
<path d="M2910 1510 c-17 -4 -21 -8 -12 -14 6 -4 12 -15 12 -26 0 -10 7 -21
16 -24 21 -8 21 -8 14 35 -4 31 -8 34 -30 29z"/>
<path d="M2935 1403 c10 -6 14 -16 11 -22 -4 -5 -2 -12 4 -16 6 -4 10 6 10 24
0 24 -4 29 -21 28 -18 -1 -19 -2 -4 -14z"/>
<path d="M2770 1353 c0 -7 -9 -13 -20 -13 -12 0 -20 -7 -21 -17 0 -11 -3 -13
-6 -5 -7 19 -20 14 -26 -10 -3 -11 2 -35 11 -53 16 -29 19 -30 42 -18 14 7 23
13 20 14 -53 9 -53 9 -41 43 7 16 18 26 30 26 25 0 32 12 20 30 -6 10 -9 11
-9 3z m-50 -63 c0 -5 -4 -10 -10 -10 -5 0 -10 5 -10 10 0 6 5 10 10 10 6 0 10
-4 10 -10z"/>
<path d="M2800 1324 c0 -8 5 -12 10 -9 6 4 8 11 5 16 -9 14 -15 11 -15 -7z"/>
<path d="M2951 1314 c0 -11 3 -14 6 -6 3 7 2 16 -1 19 -3 4 -6 -2 -5 -13z"/>
<path d="M2796 1275 c-17 -13 -18 -15 -3 -15 9 0 17 -6 17 -14 0 -8 5 -18 10
-21 6 -4 10 8 10 29 0 39 -5 43 -34 21z"/>
<path d="M2983 1159 c-8 -8 -8 -20 -3 -35 5 -13 7 -31 4 -39 -4 -8 -1 -15 5
-15 8 0 11 18 9 50 -2 27 -3 50 -3 50 -1 0 -6 -5 -12 -11z"/>
<path d="M2953 1063 c-7 -2 -12 -17 -12 -31 1 -21 2 -23 6 -7 3 11 10 26 15
33 11 13 10 13 -9 5z"/>
<path d="M2980 956 c0 -8 5 -18 10 -21 6 -3 10 3 10 14 0 12 -4 21 -10 21 -5
0 -10 -6 -10 -14z"/>
<path d="M2841 951 c-11 -7 -10 -11 7 -20 28 -15 31 -14 29 9 -1 21 -14 25
-36 11z"/>
<path d="M2991 874 c0 -11 3 -14 6 -6 3 7 2 16 -1 19 -3 4 -6 -2 -5 -13z"/>
<path d="M2990 834 c0 -14 -3 -14 -15 -4 -8 7 -15 10 -15 7 0 -7 30 -77 33
-77 1 0 4 20 5 45 1 25 -1 45 -3 45 -3 0 -5 -7 -5 -16z"/>
<path d="M2955 790 c3 -5 8 -10 11 -10 2 0 4 5 4 10 0 6 -5 10 -11 10 -5 0 -7
-4 -4 -10z"/>
<path d="M2930 761 c0 -5 7 -12 16 -15 24 -9 27 -7 10 9 -17 17 -26 19 -26 6z"/>
<path d="M2890 729 c0 -11 5 -17 10 -14 6 3 10 13 10 21 0 8 -4 14 -10 14 -5
0 -10 -9 -10 -21z"/>
<path d="M2980 741 c0 -5 -3 -16 -6 -25 -4 -11 -1 -16 10 -16 10 0 16 9 16 25
0 14 -4 25 -10 25 -5 0 -10 -4 -10 -9z"/>
<path d="M2923 680 c-3 -11 -12 -20 -20 -20 -8 0 -11 5 -8 10 3 6 2 10 -4 10
-24 0 -18 -20 14 -41 33 -23 50 -69 25 -69 -5 0 -10 -14 -10 -31 0 -17 4 -28
10 -24 6 4 10 -7 10 -24 0 -17 3 -31 8 -31 4 0 8 -11 8 -25 1 -14 -3 -25 -8
-25 -6 0 -7 -7 -4 -15 3 -8 9 -22 13 -32 4 -10 2 -14 -4 -10 -6 4 -13 -14 -17
-46 -5 -42 -3 -54 11 -64 11 -8 12 -13 4 -13 -25 0 -6 -33 22 -36 l27 -3 0
116 c0 96 -2 114 -14 110 -10 -4 -13 -1 -9 8 3 8 9 12 14 9 5 -3 9 51 9 125 0
98 -3 131 -12 131 -18 0 -33 -13 -33 -27 0 -7 -4 -12 -10 -10 -5 1 -9 12 -7
25 3 27 -8 29 -15 2z"/>
<path d="M2900 496 c0 -2 7 -9 15 -16 12 -10 15 -10 15 4 0 9 -7 16 -15 16 -8
0 -15 -2 -15 -4z"/>
<path d="M347 421 c13 -11 29 -36 35 -57 7 -21 18 -39 25 -41 17 -6 10 38 -10
67 -9 14 -17 30 -17 37 0 8 -12 13 -27 13 l-28 -1 22 -18z"/>
<path d="M480 333 c-19 -7 -30 -24 -24 -35 9 -14 95 -70 101 -65 8 9 -39 67
-55 67 -9 0 -11 7 -7 20 3 11 5 20 3 19 -2 0 -10 -3 -18 -6z"/>
<path d="M2906 192 c-3 -26 -7 -58 -7 -71 -1 -13 -4 -20 -7 -15 -14 19 -32 13
-32 -11 0 -14 -4 -25 -10 -25 -21 0 -26 -2 -43 -18 -20 -18 -47 -25 -47 -12 0
4 -21 6 -47 3 -27 -3 -54 -4 -60 -3 -13 1 -35 1 -133 -1 -52 -1 -119 -24 -106
-36 3 -3 12 -1 20 6 11 9 15 9 18 -1 4 -10 11 -11 36 -1 18 6 32 7 32 2 0 -5
25 -9 56 -9 46 0 55 3 50 15 -3 9 0 15 10 15 10 0 14 -6 10 -15 -5 -13 19 -15
174 -15 l180 0 0 92 c0 72 -3 89 -12 80 -7 -7 -20 -12 -30 -12 -10 0 -18 -4
-18 -10 0 -5 5 -10 10 -10 6 0 10 -7 10 -15 0 -8 4 -15 8 -15 4 0 6 -16 4 -35
-5 -40 -7 -41 -29 -19 -13 13 -14 20 -5 35 8 12 8 19 2 19 -6 0 -15 -10 -21
-22 -8 -20 -9 -19 -4 7 9 52 12 136 4 140 -4 3 -10 -16 -13 -43z"/>
<path d="M2835 214 c17 -13 18 -16 5 -24 -13 -8 -12 -10 3 -10 22 0 23 36 1
44 -26 10 -30 6 -9 -10z"/>
<path d="M2860 140 c0 -5 7 -7 15 -4 8 4 15 8 15 10 0 2 -7 4 -15 4 -8 0 -15
-4 -15 -10z"/>
<path d="M2735 130 c-8 -14 3 -30 21 -30 18 0 18 8 0 26 -9 9 -17 10 -21 4z"/>
<path d="M2558 93 c7 -3 16 -2 19 1 4 3 -2 6 -13 5 -11 0 -14 -3 -6 -6z"/>
<path d="M2785 90 c-3 -5 -1 -10 4 -10 6 0 11 5 11 10 0 6 -2 10 -4 10 -3 0
-8 -4 -11 -10z"/>
<path d="M1250 70 c0 -5 5 -10 11 -10 5 0 7 5 4 10 -3 6 -8 10 -11 10 -2 0 -4
-4 -4 -10z"/>
<path d="M1654 54 c-18 -24 -22 -26 -41 -14 -18 11 -24 12 -37 1 -9 -8 -16
-20 -16 -27 0 -11 25 -14 120 -14 125 0 143 7 90 35 -17 9 -28 20 -25 25 4 6
-3 10 -15 10 -12 0 -19 -4 -16 -9 3 -5 -1 -12 -9 -15 -10 -4 -19 2 -23 14 -7
20 -9 19 -28 -6z"/>
<path d="M1338 59 c-2 -7 -19 -12 -38 -13 -19 0 -38 -5 -42 -11 -18 -24 -6
-32 52 -34 53 -1 60 1 60 18 0 40 -23 68 -32 40z"/>
<path d="M2338 45 c-3 -14 -1 -25 4 -25 5 0 7 -4 4 -8 -3 -5 8 -9 24 -10 22 0
30 4 29 16 0 10 -3 12 -5 5 -7 -17 -44 16 -37 33 3 8 1 14 -5 14 -5 0 -12 -11
-14 -25z"/>
<path d="M1157 52 c-10 -14 31 -52 57 -52 31 0 34 20 8 43 -19 18 -57 23 -65
9z"/>
<path d="M1816 25 c-3 -9 1 -18 10 -22 19 -7 26 0 18 21 -8 20 -20 21 -28 1z"/>
<path d="M1943 23 c-57 -7 -36 -24 27 -22 34 1 57 5 53 9 -13 12 -45 17 -80
13z"/>
<path d="M2063 23 c-7 -3 -13 -9 -13 -14 0 -5 63 -9 142 -9 106 0 139 3 131
11 -12 12 -235 22 -260 12z"/>
</g>
</svg>
